<svg width="55" height="48" viewBox="0 0 55 48" fill="none" xmlns="http://www.w3.org/2000/svg">
<g clip-path="url(#clip0_370_552)">
<path d="M50.6216 10.2677C48.1144 8.47686 45.1297 7.9993 42.1449 8.35747C42.1449 4.71607 39.9362 1.31346 35.8173 0.298646C31.1611 -0.835559 26.5645 1.19407 23.5798 4.65638C20.7741 1.43285 15.9388 0.119561 11.9989 2.92523C8.47694 5.43242 7.58151 9.07381 8.47694 12.4167C6.02944 11.5213 3.22377 12.1183 1.61201 14.5657C-0.59671 17.7893 0.537496 21.9082 3.70133 24.0573C7.34273 26.5644 12.4168 26.9226 16.7149 27.5196C22.1471 28.2956 27.6987 28.6538 33.1907 28.5344C39.9959 28.3553 52.4125 28.6538 54.5615 20.0577C55.5166 16.3566 53.6064 12.4167 50.6216 10.2677Z" fill="#F3F9FA"/>
<path d="M37.7878 32.7129C36.2954 32.7129 34.8031 32.7129 33.3107 32.7129C33.5495 31.6384 33.6092 30.5042 33.6092 29.37C33.5495 28.1761 32.5943 27.1016 31.3408 27.1016C27.8784 27.1613 23.8789 27.1016 20.6553 28.4148C19.8196 28.7133 19.7002 29.7878 20.4166 30.2057C20.2972 30.5042 20.2375 30.8026 20.2972 31.2205C20.3569 31.8175 20.4166 32.3547 20.4763 32.9517C20.4763 33.0711 20.4763 33.2501 20.536 33.3695C19.2227 33.3695 17.79 33.1904 16.6558 33.1904C14.4471 33.1904 13.0144 36.1752 14.7455 37.7273C17.0139 39.6972 19.2227 41.6671 21.4911 43.6967C22.8641 44.8906 24.5355 47.0994 26.5652 47.0397C28.8336 46.98 30.9826 44.3534 32.5943 43.0401C34.9225 41.0702 37.2506 39.1002 39.6384 37.1303C41.3098 35.6379 39.8771 32.7129 37.7878 32.7129Z" fill="#7AFCF0"/>
<path d="M41.1914 9.78992C42.445 5.3128 40.296 1.13414 35.401 0.477499C31.1627 -0.0597557 26.208 1.49232 24.238 5.43219C21.313 -2.32817 5.49382 3.40255 8.41887 12.2374C2.56876 10.745 -2.6844 17.3712 1.55395 22.5647C4.12083 25.7285 9.01582 25.7285 12.7169 25.9673C14.8062 26.1464 16.8956 26.2061 18.9252 26.2657C19.7012 28.8923 20.1788 31.4592 20.4176 34.2052C17.791 34.1455 15.1644 34.3843 12.4781 34.5037C12.0603 34.5037 11.7618 35.0409 12.12 35.3991C16.5374 39.4583 21.1339 43.4579 25.7304 47.2784C25.9095 47.3978 26.1483 47.5172 26.3274 47.3381C31.6999 43.4579 36.8934 39.3986 41.9078 35.1006C42.2659 34.8021 41.9675 34.2649 41.5496 34.2052C38.6842 33.9664 35.8189 33.9067 32.8938 34.0858C33.4311 31.5189 33.9683 28.8923 34.3265 26.3254C38.5052 26.2657 42.6838 25.9673 46.6834 24.7734C49.8472 23.8779 53.5483 22.2065 54.0855 18.5054C55.1601 11.6405 46.8624 7.87968 41.1914 9.78992ZM31.879 34.623C31.8193 35.1006 32.2969 35.3394 32.5953 35.1603C32.655 35.1603 32.7147 35.1603 32.7744 35.1603C35.2816 35.0409 37.7888 35.1006 40.296 35.22C38.3858 36.8318 36.4755 38.4435 34.5056 39.9956C33.1326 41.1298 31.6999 42.2043 30.2672 43.2788C29.4315 43.8758 27.7601 45.7263 26.7452 45.9054C24.5365 46.2636 21.1936 42.1446 19.5818 40.7716C17.6119 39.0405 15.642 37.3093 13.7317 35.5185C16.1792 35.3394 18.6267 35.22 21.0742 34.8021C21.2533 34.8021 21.313 34.623 21.2533 34.5037C21.313 34.444 21.313 34.3843 21.313 34.2649C21.313 31.5189 20.6563 28.7729 19.5818 26.3254C23.2232 26.4448 26.9243 26.4448 30.5657 26.4448C31.5805 26.4448 32.655 26.4448 33.6699 26.4448C32.9535 29.1311 32.3566 31.8771 31.879 34.623ZM50.1457 22.3856C45.6685 25.1315 39.8184 25.43 34.3862 25.43C34.2668 25.3106 34.0877 25.3106 33.9683 25.43C32.5953 25.43 31.2821 25.43 29.9688 25.43C23.4023 25.43 16.8359 25.4897 10.3291 24.8331C6.50863 24.4749 1.31517 23.6392 1.07639 18.7442C0.837607 14.5655 4.89687 12.0583 8.65765 13.1328C8.71735 13.3119 8.95613 13.3119 9.13521 13.2522C9.43369 13.2522 9.61277 12.7747 9.3143 12.5956C9.2546 12.5956 9.2546 12.5956 9.19491 12.5359C7.16528 4.29798 20.537 -1.61183 23.5814 6.92456C23.5814 6.98426 23.5814 7.04395 23.6411 7.10365C23.7008 7.22304 23.7008 7.28273 23.7605 7.34243C23.8799 7.76029 24.6559 7.76029 24.5962 7.22304C24.5962 6.98426 24.5365 6.68578 24.4768 6.447C26.2677 3.16378 29.5509 1.43262 33.3714 1.37292C38.8036 1.31323 41.5496 5.13371 40.0572 10.1481C39.9975 10.2675 40.0572 10.3869 40.0572 10.5063C40.0572 10.8644 40.4154 11.2226 40.8333 11.0435C43.6389 9.78992 46.8028 10.0287 49.3696 11.6405C53.3692 14.088 54.6228 19.6396 50.1457 22.3856Z" fill="#253335"/>
<path d="M37.6699 3.70109C37.1327 3.22353 36.476 2.86536 35.7 2.80566C35.4612 2.80566 35.4015 3.22353 35.6403 3.28322C36.2969 3.40261 36.8342 3.70109 37.3117 4.17865C37.7893 4.65621 37.849 5.19346 38.1475 5.79041C38.2669 6.08889 38.7444 5.9098 38.7444 5.61133C38.7444 4.95468 38.2072 4.17865 37.6699 3.70109Z" fill="#253335"/>
<path d="M36.355 4.35749C36.1162 4.2381 35.8178 4.53658 36.0565 4.71566C36.7729 5.31261 37.0714 6.08865 36.952 6.98407C36.8923 7.34224 37.4892 7.40194 37.6086 7.04377C37.7877 6.02895 37.2504 4.89475 36.355 4.35749Z" fill="#253335"/>
<path d="M5.37438 21.9678C4.18048 21.4903 3.52383 20.7143 3.22536 19.4607C3.16566 19.2816 2.86719 19.2816 2.86719 19.5204C2.86719 20.8336 3.9417 22.2066 5.25499 22.5051C5.61316 22.6245 5.73255 22.0872 5.37438 21.9678Z" fill="#253335"/>
<path d="M7.04669 21.3705C6.21096 20.893 5.61401 20.296 4.95736 19.52C4.77828 19.3409 4.5395 19.5797 4.59919 19.7587C5.01706 20.6542 5.85279 21.4302 6.68852 21.9078C7.10638 22.0869 7.40486 21.5496 7.04669 21.3705Z" fill="#253335"/>
<path d="M23.402 42.3236C22.3872 41.4879 21.3127 40.7716 20.3576 39.8165C20.1785 39.6374 19.88 39.9358 20.0591 40.1149C20.8949 41.07 21.9097 42.1446 23.0439 42.8012C23.2827 42.9803 23.6408 42.5624 23.402 42.3236Z" fill="#253335"/>
<path d="M25.0159 42.3239C24.5981 41.8463 24.0608 41.5478 23.5832 41.13C23.1057 40.7121 22.6281 40.3539 22.1506 39.9361C21.9715 39.757 21.673 40.0555 21.8521 40.2346C22.3297 40.7121 22.8072 41.13 23.2848 41.5478C23.7026 41.9657 24.1205 42.4433 24.5981 42.8014C24.9562 43.0402 25.2547 42.5627 25.0159 42.3239Z" fill="#253335"/>
</g>
<defs>
<clipPath id="clip0_370_552">
<rect width="54.8" height="47.5172" fill="white"/>
</clipPath>
</defs>
</svg>
