<svg width="57" height="54" viewBox="0 0 57 54" fill="none" xmlns="http://www.w3.org/2000/svg">
<g clip-path="url(#clip0_370_564)">
<path d="M51.4009 32.7C50.9009 31.8 50.9009 30.8 51.4009 29.8C52.4009 26.6 47.8009 24.8 46.1009 27.6C44.2009 30.9 42.1009 34.3 39.5009 37.2C35.0009 42.1 29.8009 38.6 31.4009 32.4C32.0009 30.1 29.5009 28.3 27.7009 28.7C27.6009 28.2 27.4009 27.8 27.0009 27.4C25.3009 25.5 24.1009 22.7 25.5009 20.5C29.5009 19.6 33.2009 20.5 37.1009 21.9C39.4009 22.7 40.2009 19.5 38.6009 18.3C34.9009 15.5 30.0009 15.3 25.7009 16.8C25.3009 16.1 24.9009 15.4 25.3009 14.5C25.9009 12.9 28.0009 12.7 29.4009 13C31.4009 13.3 32.9009 11.9 32.5009 9.90003C32.2009 8.30003 32.9009 6.90003 34.0009 5.90003C37.1009 6.40003 40.0009 7.40003 42.9009 8.50003C45.8009 9.50003 47.3009 5.30003 44.9009 3.70003C40.3009 0.800032 34.4009 -0.199968 29.0009 0.200032C25.4009 0.500032 19.3009 1.20003 17.9009 5.00003C18.0009 5.10003 18.0009 5.30003 18.0009 5.50003C16.7009 6.00003 15.6009 7.30003 16.2009 8.80003C17.8009 13.3 15.9009 15.5 12.7009 18.1C11.1009 19.4 9.90094 20.7 10.0009 22.9C10.3009 27.6 18.0009 31.9 22.4009 34C22.4009 37.1 19.9009 39.8 18.9009 42.6C18.3009 44.3 18.5009 45.1 17.3009 44.7C16.7009 44.5 16.1009 44.2 15.6009 43.9C14.3009 43.1 13.1009 41.9 12.1009 40.8C8.60094 36.7 9.10094 27.2 2.10094 27.5C0.400939 27.6 -0.399061 29.5 0.200939 30.7C-2.09906 43.2 13.8009 51.7 24.2009 53.1C36.1009 54.7 50.0009 48.6 53.1009 36.1C53.5009 34.6 52.6009 33.3 51.4009 32.7ZM32.6009 46.4C32.7009 46.1 32.6009 45.7 32.6009 45.4C33.2009 45.6 33.8009 45.7 34.5009 45.8C34.6009 45.8 34.7009 45.8 34.8009 45.8C34.1009 46 33.3009 46.2 32.6009 46.4Z" fill="#F3F9FA"/>
<path d="M14.5016 27.1999C14.0016 26.3999 13.3016 25.8999 12.5016 25.6999C12.5016 25.6999 12.5016 25.6999 12.4016 25.5999C7.90158 22.1999 11.1016 20.0999 13.2016 16.5999C14.7016 13.9999 15.5016 11.2999 15.2016 8.39991C14.9016 6.29991 11.6016 5.29991 11.1016 7.79991C9.80158 14.1999 0.201583 16.5999 1.70158 23.7999C2.40158 26.9999 5.10158 29.1999 7.90158 31.2999C9.70158 35.7999 12.5016 39.5999 15.8016 43.0999C18.3016 45.7999 22.3016 43.4999 22.6016 40.2999C22.9016 34.1999 18.9016 30.5999 14.5016 27.1999Z" fill="#F3F9FA"/>
<path d="M46.6003 7.69983C44.9003 6.39983 42.2003 5.99983 40.7003 7.59983C39.0003 3.19983 32.5003 5.29983 33.3003 9.99983C33.4003 10.5998 33.5003 11.1998 33.7003 11.7998C33.6003 11.7998 33.5003 11.7998 33.4003 11.7998C31.5003 11.9998 29.7003 12.2998 28.3003 12.8998C24.6003 14.2998 24.8003 19.0998 27.4003 20.6998C27.2003 20.7998 27.1003 20.8998 27.0003 20.9998C26.9003 21.0998 26.7003 21.2998 26.6003 21.3998C25.7003 22.2998 25.4003 23.6998 25.7003 24.8998C26.4003 27.3998 28.1003 28.5998 30.6003 28.9998C31.6003 29.1998 32.5003 29.0998 33.4003 28.9998C33.1003 29.3998 32.9003 29.7998 32.6003 30.1998C30.1003 33.4998 34.2003 37.1998 37.5003 36.5998C41.1003 35.8998 44.1003 33.6998 45.9003 30.4998C46.2003 29.9998 46.5003 29.3998 46.8003 28.7998C46.9003 34.0998 55.4003 33.9998 55.8003 28.3998C56.1003 20.3998 52.8003 12.7998 46.6003 7.69983ZM31.2003 21.0998C31.1003 20.9998 31.0003 20.8998 30.9003 20.8998C31.0003 20.8998 31.2003 20.7998 31.3003 20.7998C32.4003 20.4998 33.5003 20.2998 34.7003 20.2998C33.2003 20.9998 31.7003 21.5998 31.2003 21.0998Z" fill="#F3F9FA"/>
<path d="M44.9027 4.80002C34.8027 -0.799977 22.2027 2.24113e-05 13.0027 6.80002C4.0027 13.4 -0.797296 24.8 3.0027 35.6C7.0027 46.9 18.5027 53.3 30.0027 51.5C30.1027 51.6 30.2027 51.6 30.4027 51.6C41.6027 51.9 51.5027 45.1 55.3027 34.6C59.3027 23.1 55.8027 10.7 44.9027 4.80002ZM16.5027 6.60002C16.5027 7.50002 15.2027 9.10002 15.2027 10.1C15.2027 10.8 15.6027 11.9 15.4027 12.6C15.2027 13.4 14.1027 14.6 13.6027 15.3C11.9027 17.6 9.5027 19.8 10.3027 22.7C10.0027 22.8 9.6027 23 9.7027 23.4C10.2027 28.1 17.2027 28.2 19.2027 32.2C21.0027 35.7 18.3027 37.4 17.7027 40.4C17.4027 42 17.9027 43.6 18.5027 45.1C15.3027 44.5 14.9027 40.8 13.8027 38.3C13.5027 37.6 13.0027 37 12.6027 36.3C11.2027 34.1 10.8027 33.1 11.2027 30.6C11.6027 30.3 11.6027 29.6 11.0027 29.4C9.8027 28.9 8.5027 28.5 7.2027 28.1C6.1027 27.7 4.1027 27.4 4.0027 25.9C4.0027 25.6 3.7027 25.5 3.5027 25.5C4.4027 17.7 9.6027 10.7 16.5027 6.60002ZM30.3027 50.1C30.0027 50.1 29.8027 50.2 29.7027 50.4C17.7027 50.9 6.0027 44.2 3.7027 31.5C3.4027 30 3.3027 28.5 3.4027 27C3.7027 27.6 4.3027 28.1 5.0027 28.4C6.6027 29.2 8.5027 29.8 10.3027 30.4C8.6027 34.8 11.7027 36.2 13.1027 40.4C14.1027 43.3 15.6027 46.6 19.1027 46.4C19.6027 46.4 19.8027 46 19.7027 45.6C19.7027 45.5 19.7027 45.4 19.7027 45.3C18.9027 42.8 18.7027 41.1 20.0027 38.8C20.5027 38 21.1027 37.7 21.4027 36.8C22.0027 35.3 21.8027 33.8 21.2027 32.4C20.6027 30.9 19.6027 29.7 18.3027 28.7C16.4027 27.1 11.8027 25.9 11.0027 23.3C11.1027 23.2 11.1027 23.1 11.1027 23C10.3027 18.2 16.4027 16.1 17.1027 11.9C17.4027 10.5 16.9027 9.70002 17.5027 8.10002C17.8027 7.10002 18.2027 7.00002 17.9027 5.90002C17.9027 5.80002 17.9027 5.80002 17.8027 5.70002C20.1027 4.50002 22.4027 3.70002 24.9027 3.20002C31.9027 1.80002 39.1027 3.20002 44.8027 6.70002C44.2027 7.30002 43.5027 7.90002 42.8027 8.10002C39.2027 9.40002 40.4027 7.40002 39.3027 6.50002C38.7027 6.00002 38.3027 5.50002 37.5027 5.30002C35.7027 4.80002 33.9027 5.70002 32.5027 6.70002C30.5027 8.10002 30.1027 9.90002 31.3027 11.2C29.2027 11.6 27.4027 13.5 26.6027 15.4C26.1027 16.5 25.7027 18 26.8027 18.9C24.4027 20.3 23.2027 23.3 24.4027 25.9C25.8027 29.1 28.9027 29.4 32.0027 29.8C30.6027 33.9 31.6027 40.9 37.3027 40.2C40.0027 39.9 41.7027 37.4 43.1027 35.4C44.3027 33.8 45.3027 32.2 46.1027 30.5C46.9027 28.8 47.2027 27.2 48.6027 26.1C48.1027 27.9 48.2027 30.1 50.3027 30.7C50.8027 30.8 51.2027 30.7 51.6027 30.6C51.6027 30.8 51.7027 31.1 51.7027 31.3C51.9027 32.3 52.6027 33.2 53.7027 33.2C50.4027 43.1 41.2027 50.1 30.3027 50.1ZM54.1027 32.1C54.1027 32.1 54.0027 32.1 54.0027 32C52.6027 31.7 53.6027 29.4 52.1027 29.2C51.3027 29.1 50.8027 29.8 50.0027 29.2C49.0027 28.3 49.5027 26.8 49.6027 25.7C49.6027 25.5 49.5027 25.4 49.4027 25.3C49.4027 24.9 49.0027 24.5 48.5027 24.7C45.4027 25.8 45.0027 29.5 43.5027 32C42.3027 34.1 40.5027 37.3 38.4027 38.4C34.6027 40.4 32.7027 36.7 32.3027 33.9C32.1027 32.6 32.4027 31.2 32.4027 29.9C32.7027 29.6 32.6027 28.9 32.1027 28.8C30.0027 28.2 27.7027 28.6 26.1027 26.8C24.2027 24.6 25.1027 21.6 27.2027 20C27.3027 19.9 27.4027 19.7 27.4027 19.6C28.0027 19.7 28.7027 19.6 29.1027 19C29.2027 18.9 29.4027 18.8 29.5027 18.6C29.6027 18.6 29.7027 18.6 29.8027 18.5C30.2027 18.2 33.4027 20.3 33.8027 20.5C34.8027 20.9 35.9027 21.2 37.0027 21.2C38.5027 21.1 39.9027 20.6 40.7027 19.4C41.6027 19.2 41.2027 17.9 40.3027 18.1C37.8027 18.6 35.8027 16.3 33.4027 15.9C31.9027 15.7 30.7027 16.2 29.6027 17.1C29.4027 17.1 29.1027 17.2 28.9027 17.4C29.0027 17.6 28.9027 17.8 29.0027 18C28.8027 17.9 28.5027 17.9 28.2027 18.1C28.0027 17.9 27.8027 17.7 27.5027 17.5L27.6027 16.8C27.7027 16.4 27.9027 16 28.1027 15.6C28.4027 15 28.8027 14.4 29.3027 13.9C30.3027 12.8 31.6027 12.5 33.0027 12.5C33.2027 12.6 33.4027 12.6 33.6027 12.7C34.3027 12.9 34.8027 11.9 34.1027 11.5C33.7027 11.3 33.2027 11.1 32.8027 10.9C32.9027 10 33.1027 9.20002 33.2027 8.30002C33.8027 7.40002 36.3027 6.70002 37.1027 7.00002C38.6027 7.40002 39.1027 9.20002 40.7027 9.70002C42.7027 10.3 44.5027 9.10002 45.7027 7.60002C51.1027 11.3 54.9027 17.2 55.1027 24.8C55.1027 27.2 54.8027 29.7 54.1027 32.1ZM31.4027 17.5C32.1027 17.2 32.8027 17.1 33.7027 17.2C34.8027 17.4 35.8027 18.2 36.8027 18.7C37.6027 19.1 38.4027 19.4 39.3027 19.5C37.2027 20.5 34.8027 19.5 32.7027 18.3C32.3027 18.1 31.9027 17.7 31.4027 17.5Z" fill="#253335"/>
<path d="M52.6014 17.3C52.3014 15.7 51.1014 13.9 50.0014 12.7C49.7014 12.4 49.2014 12.8 49.4014 13.1C49.8014 13.8 50.3014 14.5 50.7014 15.3C51.1014 16.1 51.3014 16.9 51.7014 17.6C52.1014 18.1 52.7014 17.7 52.6014 17.3Z" fill="#05DAC3"/>
<path d="M51.3028 18.1002C50.9028 17.0002 50.3028 15.8002 49.7028 14.8002C49.5028 14.5002 48.9028 14.7002 49.1028 15.1002C49.5028 16.2002 50.0028 17.4002 50.6028 18.5002C50.7028 18.8002 51.5028 18.5002 51.3028 18.1002Z" fill="#05DAC3"/>
<path d="M22.5044 47C22.3044 46.5 22.0044 46 21.9044 45.4C21.8044 44.9 21.8044 44.4 21.7044 43.8C21.6044 43.4 20.9044 43.4 20.8044 43.8C20.6044 45 21.2044 46.5 22.0044 47.3C22.2044 47.6 22.6044 47.3 22.5044 47Z" fill="#05DAC3"/>
<path d="M24.7014 46.1001C24.2014 44.8001 23.7014 43.5001 23.1014 42.3001C22.9014 41.8001 22.1014 42.2001 22.3014 42.7001C22.8014 44.0001 23.5014 45.2001 24.1014 46.4001C24.3014 46.6001 24.8014 46.4001 24.7014 46.1001Z" fill="#05DAC3"/>
<path d="M10.1022 14.5C8.70221 15.5 7.80221 17.2 7.30221 18.8C7.20221 19.1 7.70221 19.3 7.80221 19C8.10221 18.3 8.50221 17.6 8.90221 17C9.40221 16.3 10.0022 15.8 10.6022 15.2C10.9022 14.8 10.5022 14.2 10.1022 14.5Z" fill="#05DAC3"/>
<path d="M11.0008 15.6C9.90078 16 9.30078 17.1 9.30078 18.2C9.30078 18.6 9.80078 18.5 9.80078 18.2C9.90078 17.3 10.5008 16.7 11.3008 16.3C11.7008 16.1 11.4008 15.5 11.0008 15.6Z" fill="#05DAC3"/>
</g>
<defs>
<clipPath id="clip0_370_564">
<rect width="56.9" height="53.3" fill="white"/>
</clipPath>
</defs>
</svg>
