<svg width="61" height="51" viewBox="0 0 61 51" fill="none" xmlns="http://www.w3.org/2000/svg">
<path d="M48.3572 11.1748H0.34375V49.8678H48.3572V11.1748Z" fill="white"/>
<path d="M48.3491 50.2039H0.33549C0.150392 50.2039 0 50.0535 0 49.8684V11.1753C0 10.9902 0.150392 10.8398 0.33549 10.8398H48.3491C48.5342 10.8398 48.6846 10.9902 48.6846 11.1753V49.8684C48.6846 50.0535 48.5342 50.2039 48.3491 50.2039ZM0.670979 49.5329H48.0136V11.5108H0.670979V49.5329Z" fill="black"/>
<path d="M48.3572 7.15332H0.34375V13.6395H48.3572V7.15332Z" fill="#7AFCF0"/>
<path d="M48.3491 13.975H0.33549C0.150392 13.975 0 13.8246 0 13.6395V7.15336C0 6.96826 0.150392 6.81787 0.33549 6.81787H48.3491C48.5342 6.81787 48.6846 6.96826 48.6846 7.15336V13.6395C48.6846 13.8246 48.5342 13.975 48.3491 13.975ZM0.670979 13.304H48.0136V7.48885H0.670979V13.304Z" fill="black"/>
<path d="M22.2022 23.561H16.1094V44.4153H22.2022V23.561Z" fill="white"/>
<path d="M22.1939 44.7509H16.1011C15.916 44.7509 15.7656 44.6005 15.7656 44.4154V23.5611C15.7656 23.376 15.916 23.2256 16.1011 23.2256H22.1978C22.3829 23.2256 22.5333 23.376 22.5333 23.5611V44.4154C22.5294 44.6005 22.379 44.7509 22.1939 44.7509ZM16.4366 44.0799H21.8584V23.8966H16.4366V44.0799Z" fill="black"/>
<path d="M32.1084 30.7837H26.0156V44.4153H32.1084V30.7837Z" fill="#7AFCF0"/>
<path d="M32.1002 44.7508H26.0074C25.8223 44.7508 25.6719 44.6004 25.6719 44.4154V30.7837C25.6719 30.5986 25.8223 30.4482 26.0074 30.4482H32.1002C32.2853 30.4482 32.4356 30.5986 32.4356 30.7837V44.4154C32.4356 44.6004 32.2853 44.7508 32.1002 44.7508ZM26.3429 44.0799H31.7647V31.1192H26.3429V44.0799Z" fill="black"/>
<path d="M12.3154 28.4976H6.22266V44.4159H12.3154V28.4976Z" fill="white"/>
<path d="M12.3072 44.751H6.2144C6.0293 44.751 5.87891 44.6006 5.87891 44.4155V28.4971C5.87891 28.312 6.0293 28.1616 6.2144 28.1616H12.3072C12.4923 28.1616 12.6427 28.312 12.6427 28.4971V44.4155C12.6427 44.6006 12.4923 44.751 12.3072 44.751ZM6.54988 44.08H11.9717V28.8326H6.54988V44.08Z" fill="black"/>
<path d="M8.11506 43.7326C8.09578 43.7326 8.07649 43.7288 8.05721 43.7172C7.66388 43.482 7.28597 43.2313 6.93506 42.9652C6.88493 42.9267 6.87722 42.8573 6.91192 42.8071C6.95048 42.757 7.0199 42.7493 7.07003 42.784C7.41708 43.0462 7.78728 43.293 8.1729 43.5244C8.22689 43.5552 8.24231 43.6246 8.21146 43.6786C8.19218 43.7133 8.15362 43.7326 8.11506 43.7326Z" fill="black"/>
<path d="M10.126 43.7019C10.1028 43.7019 10.0835 43.6942 10.0643 43.6827L6.98316 41.581C6.93303 41.5463 6.91761 41.4769 6.95231 41.4268C6.98702 41.3766 7.05643 41.3651 7.10656 41.3959L10.1877 43.4976C10.2378 43.5323 10.2532 43.6017 10.2185 43.6518C10.1992 43.6826 10.1645 43.7019 10.126 43.7019Z" fill="black"/>
<path d="M11.3984 42.7801C11.3791 42.7801 11.356 42.7762 11.3405 42.7646L6.99074 40.0576C6.93675 40.0267 6.92133 39.9573 6.95603 39.9033C6.99074 39.8493 7.05629 39.8339 7.11028 39.8686L11.4601 42.5757C11.5141 42.6065 11.5295 42.6759 11.4948 42.7299C11.4716 42.7608 11.4331 42.7801 11.3984 42.7801Z" fill="black"/>
<path d="M11.4536 41.1568C11.4343 41.1568 11.4189 41.1529 11.3996 41.1452C9.89181 40.3316 8.40717 39.4601 6.98809 38.5461C6.93796 38.5114 6.92253 38.442 6.95338 38.3919C6.98809 38.3418 7.0575 38.3263 7.10763 38.3572C8.52286 39.2673 9.99978 40.1388 11.5037 40.9485C11.5577 40.9794 11.577 41.045 11.55 41.0989C11.5307 41.1336 11.4921 41.1568 11.4536 41.1568Z" fill="black"/>
<path d="M11.3946 39.4756C11.3753 39.4756 11.3561 39.4717 11.3406 39.4602C9.87527 38.635 8.41377 37.7673 6.99855 36.8842C6.94456 36.8534 6.92914 36.784 6.96384 36.73C6.99855 36.676 7.06411 36.6606 7.11809 36.6953C8.53332 37.5745 9.99096 38.4421 11.4525 39.2674C11.5064 39.2982 11.5257 39.3676 11.4949 39.4216C11.4717 39.4563 11.4332 39.4756 11.3946 39.4756Z" fill="black"/>
<path d="M11.3785 37.7865C11.3592 37.7865 11.3399 37.7826 11.3245 37.771L6.94386 35.2568C6.88987 35.2259 6.87059 35.1565 6.90144 35.1026C6.93229 35.0486 7.0017 35.0293 7.05569 35.0601L11.4363 37.5744C11.4903 37.6052 11.5096 37.6746 11.4787 37.7286C11.4518 37.7672 11.417 37.7865 11.3785 37.7865Z" fill="black"/>
<path d="M11.3873 36.2213C11.368 36.2213 11.3525 36.2175 11.3333 36.2059C9.84477 35.4 8.36785 34.5478 6.94491 33.6724C6.89092 33.6416 6.8755 33.5721 6.90635 33.5182C6.9372 33.4642 7.00661 33.4487 7.0606 33.4796C8.47968 34.3549 9.95275 35.2033 11.4374 36.0054C11.4914 36.0362 11.5107 36.1018 11.4837 36.1558C11.4682 36.1982 11.4297 36.2213 11.3873 36.2213Z" fill="black"/>
<path d="M11.2613 34.3847C11.242 34.3847 11.2227 34.3808 11.2034 34.3692L7.04257 31.9283C6.98858 31.8974 6.97315 31.828 7.004 31.774C7.03485 31.72 7.10427 31.7046 7.15825 31.7354L11.3191 34.1803C11.3731 34.2111 11.3885 34.2805 11.3577 34.3345C11.3384 34.3654 11.2998 34.3847 11.2613 34.3847Z" fill="black"/>
<path d="M11.2372 32.7466C11.2179 32.7466 11.1987 32.7428 11.1832 32.7312C9.79885 31.9368 8.41062 31.1116 7.05324 30.271C6.99925 30.2401 6.98383 30.1707 7.01853 30.1167C7.04938 30.0627 7.11879 30.0473 7.17278 30.082C8.52631 30.9188 9.91068 31.744 11.2951 32.5384C11.349 32.5693 11.3683 32.6387 11.3375 32.6927C11.3143 32.7274 11.2758 32.7466 11.2372 32.7466Z" fill="black"/>
<path d="M11.3912 31.2311C11.3719 31.2311 11.3487 31.2272 11.3333 31.2157L8.53371 29.4765C8.47972 29.4457 8.46429 29.3763 8.499 29.3223C8.53371 29.2683 8.59926 29.2529 8.65325 29.2876L11.4529 31.0267C11.5068 31.0576 11.5223 31.127 11.4876 31.181C11.4683 31.2118 11.4297 31.2311 11.3912 31.2311Z" fill="black"/>
<path d="M11.3871 29.7775C11.3678 29.7775 11.3447 29.7698 11.3254 29.7583L10.6082 29.2878C10.558 29.2531 10.5426 29.1837 10.5773 29.1336C10.612 29.0834 10.6814 29.068 10.7316 29.1027L11.4488 29.5732C11.4989 29.6079 11.5144 29.6773 11.4797 29.7274C11.4604 29.7583 11.4257 29.7775 11.3871 29.7775Z" fill="black"/>
<path d="M45.4648 25.8218C47.8056 28.1278 50.1501 30.43 52.4908 32.736C53.7287 33.9545 54.9665 35.1731 56.3162 36.2297C57.045 36.8004 57.8509 37.3364 58.7379 37.3364C59.6209 37.3364 60.5619 36.5922 60.5541 35.5896C60.5503 34.8106 60.0104 34.1821 59.5053 33.6499C55.7763 29.7166 51.8777 25.9877 47.8287 22.4785C47.0922 23.566 46.3479 24.6534 45.4648 25.8218Z" fill="white"/>
<path d="M58.7296 37.6673C57.7424 37.6673 56.8825 37.1004 56.0996 36.4873C54.7345 35.4191 53.4697 34.1736 52.2473 32.9704L45.2213 26.0563C45.1017 25.9368 45.0863 25.7478 45.1904 25.6128C46.0658 24.4521 46.8178 23.3531 47.5466 22.2888C47.6006 22.2078 47.6854 22.1577 47.7818 22.1423C47.8782 22.1307 47.9746 22.1577 48.044 22.2194C52.0853 25.7208 56.0225 29.4883 59.7438 33.4139C60.2913 33.9923 60.8775 34.6826 60.8852 35.5811C60.889 36.1017 60.677 36.6068 60.2875 36.9963C59.871 37.4205 59.2887 37.6673 58.7296 37.6673ZM45.9 25.7864L52.7177 32.4923C53.9286 33.6838 55.1819 34.914 56.5161 35.959C57.2025 36.4989 57.9468 36.9963 58.7296 36.9963C59.1113 36.9963 59.5162 36.8189 59.8093 36.5259C60.0715 36.2636 60.2142 35.9281 60.2103 35.5888C60.2065 34.9371 59.736 34.3857 59.254 33.8805C55.633 30.0629 51.8115 26.3956 47.8859 22.9791C47.2728 23.8814 46.6288 24.8107 45.9 25.7864Z" fill="black"/>
<path d="M36.326 0.335938C28.2589 0.335938 21.7188 6.87605 21.7188 14.9432C21.7188 23.0104 28.2589 29.5505 36.326 29.5505C44.3932 29.5505 50.9333 23.0104 50.9333 14.9432C50.9333 6.87605 44.3932 0.335938 36.326 0.335938ZM36.326 26.0375C30.1985 26.0375 25.2317 21.0707 25.2317 14.9432C25.2317 8.81571 30.1985 3.84893 36.326 3.84893C42.4535 3.84893 47.4203 8.81571 47.4203 14.9432C47.4203 21.0707 42.4535 26.0375 36.326 26.0375ZM36.326 26.0375C30.1985 26.0375 25.2317 21.0707 25.2317 14.9432C25.2317 8.81571 30.1985 3.84893 36.326 3.84893C42.4535 3.84893 47.4203 8.81571 47.4203 14.9432C47.4203 21.0707 42.4535 26.0375 36.326 26.0375Z" fill="white"/>
<path d="M36.3178 29.8894C28.0771 29.8894 21.375 23.1873 21.375 14.9466C21.375 6.70593 28.0771 0 36.3178 0C44.5584 0 51.2605 6.70207 51.2605 14.9428C51.2605 23.1835 44.5546 29.8894 36.3178 29.8894ZM36.3178 0.670979C28.4473 0.670979 22.046 7.07227 22.046 14.9428C22.046 22.8133 28.4473 29.2146 36.3178 29.2146C44.1882 29.2146 50.5895 22.8133 50.5895 14.9428C50.5895 7.07227 44.1882 0.670979 36.3178 0.670979ZM36.3178 26.3725C30.0167 26.3725 24.888 21.2438 24.888 14.9428C24.888 8.64174 30.0129 3.513 36.3178 3.513C42.6226 3.513 47.7475 8.64174 47.7475 14.9428C47.7475 21.2438 42.6188 26.3725 36.3178 26.3725ZM25.5551 14.9428C25.5551 20.8775 30.3831 25.7016 36.3139 25.7016C42.2447 25.7016 47.0727 20.8736 47.0727 14.9428C47.0727 9.01194 42.2447 4.18398 36.3139 4.18398C30.3831 4.18398 25.5551 9.01194 25.5551 14.9428Z" fill="black"/>
<path d="M47.3421 26.2381C47.3305 26.2381 47.3228 26.2381 47.3113 26.2342C47.2534 26.2188 47.2187 26.1571 47.2341 26.0954L47.4925 25.1969C47.5079 25.139 47.5696 25.1005 47.6313 25.1198C47.6892 25.1352 47.7239 25.1969 47.7084 25.2586L47.4501 26.1571C47.4347 26.2072 47.3884 26.2381 47.3421 26.2381Z" fill="black"/>
<path d="M48.5659 27.8147C48.562 27.8147 48.5543 27.8147 48.5504 27.8147C48.4887 27.807 48.4463 27.7492 48.454 27.6875C48.5929 26.6386 48.7548 25.5743 48.9476 24.5331C48.9592 24.4714 49.017 24.4329 49.0787 24.4444C49.1404 24.456 49.179 24.5138 49.1674 24.5755C48.9785 25.6167 48.8127 26.6733 48.6777 27.7222C48.67 27.7723 48.6237 27.8147 48.5659 27.8147Z" fill="black"/>
<path d="M50.1587 29.3415C50.097 29.3415 50.0469 29.2914 50.0469 29.2297C50.0469 28.7052 50.1279 27.8222 50.1973 27.0432C50.2397 26.5689 50.2782 26.1601 50.2898 25.9018C50.2937 25.8401 50.3399 25.7899 50.4055 25.7977C50.4672 25.8015 50.5135 25.8516 50.5096 25.9133C50.498 26.1756 50.4595 26.5882 50.4132 27.0663C50.3438 27.8414 50.2628 28.7168 50.2628 29.2335C50.2705 29.2914 50.2204 29.3415 50.1587 29.3415Z" fill="black"/>
<path d="M51.7943 30.85C51.7326 30.85 51.6825 30.7999 51.6825 30.742L51.5977 27.0092C51.5977 26.9475 51.6439 26.8974 51.7056 26.8936C51.775 26.8936 51.8175 26.9398 51.8213 27.0015L51.9062 30.7343C51.9062 30.796 51.856 30.8461 51.7943 30.85Z" fill="black"/>
<path d="M53.3484 32.5001C53.2867 32.5001 53.2404 32.4538 53.2366 32.3921L53.0901 28.4858C53.0862 28.4241 53.1363 28.374 53.198 28.3701C53.2636 28.3701 53.3099 28.4164 53.3137 28.4781L53.4603 32.3844C53.4641 32.4461 53.414 32.4962 53.3523 32.5001H53.3484Z" fill="black"/>
<path d="M54.9337 33.889C54.8759 33.889 54.8257 33.8427 54.8219 33.7848L54.6252 30.133C54.6214 30.0713 54.6676 30.0173 54.7293 30.0135C54.8026 30.0058 54.845 30.0559 54.8489 30.1176L55.0455 33.7694C55.0494 33.8311 55.0031 33.8851 54.9414 33.889C54.9376 33.889 54.9376 33.889 54.9337 33.889Z" fill="black"/>
<path d="M56.503 35.1774C56.4452 35.1774 56.3951 35.1311 56.3912 35.0733L56.1174 31.5217C56.1136 31.46 56.1598 31.406 56.2215 31.4022C56.2755 31.3944 56.3372 31.4446 56.3411 31.5063L56.6149 35.0578C56.6187 35.1195 56.5724 35.1735 56.5107 35.1774C56.5069 35.1774 56.503 35.1774 56.503 35.1774Z" fill="black"/>
<path d="M57.9874 36.3296C57.9296 36.3296 57.8833 36.2871 57.8756 36.2293L57.5555 33.1135C57.5478 33.0518 57.5941 32.9978 57.6558 32.9901C57.7136 32.9824 57.7715 33.0287 57.7792 33.0904L58.0993 36.2062C58.107 36.2679 58.0607 36.3219 57.999 36.3296C57.9951 36.3296 57.9913 36.3296 57.9874 36.3296Z" fill="black"/>
<path d="M59.439 36.1621C59.385 36.1621 59.3387 36.1236 59.3271 36.0696L59.1035 34.6775C59.0919 34.6158 59.1343 34.558 59.196 34.5502C59.2577 34.5387 59.3156 34.5811 59.3233 34.6428L59.5469 36.0349C59.5585 36.0966 59.5161 36.1544 59.4544 36.1621C59.4505 36.1621 59.4428 36.1621 59.439 36.1621Z" fill="black"/>
<g opacity="0.1294">
<path d="M46.6497 18.4788C46.2833 18.7873 46.1137 19.2886 45.8013 19.655C45.7435 19.7591 44.9954 20.6036 44.5712 21.0085C44.2048 21.3363 43.8539 21.6255 43.4953 21.8954C43.4336 21.907 43.3681 21.9301 43.3064 21.9687C41.4785 23.2913 40.1096 23.7734 37.7997 24.1976C36.7045 24.4019 35.4397 24.5755 33.716 24.1474C32.5051 23.8659 31.9229 23.5343 30.658 22.6821C30.122 22.3042 28.9266 21.2514 28.1129 20.2681C27.2376 19.0727 26.9406 18.0276 26.7594 17.5533C26.5782 17.0636 26.4393 16.5623 26.2967 16.061C26.0846 15.3746 26.019 15.1316 26.019 14.5455C25.884 14.1715 25.7645 13.7974 25.6527 13.4156C25.5447 13.3655 25.4252 13.3424 25.3056 13.3501C25.109 14.8579 25.1398 16.3733 25.3288 17.8773C25.6565 19.1768 26.0614 20.5843 27.307 21.9841C28.3096 23.0908 28.9999 23.4726 29.4318 23.8274C30.4382 24.5523 31.5102 25.2156 32.6941 25.6012C33.3419 25.7902 34.0168 25.8673 34.6839 25.9483C34.6877 25.9483 34.6916 25.9483 34.6955 25.9521C35.4243 26.0832 36.1647 26.0871 36.8973 26.0061C37.4719 25.9598 38.0272 25.7902 38.5825 25.6398C39.7355 25.3583 40.8847 25.0035 41.9374 24.4482C42.3654 24.186 42.512 24.0819 42.7125 23.9315C44.0043 23.1255 45.3386 22.0072 46.0211 21.2283C46.1985 20.8619 46.372 20.4918 46.5301 20.1177C46.7307 19.5586 46.935 18.9994 47.1317 18.4403C46.9813 18.3824 46.8001 18.3863 46.6497 18.4788Z" fill="black"/>
</g>
<g opacity="0.1294">
<path d="M38.3112 29.8735C38.3151 29.8735 38.2842 29.8774 38.2109 29.8851C38.2225 29.8851 38.2341 29.8812 38.2456 29.8812C38.2649 29.8812 38.2881 29.8774 38.3112 29.8735Z" fill="black"/>
</g>
<g opacity="0.1294">
<path d="M49.0339 23.2454C48.4787 23.0873 48.1046 23.4729 47.8308 23.8971C47.8192 23.9125 47.8077 23.9241 47.7923 23.9434C47.3064 24.5103 47.1714 24.4601 46.3693 25.1851C46.3655 25.1889 46.3616 25.1889 46.3577 25.1928C46.1996 25.3046 46.0107 25.3817 45.9104 25.5553C45.6405 25.8908 45.6482 26.2764 45.8102 26.581C45.4824 26.4653 45.2009 26.7121 44.9502 26.9281C44.7844 27.0476 44.3294 27.3677 44.2407 27.4101C43.3268 27.9808 41.4797 28.9796 41.0555 29.1184C40.1955 29.4616 39.3086 29.7585 38.3831 29.8665C38.4525 29.8588 38.5258 29.8472 38.5759 29.8395C38.4872 29.8511 38.3947 29.8626 38.306 29.8781C38.3021 29.8781 38.279 29.8819 38.2404 29.8858C38.2134 29.8896 38.1826 29.8935 38.1556 29.8973C38.1749 29.8935 38.1903 29.8935 38.2057 29.8896C38.1826 29.8935 38.1595 29.8935 38.1325 29.8973C36.8985 30.0632 35.6529 29.9938 34.4267 29.8009C33.8868 29.7238 33.4279 29.693 32.5101 29.4924C31.9973 29.3613 31.4959 29.184 31.0062 28.9911C30.9985 28.9873 30.9946 28.9873 30.9869 28.9834C30.9792 28.9796 30.9754 28.9796 30.9677 28.9757C30.9368 28.9603 30.906 28.9487 30.8712 28.9333C29.6874 28.3896 29.3712 27.9538 28.2529 27.0746C27.3775 26.3304 26.8608 26.0874 25.9006 25.1697C24.5625 23.9318 23.9841 22.6207 22.9776 20.8276C22.6113 19.852 21.2809 20.3263 21.7089 21.2788C22.6344 22.9408 23.4442 24.7069 24.8401 26.045C25.5458 26.8085 26.4096 27.3985 27.2001 28.0657C28.0369 28.7251 28.8005 29.4963 29.7452 30.0053C31.3263 30.8614 33.1001 31.1468 34.8663 31.3434C37.6389 31.7984 40.5117 31.1468 42.9064 29.7007C43.6584 29.2495 44.3872 28.7636 45.1238 28.2932C45.4747 28.0155 45.9567 27.788 46.1726 27.3947C46.2343 27.2713 46.2382 27.1325 46.2035 27.0052C46.4811 27.171 46.8398 27.2057 47.1791 27.0052C47.8154 26.6543 48.363 26.1568 48.8026 25.5784C49.0841 25.2699 49.3579 24.9499 49.5738 24.5912C49.8862 24.0861 49.597 23.392 49.0339 23.2454Z" fill="black"/>
</g>
<path d="M32.8876 12.3639L31.1484 13.9874L35.8877 19.2511L41.1283 11.6235L39.1847 10.0811L35.5291 15.2368L32.8876 12.3639Z" fill="#7AFCF0"/>
<path d="M35.8808 19.5861C35.7843 19.5861 35.6957 19.5476 35.6301 19.4743L30.8908 14.2106C30.7674 14.0756 30.779 13.8674 30.9101 13.7401L32.6493 12.1167C32.7148 12.055 32.8035 12.0203 32.8922 12.028C32.9809 12.0319 33.0657 12.0704 33.1274 12.136L35.4874 14.7042L38.904 9.88781C38.958 9.81454 39.039 9.76441 39.1315 9.74899C39.2241 9.73742 39.3166 9.76055 39.386 9.8184L41.3257 11.3609C41.4645 11.4688 41.4915 11.6694 41.3951 11.812L36.1584 19.4435C36.1006 19.5283 36.008 19.5823 35.9039 19.59C35.8962 19.5861 35.8885 19.5861 35.8808 19.5861ZM31.6119 14.0062L35.846 18.7108L40.6663 11.6925L39.2472 10.5665L35.7959 15.433C35.7381 15.514 35.6455 15.568 35.5453 15.5718C35.4411 15.5795 35.3447 15.5371 35.2753 15.4639L32.8652 12.8378L31.6119 14.0062Z" fill="black"/>
<g opacity="0.1294">
<path d="M11.9492 44.3656C11.9762 44.3617 12.0032 44.3579 12.0302 44.354C12.0032 44.3579 11.9685 44.3617 11.9492 44.3656Z" fill="black"/>
</g>
<g opacity="0.1294">
<path d="M12.2462 44.3311C12.223 44.3311 12.1845 44.3349 12.1305 44.3426C12.1189 44.3426 12.1073 44.3465 12.0958 44.3465C12.0919 44.3465 12.0842 44.3465 12.0726 44.3503C12.0611 44.3503 12.0533 44.3542 12.0418 44.3542C12.0572 44.3503 12.0688 44.3503 12.0803 44.3503C12.0379 44.3542 11.9955 44.3619 11.9569 44.3658C11.9569 44.3658 11.9569 44.3658 11.9608 44.3658C11.9531 44.3658 11.9454 44.3696 11.9377 44.3696C11.7834 44.2771 11.5867 44.2347 11.3747 44.2694C10.2833 44.2771 9.19204 44.3503 8.10459 44.3928C7.51845 44.4275 6.8976 44.3388 6.33074 44.4853C5.65976 44.736 5.87571 45.7849 6.5891 45.7694C7.99276 45.7424 9.39642 45.6962 10.8039 45.6345C11.016 45.6345 11.2243 45.6306 11.4363 45.6229C11.4826 45.6229 11.525 45.619 11.5713 45.6152C11.795 45.6036 12.0148 45.5882 12.2346 45.5535C12.1806 45.5612 12.1266 45.5689 12.0726 45.5766C12.1189 45.5689 12.1575 45.565 12.1845 45.5612C12.1767 45.5612 12.1729 45.5612 12.1652 45.565C12.2037 45.5612 12.2423 45.5573 12.2809 45.5573C12.6241 45.5882 12.9596 45.299 12.9518 44.9442C12.9596 44.574 12.6009 44.2809 12.2462 44.3311Z" fill="black"/>
</g>
<g opacity="0.1294">
<path d="M21.8368 44.2843C21.4242 44.3229 21.0154 44.2689 20.6067 44.2573C19.7814 44.2882 18.9523 44.2766 18.1271 44.292C17.4523 44.3614 16.7389 44.2303 16.0833 44.4C15.3776 44.6699 15.6013 45.7574 16.3533 45.7497C18.1811 45.6301 20.0128 45.7574 21.8406 45.6803C22.7546 45.661 22.7546 44.3113 21.8368 44.2843Z" fill="black"/>
</g>
<g opacity="0.1294">
<path d="M32.3127 44.3536C31.8809 43.9718 31.1597 44.2186 30.6237 44.1955C29.5054 44.2302 28.3871 44.3189 27.265 44.2649C26.9873 44.2572 26.7058 44.2572 26.4282 44.2302C26.3472 44.2148 26.1004 44.1801 26.0001 44.2263C25.8228 44.288 25.6647 44.3883 25.5721 44.558C25.2868 45.013 25.6531 45.657 26.193 45.6377C27.4616 45.6801 28.7381 45.5992 30.0067 45.5837C30.5003 45.5722 30.9939 45.5567 31.4875 45.5259C31.688 45.5027 31.9078 45.5567 32.0891 45.4565C32.5364 45.3061 32.6482 44.666 32.3127 44.3536Z" fill="black"/>
</g>
</svg>
