<svg width="76" height="78" viewBox="0 0 76 78" fill="none" xmlns="http://www.w3.org/2000/svg">
<g clip-path="url(#clip0_187_1950)">
<path opacity="0.3" d="M39.7623 63.8564H44.6182L63.2526 53.0843L46.8946 43.4336L35.2031 49.8548L39.7623 63.8564Z" fill="#CFC4B8"/>
<path d="M21.957 48.9556L22.826 48.4507L24.0041 49.1303L23.1352 49.6352L21.957 48.9556Z" fill="#E4E3EE"/>
<path d="M24.1829 48.5772L25.0497 48.0723L24.1619 49.524L23.293 50.0289L24.1829 48.5772Z" fill="#B7B6E3"/>
<path d="M26.2383 49.4608L27.1072 48.958L27.1051 49.2589L26.2383 49.7617V49.4608Z" fill="#919DD6"/>
<path d="M24.0234 48.1837L24.8924 47.6787L27.1057 48.9579L26.2368 49.4607L24.0234 48.1837Z" fill="#E4E3EE"/>
<path d="M26.2364 49.4607V49.7615L24.183 48.577L23.293 50.0287L21.957 49.2566V48.9557L23.1352 49.6353L24.0231 48.1836L26.2364 49.4607Z" fill="#919DD6"/>
<path d="M25.1797 47.1192L26.0486 46.6143L27.2268 47.2938L26.3579 47.7988L25.1797 47.1192Z" fill="#E4E3EE"/>
<path d="M27.4056 46.7408L28.2724 46.2358L27.3845 47.6875L26.5156 48.1925L27.4056 46.7408Z" fill="#B7B6E3"/>
<path d="M29.4609 47.6241L30.3299 47.1191L30.3278 47.42L29.4609 47.9249V47.6241Z" fill="#919DD6"/>
<path d="M27.2461 46.3472L28.115 45.8423L30.3283 47.1194L29.4594 47.6243L27.2461 46.3472Z" fill="#E4E3EE"/>
<path d="M29.4591 47.6243V47.9251L27.4056 46.7406L26.5157 48.1923L25.1797 47.4202V47.1193L26.3579 47.7989L27.2457 46.3472L29.4591 47.6243Z" fill="#919DD6"/>
<path d="M28.2695 45.2784L29.1384 44.7734L30.3166 45.453L29.4477 45.9579L28.2695 45.2784Z" fill="#E4E3EE"/>
<path d="M30.4972 44.8995L31.3661 44.3945L30.4762 45.8462L29.6094 46.3512L30.4972 44.8995Z" fill="#B7B6E3"/>
<path d="M32.5508 45.7852L33.4197 45.2803V45.5811L32.5508 46.0861V45.7852Z" fill="#919DD6"/>
<path d="M30.3359 44.5063L31.2049 44.0034L33.4182 45.2805L32.5493 45.7854L30.3359 44.5063Z" fill="#E4E3EE"/>
<path d="M32.5489 45.7855V46.0864L30.4955 44.8998L29.6076 46.3515L28.2695 45.5793V45.2785L29.4477 45.9581L30.3356 44.5063L32.5489 45.7855Z" fill="#919DD6"/>
<path d="M18.7695 50.9525L19.6363 50.4497L20.8145 51.1293L19.9456 51.6321L18.7695 50.9525Z" fill="#E4E3EE"/>
<path d="M20.9933 50.5762L21.8622 50.0713L20.9744 51.523L20.1055 52.0279L20.9933 50.5762Z" fill="#B7B6E3"/>
<path d="M23.049 51.4595L23.9158 50.9546V51.2554L23.0469 51.7604L23.049 51.4595Z" fill="#919DD6"/>
<path d="M20.832 50.1827L21.701 49.6777L23.9122 50.9548L23.0454 51.4598L20.832 50.1827Z" fill="#E4E3EE"/>
<path d="M23.0471 51.4597L23.045 51.7606L20.9916 50.576L20.1037 52.0278L18.7656 51.2556L18.7677 50.9527L19.9438 51.6322L20.8338 50.1826L23.0471 51.4597Z" fill="#919DD6"/>
<path d="M31.7031 43.3384L32.572 42.8335L33.7502 43.5131L32.8813 44.018L31.7031 43.3384Z" fill="#E4E3EE"/>
<path d="M33.9308 42.96L34.7997 42.4551L33.9098 43.9068L33.043 44.4117L33.9308 42.96Z" fill="#B7B6E3"/>
<path d="M35.9844 43.8437L36.8533 43.3408V43.6417L35.9844 44.1466V43.8437Z" fill="#919DD6"/>
<path d="M33.7695 42.5665L34.6384 42.0615L36.8518 43.3407L35.9829 43.8435L33.7695 42.5665Z" fill="#E4E3EE"/>
<path d="M35.9825 43.8435V44.1465L33.9291 42.9598L33.0412 44.4115L31.7031 43.6394V43.3385L32.8813 44.0181L33.7692 42.5664L35.9825 43.8435Z" fill="#919DD6"/>
<path d="M35.0039 41.4639L35.8728 40.959L37.0489 41.6386L36.1821 42.1435L35.0039 41.4639Z" fill="#E4E3EE"/>
<path d="M37.2298 41.0854L38.0966 40.5825L37.2088 42.0342L36.3398 42.5371L37.2298 41.0854Z" fill="#B7B6E3"/>
<path d="M39.2852 41.9708L40.1541 41.4658L40.152 41.7667L39.2852 42.2716V41.9708Z" fill="#919DD6"/>
<path d="M37.0703 40.6939L37.9392 40.189L40.1526 41.466L39.2836 41.971L37.0703 40.6939Z" fill="#E4E3EE"/>
<path d="M39.2833 41.9709V42.2718L37.2299 41.0852L36.3399 42.5369L35.0039 41.7647V41.4639L36.1821 42.1435L37.07 40.6938L39.2833 41.9709Z" fill="#919DD6"/>
<path d="M57.2989 49.0005L56.43 48.4956L55.2539 49.1752L56.1207 49.6801L57.2989 49.0005Z" fill="#E4E3EE"/>
<path d="M55.076 48.622L54.207 48.1191L55.0949 49.5687L55.9638 50.0737L55.076 48.622Z" fill="#B7B6E3"/>
<path d="M53.0192 49.5074L52.1523 49.0024V49.3033L53.0213 49.8082L53.0192 49.5074Z" fill="#919DD6"/>
<path d="M55.2325 48.2284L54.3636 47.7256L52.1523 49.0027L53.0192 49.5076L55.2325 48.2284Z" fill="#E4E3EE"/>
<path d="M53.0195 49.5077L53.0216 49.8086L55.0751 48.622L55.9629 50.0737L57.301 49.3015L57.2989 49.0007L56.1207 49.6802L55.2329 48.2285L53.0195 49.5077Z" fill="#919DD6"/>
<path d="M54.0763 47.1636L53.2073 46.6587L52.0312 47.3383L52.8981 47.8432L54.0763 47.1636Z" fill="#E4E3EE"/>
<path d="M51.8533 46.7847L50.9844 46.2798L51.8722 47.7315L52.7411 48.2364L51.8533 46.7847Z" fill="#B7B6E3"/>
<path d="M49.7965 47.6705L48.9297 47.1655V47.4664L49.7986 47.9713L49.7965 47.6705Z" fill="#919DD6"/>
<path d="M52.0098 46.3915L51.1409 45.8887L48.9297 47.1658L49.7965 47.6707L52.0098 46.3915Z" fill="#E4E3EE"/>
<path d="M49.7969 47.6708L49.799 47.9716L51.8524 46.785L52.7403 48.2367L54.0784 47.4646L54.0763 47.1637L52.8981 47.8433L52.0102 46.3916L49.7969 47.6708Z" fill="#919DD6"/>
<path d="M50.9864 45.3227L50.1175 44.8198L48.9414 45.4994L49.8082 46.0043L50.9864 45.3227Z" fill="#E4E3EE"/>
<path d="M48.7613 44.9463L47.8945 44.4414L48.7824 45.8931L49.6513 46.3981L48.7613 44.9463Z" fill="#B7B6E3"/>
<path d="M46.7088 45.8297L45.8398 45.3247L45.8419 45.6256L46.7088 46.1305V45.8297Z" fill="#919DD6"/>
<path d="M48.9221 44.5528L48.0532 44.0479L45.8398 45.3249L46.7088 45.8299L48.9221 44.5528Z" fill="#E4E3EE"/>
<path d="M46.707 45.8298V46.1307L48.7605 44.9462L49.6504 46.3979L50.9864 45.6257V45.3228L49.8082 46.0044L48.9204 44.5527L46.707 45.8298Z" fill="#919DD6"/>
<path d="M60.4885 50.9991L59.6196 50.4941L58.4414 51.1737L59.3103 51.6787L60.4885 50.9991Z" fill="#E4E3EE"/>
<path d="M58.2635 50.6207L57.3945 50.1157L58.2845 51.5674L59.1513 52.0724L58.2635 50.6207Z" fill="#B7B6E3"/>
<path d="M56.2088 51.5043L55.3398 51.0015V51.3023L56.2088 51.8073V51.5043Z" fill="#919DD6"/>
<path d="M58.4221 50.2271L57.5532 49.7222L55.3398 51.0014L56.2088 51.5042L58.4221 50.2271Z" fill="#E4E3EE"/>
<path d="M56.207 51.5041V51.8071L58.2605 50.6205L59.1483 52.0722L60.4864 51.3001V50.9992L59.3082 51.6788L58.4204 50.2271L56.207 51.5041Z" fill="#919DD6"/>
<path d="M47.5549 43.3829L46.686 42.8779L45.5078 43.5575L46.3767 44.0624L47.5549 43.3829Z" fill="#E4E3EE"/>
<path d="M45.3278 43.0043L44.4609 42.5015L45.3488 43.9532L46.2177 44.456L45.3278 43.0043Z" fill="#B7B6E3"/>
<path d="M43.2752 43.8897L42.4062 43.3848L42.4084 43.6856L43.2752 44.1906V43.8897Z" fill="#919DD6"/>
<path d="M45.4885 42.6129L44.6196 42.1079L42.4062 43.385L43.2752 43.8899L45.4885 42.6129Z" fill="#E4E3EE"/>
<path d="M43.2734 43.8899V44.1907L45.3269 43.0041L46.2168 44.4558L47.5528 43.6837V43.3828L46.3746 44.0624L45.4868 42.6128L43.2734 43.8899Z" fill="#919DD6"/>
<path d="M44.252 41.5103L43.3852 41.0054L42.207 41.6849L43.076 42.1899L44.252 41.5103Z" fill="#E4E3EE"/>
<path d="M42.0291 41.1319L41.1602 40.627L42.048 42.0787L42.9169 42.5836L42.0291 41.1319Z" fill="#B7B6E3"/>
<path d="M39.9723 42.0152L39.1055 41.5103V41.8132L39.9744 42.3161L39.9723 42.0152Z" fill="#919DD6"/>
<path d="M42.1856 40.7383L41.3188 40.2334L39.1055 41.5105L39.9723 42.0154L42.1856 40.7383Z" fill="#E4E3EE"/>
<path d="M39.9727 42.0154L39.9748 42.3162L42.0282 41.1317L42.916 42.5834L44.2541 41.8113L44.252 41.5104L43.0759 42.19L42.186 40.7383L39.9727 42.0154Z" fill="#919DD6"/>
<path d="M58.3811 50.9634L58.3748 53.0421L39.7656 63.8562L39.7719 61.7776L58.3811 50.9634Z" fill="#12B0F3"/>
<path d="M39.7727 61.7776L39.7664 63.8562L21.0352 53.0421L21.0415 50.9634L39.7727 61.7776Z" fill="#1393F2"/>
<path d="M58.3795 50.9636L39.7703 61.7777L21.0391 50.9636L39.6483 40.1494L58.3795 50.9636Z" fill="#05D4F5"/>
<path d="M53.9217 50.4351L53.9196 51.4744L39.7539 59.707L39.756 58.6677L53.9217 50.4351Z" fill="#D4D5F0"/>
<path d="M39.7565 58.6677L39.7544 59.707L25.4961 51.4744L25.4982 50.4351L39.7565 58.6677Z" fill="#C4C3EC"/>
<path d="M53.9201 50.4351L39.7544 58.6678L25.4961 50.4351L39.6618 42.2046L53.9201 50.4351Z" fill="white"/>
<path d="M19.5135 56.326L18.6445 55.8211L19.5219 53.3511L20.3908 53.856L19.5135 56.326Z" fill="#C4C3EC"/>
<path d="M20.3885 53.8562L19.5195 53.3513L21.7329 52.0742L22.5997 52.5771L20.3885 53.8562Z" fill="#E4E3EE"/>
<path d="M18.3338 57.0058L17.4648 56.503L18.643 55.8213L19.512 56.3262L18.3338 57.0058Z" fill="#E4E3EE"/>
<path d="M18.3338 57.3087L17.4648 56.8038V56.5029L18.3338 57.0058V57.3087Z" fill="#B7B6E3"/>
<path d="M22.5988 52.5771L22.6009 52.8801L20.5475 54.0646L19.6701 56.5367L18.332 57.3089V57.0059L19.5102 56.3263L20.3876 53.8563L22.5988 52.5771Z" fill="#919DD6"/>
<path d="M22.777 58.1942L21.9102 57.6892L22.7875 55.2192L23.6543 55.7242L22.777 58.1942Z" fill="#C4C3EC"/>
<path d="M23.652 55.7244L22.7852 55.2195L24.9985 53.9424L25.8653 54.4473L23.652 55.7244Z" fill="#E4E3EE"/>
<path d="M21.5973 58.8761L20.7305 58.3711L21.9087 57.6895L22.7755 58.1944L21.5973 58.8761Z" fill="#E4E3EE"/>
<path d="M21.5994 59.1769L20.7305 58.672V58.3711L21.5973 58.876L21.5994 59.1769Z" fill="#B7B6E3"/>
<path d="M25.8665 54.4473L25.8686 54.7481L23.8131 55.9326L22.9379 58.4047L21.5998 59.1769L21.5977 58.876L22.7759 58.1944L23.6532 55.7243L25.8665 54.4473Z" fill="#919DD6"/>
<path d="M26.0174 60.0835L25.1484 59.5786L26.0258 57.1064L26.8947 57.6114L26.0174 60.0835Z" fill="#C4C3EC"/>
<path d="M26.8924 57.6116L26.0234 57.1067L28.2368 55.8296L29.1057 56.3345L26.8924 57.6116Z" fill="#E4E3EE"/>
<path d="M24.8377 60.7631L23.9688 60.2582L25.1469 59.5786L26.0159 60.0836L24.8377 60.7631Z" fill="#E4E3EE"/>
<path d="M24.8377 61.0641L23.9709 60.5592L23.9688 60.2583L24.8377 60.7632V61.0641Z" fill="#B7B6E3"/>
<path d="M29.1048 56.3345V56.6353L27.0514 57.8219L26.174 60.292L24.8359 61.0641V60.7632L26.0141 60.0837L26.8915 57.6115L29.1048 56.3345Z" fill="#919DD6"/>
<path d="M29.2556 61.958L28.3867 61.4531L29.2641 58.981L30.133 59.4859L29.2556 61.958Z" fill="#C4C3EC"/>
<path d="M30.1306 59.4861L29.2617 58.9812L31.475 57.7041L32.344 58.209L30.1306 59.4861Z" fill="#E4E3EE"/>
<path d="M28.076 62.6376L27.207 62.1327L28.3852 61.4531L29.2541 61.9581L28.076 62.6376Z" fill="#E4E3EE"/>
<path d="M28.076 62.9386L27.207 62.4337V62.1328L28.076 62.6378V62.9386Z" fill="#B7B6E3"/>
<path d="M32.3431 58.209V58.5098L30.2896 59.6965L29.4123 62.1665L28.0742 62.9386V62.6377L29.2524 61.9582L30.1298 59.4861L32.3431 58.209Z" fill="#919DD6"/>
<path d="M32.533 63.8182L31.6641 63.3133L32.5414 60.8433L33.4103 61.3482L32.533 63.8182Z" fill="#C4C3EC"/>
<path d="M33.408 61.3484L32.5391 60.8435L34.7524 59.5664L35.6213 60.0713L33.408 61.3484Z" fill="#E4E3EE"/>
<path d="M31.3533 64.5001L30.4844 63.9952L31.6626 63.3135L32.5315 63.8184L31.3533 64.5001Z" fill="#E4E3EE"/>
<path d="M31.3554 64.8009L30.4865 64.296L30.4844 63.9951L31.3533 64.5001L31.3554 64.8009Z" fill="#B7B6E3"/>
<path d="M35.6204 60.0713L35.6225 60.3722L33.567 61.5567L32.6897 64.0288L31.3537 64.8009L31.3516 64.5001L32.5298 63.8184L33.4071 61.3484L35.6204 60.0713Z" fill="#919DD6"/>
<path d="M35.7478 65.6968L34.8789 65.1918L35.7562 62.7197L36.6252 63.2247L35.7478 65.6968Z" fill="#C4C3EC"/>
<path d="M36.6228 63.2249L35.7539 62.7199L37.9672 61.4429L38.8362 61.9478L36.6228 63.2249Z" fill="#E4E3EE"/>
<path d="M34.5681 66.3764L33.6992 65.8715L34.8774 65.1919L35.7463 65.6968L34.5681 66.3764Z" fill="#E4E3EE"/>
<path d="M34.5681 66.6774L33.6992 66.1724V65.8716L34.5681 66.3765V66.6774Z" fill="#B7B6E3"/>
<path d="M38.8353 61.9478V62.2486L36.7818 63.4352L35.9045 65.9052L34.5664 66.6774V66.3765L35.7446 65.6969L36.6219 63.2248L38.8353 61.9478Z" fill="#919DD6"/>
<path d="M59.975 56.3597L60.8439 55.8569L59.9666 53.3848L59.0977 53.8897L59.975 56.3597Z" fill="#C4C3EC"/>
<path d="M59.0961 53.8899L59.9651 53.385L57.7517 52.1079L56.8828 52.6129L59.0961 53.8899Z" fill="#E4E3EE"/>
<path d="M61.1509 57.0414L62.0177 56.5365L60.8416 55.8569L59.9727 56.3598L61.1509 57.0414Z" fill="#E4E3EE"/>
<path d="M61.1484 57.3424L62.0174 56.8375V56.5366L61.1505 57.0416L61.1484 57.3424Z" fill="#B7B6E3"/>
<path d="M56.8828 52.6128V52.9137L58.9362 54.0982L59.8136 56.5703L61.1496 57.3424L61.1517 57.0416L59.9735 56.3599L59.0961 53.8899L56.8828 52.6128Z" fill="#919DD6"/>
<path d="M56.7094 58.23L57.5783 57.725L56.701 55.2529L55.832 55.7579L56.7094 58.23Z" fill="#C4C3EC"/>
<path d="M55.8305 55.7581L56.6994 55.2532L54.4861 53.9761L53.6172 54.481L55.8305 55.7581Z" fill="#E4E3EE"/>
<path d="M57.8852 58.9096L58.7542 58.4047L57.576 57.7251L56.707 58.23L57.8852 58.9096Z" fill="#E4E3EE"/>
<path d="M57.8867 59.2106L58.7535 58.7056L58.7556 58.4048L57.8867 58.9097V59.2106Z" fill="#B7B6E3"/>
<path d="M53.6172 54.481V54.7818L55.6706 55.9684L56.5479 58.4384L57.886 59.2106V58.9097L56.7078 58.2301L55.8305 55.758L53.6172 54.481Z" fill="#919DD6"/>
<path d="M53.4711 60.1175L54.3379 59.6126L53.4606 57.1426L52.5938 57.6475L53.4711 60.1175Z" fill="#C4C3EC"/>
<path d="M52.5922 57.6474L53.4591 57.1425L51.2457 55.8633L50.3789 56.3682L52.5922 57.6474Z" fill="#E4E3EE"/>
<path d="M54.6509 60.7968L55.5177 60.2919L54.3395 59.6123L53.4727 60.1172L54.6509 60.7968Z" fill="#E4E3EE"/>
<path d="M54.6484 61.0978L55.5174 60.595V60.292L54.6505 60.7969L54.6484 61.0978Z" fill="#B7B6E3"/>
<path d="M50.381 56.3682L50.3789 56.669L52.4344 57.8556L53.3097 60.3256L54.6478 61.0978L54.6499 60.7969L53.4717 60.1174L52.5943 57.6473L50.381 56.3682Z" fill="#919DD6"/>
<path d="M50.2328 61.992L51.0996 61.4871L50.2223 59.0171L49.3555 59.5199L50.2328 61.992Z" fill="#C4C3EC"/>
<path d="M49.354 59.5198L50.2208 59.017L48.0074 57.7378L47.1406 58.2427L49.354 59.5198Z" fill="#E4E3EE"/>
<path d="M51.4126 62.6713L52.2794 62.1664L51.1012 61.4868L50.2344 61.9918L51.4126 62.6713Z" fill="#E4E3EE"/>
<path d="M51.4102 62.9723L52.2791 62.4674V62.1665L51.4123 62.6714L51.4102 62.9723Z" fill="#B7B6E3"/>
<path d="M47.1427 58.2427L47.1406 58.5435L49.1962 59.7302L50.0714 62.2002L51.4095 62.9723L51.4116 62.6714L50.2334 61.9919L49.3561 59.5198L47.1427 58.2427Z" fill="#919DD6"/>
<path d="M46.9555 63.854L47.8244 63.3491L46.947 60.877L46.0781 61.3819L46.9555 63.854Z" fill="#C4C3EC"/>
<path d="M46.0766 61.3821L46.9455 60.8772L44.7322 59.6001L43.8633 60.105L46.0766 61.3821Z" fill="#E4E3EE"/>
<path d="M48.1313 64.5336L49.0002 64.0287L47.822 63.3491L46.9531 63.8541L48.1313 64.5336Z" fill="#E4E3EE"/>
<path d="M48.1328 64.8346L49.0017 64.3297V64.0288L48.1328 64.5338V64.8346Z" fill="#B7B6E3"/>
<path d="M43.8633 60.105V60.4058L45.9167 61.5904L46.794 64.0625L48.1321 64.8346V64.5337L46.9539 63.8542L46.0766 61.3821L43.8633 60.105Z" fill="#919DD6"/>
<path d="M43.7367 65.7308L44.6056 65.2259L43.7262 62.7559L42.8594 63.2608L43.7367 65.7308Z" fill="#C4C3EC"/>
<path d="M42.8579 63.2607L43.7247 62.7557L41.5135 61.4766L40.6445 61.9815L42.8579 63.2607Z" fill="#E4E3EE"/>
<path d="M44.9165 66.4101L45.7833 65.9052L44.6072 65.2256L43.7383 65.7305L44.9165 66.4101Z" fill="#E4E3EE"/>
<path d="M44.9141 66.7111L45.783 66.2082V65.9053L44.9162 66.4102L44.9141 66.7111Z" fill="#B7B6E3"/>
<path d="M40.6466 61.9814L40.6445 62.2823L42.7001 63.4689L43.5753 65.9389L44.9134 66.7111L44.9155 66.4102L43.7373 65.7306L42.86 63.2606L40.6466 61.9814Z" fill="#919DD6"/>
<path d="M30.4141 50.4352L31.1105 50.8371L39.6776 55.7834V45.0513L30.4141 50.4352Z" fill="#D4D5F0"/>
<path d="M39.6758 45.0513V55.7834L39.7347 55.8191L48.304 50.8392L48.9983 50.4352L39.6758 45.0513Z" fill="#C4C3EC"/>
<path d="M48.3047 50.839L39.7355 55.819L31.1094 50.8369L39.6765 45.8569L48.3047 50.839Z" fill="#05D4F5"/>
<path d="M48.3086 50.839L39.7394 55.819L31.1133 50.8369L39.6805 45.8569L48.3086 50.839Z" fill="#05D4F5"/>
<path d="M44.3386 50.0967L44.3365 50.6185L43.3203 51.2076V50.6879L44.3386 50.0967Z" fill="#D4D5F0"/>
<path d="M43.32 50.688V51.2077L38.7734 48.5841L38.7755 48.0645L43.32 50.688Z" fill="#C4C3EC"/>
<path d="M44.3362 50.0967L43.3179 50.6879L38.7734 48.0643L39.7896 47.4731L44.3362 50.0967Z" fill="#EEEFF2"/>
<path d="M39.281 50.9548L39.2789 51.4745C39.0117 51.4009 38.7571 51.3314 38.513 51.2662C38.269 51.201 38.0439 51.1421 37.8356 51.0895C37.6273 51.0369 37.4464 50.9906 37.2886 50.9506C37.1308 50.9106 37.0066 50.8791 36.9141 50.858L36.9162 50.3384C37.0087 50.3594 37.1329 50.391 37.2907 50.431C37.4485 50.4709 37.6315 50.5172 37.8377 50.5698C38.046 50.6224 38.2711 50.6813 38.5151 50.7465C38.7592 50.8118 39.0159 50.8812 39.281 50.9548Z" fill="#1393F2"/>
<mask id="mask0_187_1950" style="mask-type:luminance" maskUnits="userSpaceOnUse" x="36" y="50" width="4" height="2">
<path d="M39.281 50.9548L39.2789 51.4745C39.0117 51.4009 38.7571 51.3314 38.513 51.2662C38.269 51.201 38.0439 51.1421 37.8356 51.0895C37.6273 51.0369 37.4464 50.9906 37.2886 50.9506C37.1308 50.9106 37.0066 50.8791 36.9141 50.858L36.9162 50.3384C37.0087 50.3594 37.1329 50.391 37.2907 50.431C37.4485 50.4709 37.6315 50.5172 37.8377 50.5698C38.046 50.6224 38.2711 50.6813 38.5151 50.7465C38.7592 50.8118 39.0159 50.8812 39.281 50.9548Z" fill="white"/>
</mask>
<g mask="url(#mask0_187_1950)">
<path d="M39.281 50.9548L39.2789 51.4745C39.0117 51.4009 38.7571 51.3314 38.513 51.2662C38.269 51.201 38.0439 51.1421 37.8356 51.0895C37.6273 51.0369 37.4464 50.9906 37.2886 50.9506C37.1308 50.9106 37.0066 50.8791 36.9141 50.858L36.9162 50.3384C37.0087 50.3594 37.1329 50.391 37.2907 50.431C37.4485 50.4709 37.6315 50.5172 37.8377 50.5698C38.046 50.6224 38.2711 50.6813 38.5151 50.7465C38.7592 50.8118 39.0159 50.8812 39.281 50.9548Z" fill="#C4C3EC"/>
</g>
<path d="M41.0071 51.4705L41.005 51.9901C40.7799 51.927 40.5568 51.866 40.3359 51.8029L40.338 51.2832C40.559 51.3463 40.782 51.4094 41.0071 51.4705Z" fill="#1393F2"/>
<mask id="mask1_187_1950" style="mask-type:luminance" maskUnits="userSpaceOnUse" x="40" y="51" width="2" height="1">
<path d="M41.0071 51.4705L41.005 51.9901C40.7799 51.927 40.5568 51.866 40.3359 51.8029L40.338 51.2832C40.559 51.3463 40.782 51.4094 41.0071 51.4705Z" fill="white"/>
</mask>
<g mask="url(#mask1_187_1950)">
<path d="M41.0071 51.4705L41.005 51.9901C40.7799 51.927 40.5568 51.866 40.3359 51.8029L40.338 51.2832C40.559 51.3463 40.782 51.4094 41.0071 51.4705Z" fill="#C4C3EC"/>
</g>
<path d="M41.654 51.6575L41.6519 52.1771C41.4436 52.1161 41.2269 52.053 41.0039 51.9899L41.006 51.4702C41.2311 51.5333 41.4457 51.5965 41.654 51.6575Z" fill="#1393F2"/>
<mask id="mask2_187_1950" style="mask-type:luminance" maskUnits="userSpaceOnUse" x="41" y="51" width="1" height="2">
<path d="M41.654 51.6575L41.6519 52.1771C41.4436 52.1161 41.2269 52.053 41.0039 51.9899L41.006 51.4702C41.2311 51.5333 41.4457 51.5965 41.654 51.6575Z" fill="white"/>
</mask>
<g mask="url(#mask2_187_1950)">
<path d="M41.654 51.6575L41.6519 52.1771C41.4436 52.1161 41.2269 52.053 41.0039 51.9899L41.006 51.4702C41.2311 51.5333 41.4457 51.5965 41.654 51.6575Z" fill="#C4C3EC"/>
</g>
<path d="M42.7443 51.0244L42.7422 51.5462L41.6523 52.1774L41.6544 51.6577L42.7443 51.0244Z" fill="#D4D5F0"/>
<path d="M40.3376 51.2852L40.3355 51.8048L38.5703 52.8294L38.5724 52.3098L40.3376 51.2852Z" fill="#D4D5F0"/>
<path d="M38.1672 53.6836L38.1651 54.2032C37.8453 53.8224 37.555 53.4668 37.292 53.1386C37.029 52.8104 36.787 52.4969 36.5661 52.2003C36.3452 51.9036 36.139 51.6175 35.9518 51.3461C35.7645 51.0726 35.5878 50.8012 35.4258 50.5319L35.4279 50.0122C35.5899 50.2815 35.7666 50.555 35.9539 50.8264C36.1432 51.0999 36.3473 51.384 36.5682 51.6806C36.7891 51.9773 37.0311 52.2908 37.2941 52.619C37.5571 52.9472 37.8474 53.3027 38.1672 53.6836Z" fill="#1393F2"/>
<mask id="mask3_187_1950" style="mask-type:luminance" maskUnits="userSpaceOnUse" x="35" y="50" width="4" height="5">
<path d="M38.1672 53.6836L38.1651 54.2032C37.8453 53.8224 37.555 53.4668 37.292 53.1386C37.029 52.8104 36.787 52.4969 36.5661 52.2003C36.3452 51.9036 36.139 51.6175 35.9518 51.3461C35.7645 51.0726 35.5878 50.8012 35.4258 50.5319L35.4279 50.0122C35.5899 50.2815 35.7666 50.555 35.9539 50.8264C36.1432 51.0999 36.3473 51.384 36.5682 51.6806C36.7891 51.9773 37.0311 52.2908 37.2941 52.619C37.5571 52.9472 37.8474 53.3027 38.1672 53.6836Z" fill="white"/>
</mask>
<g mask="url(#mask3_187_1950)">
<path d="M38.1672 53.6836L38.1651 54.2032C37.8453 53.8224 37.555 53.4668 37.292 53.1386C37.029 52.8104 36.787 52.4969 36.5661 52.2003C36.3452 51.9036 36.139 51.6175 35.9518 51.3461C35.7645 51.0726 35.5878 50.8012 35.4258 50.5319L35.4279 50.0122C35.5899 50.2815 35.7666 50.555 35.9539 50.8264C36.1432 51.0999 36.3473 51.384 36.5682 51.6806C36.7891 51.9773 37.0311 52.2908 37.2941 52.619C37.5571 52.9472 37.8474 53.3027 38.1672 53.6836Z" fill="#C4C3EC"/>
</g>
<path d="M39.2241 53.0693L39.222 53.589L38.168 54.2034V53.6837L39.2241 53.0693Z" fill="#D4D5F0"/>
<path d="M41.0051 51.4705C40.78 51.4073 40.5569 51.3463 40.336 51.2832L38.5729 52.3078C38.6824 52.4362 38.7897 52.5666 38.8991 52.6949C39.0085 52.8254 39.1179 52.9495 39.2252 53.0673L38.169 53.6817C37.8492 53.3009 37.5589 52.9453 37.2959 52.6171C37.0329 52.2889 36.7909 51.9754 36.57 51.6787C36.3491 51.3821 36.1429 51.096 35.9557 50.8245C35.7684 50.551 35.5917 50.2796 35.4297 50.0103L36.3933 49.4507C36.8561 49.5454 37.3253 49.6485 37.7987 49.7536C38.2721 49.8609 38.7665 49.9767 39.2799 50.105C39.7932 50.2312 40.3339 50.3722 40.902 50.5216C41.47 50.6731 42.0844 50.8393 42.7429 51.0244L41.6552 51.6577C41.4448 51.5967 41.2302 51.5336 41.0051 51.4705ZM37.9881 51.7061L39.2799 50.955C39.0127 50.8814 38.7581 50.8119 38.514 50.7467C38.27 50.6815 38.0449 50.6226 37.8366 50.57C37.6283 50.5174 37.4474 50.4711 37.2896 50.4311C37.1318 50.3911 37.0076 50.3596 36.9151 50.3385C36.9592 50.389 37.016 50.4606 37.0855 50.551C37.1549 50.6415 37.237 50.7467 37.3295 50.8645C37.4221 50.9823 37.5252 51.1149 37.6346 51.258C37.7461 51.401 37.8639 51.5504 37.9881 51.7061Z" fill="#EEEFF2"/>
<path d="M39.8104 72.0719L9.01953 54.2938L39.6127 36.5156L70.4036 54.2938L39.8104 72.0719ZM9.83585 54.2917L39.8083 71.5964L69.5852 54.2917L39.6127 36.9869L9.83585 54.2917Z" fill="#05D4F5"/>
<path d="M13.7949 56.8144L11.5185 58.1293C11.4848 58.1483 11.4428 58.1483 11.4112 58.1293L9.07584 56.7807L1.49752 61.1569L0.790597 61.565C0.773766 61.5755 0.754831 61.5798 0.735896 61.5798C0.698025 61.5798 0.662258 61.5608 0.643323 61.5251C0.613868 61.4746 0.630699 61.4072 0.683297 61.3778L1.27871 61.0348L9.02114 56.564C9.0548 56.5451 9.09478 56.5451 9.12844 56.564L11.4638 57.9126L13.5782 56.6923L13.7949 56.8144Z" fill="#05D4F5"/>
<path d="M32.1499 67.2055L31.7901 67.4117L29.7177 68.6088C29.6841 68.6278 29.6441 68.6278 29.6104 68.6088L27.2772 67.2602L24.3296 68.9623L24.1129 69.0864L19.6357 71.6721L18.9898 72.0445C18.973 72.055 18.9541 72.0592 18.9351 72.0592C18.8972 72.0592 18.8615 72.0403 18.8425 72.0045C18.8131 71.9519 18.8299 71.8867 18.8825 71.8573L19.4569 71.5249L23.8962 68.9623L24.1129 68.8381L27.2225 67.0435C27.2561 67.0246 27.2961 67.0246 27.3298 67.0435L29.663 68.3921L31.5734 67.2897L31.9332 67.0814L32.1499 67.2055Z" fill="#05D4F5"/>
<path d="M25.0693 63.1156L24.7095 63.3239L22.6961 64.4874C22.6624 64.5063 22.6224 64.5063 22.5888 64.4874L20.2555 63.1388L17.2511 64.8724L17.0344 64.9965L12.7319 67.4813L11.9703 67.921C11.9535 67.9294 11.9345 67.9357 11.9156 67.9357C11.8777 67.9357 11.8419 67.9168 11.823 67.881C11.7936 67.8284 11.8104 67.7632 11.863 67.7337L12.5594 67.3319L16.8198 64.8724L17.0365 64.7483L20.2029 62.92C20.2366 62.901 20.2766 62.901 20.3102 62.92L22.6435 64.2686L24.4949 63.1998L24.8547 62.9915L25.0693 63.1156Z" fill="#05D4F5"/>
<path d="M19.4149 59.8525L19.0551 60.0608L11.441 64.4558L10.8687 64.7862C10.8519 64.7967 10.833 64.8009 10.814 64.8009C10.7762 64.8009 10.7404 64.782 10.7214 64.7462C10.692 64.6957 10.7088 64.6284 10.7614 64.5989L11.2369 64.3233L18.8405 59.9324L19.2003 59.7241L19.4149 59.8525Z" fill="#05D4F5"/>
<path d="M34.7595 68.7099L34.3997 68.9161L26.8908 73.2523L26.3101 73.5868C26.2933 73.5952 26.2744 73.6015 26.2554 73.6015C26.2176 73.6015 26.1818 73.5826 26.1629 73.5468C26.1334 73.4942 26.1502 73.429 26.2028 73.3995L26.6741 73.1281L34.1851 68.7898L34.5449 68.5815L34.7595 68.7099Z" fill="#05D4F5"/>
<path d="M27.4933 64.5149L27.1335 64.7232L22.061 67.6519L21.8442 67.776L19.5447 69.1036L18.9429 69.4507C18.9261 69.4612 18.9072 69.4654 18.8882 69.4654C18.8504 69.4654 18.8146 69.4465 18.7957 69.4107C18.7662 69.3602 18.783 69.2929 18.8356 69.2635L19.3343 68.9752L21.6318 67.6498L21.8464 67.5256L26.9189 64.597L27.2787 64.3887L27.4933 64.5149Z" fill="#05D4F5"/>
<path d="M27.3813 70.7233L24.5368 72.3644L23.7415 72.8231L23.6342 72.6358L24.3495 72.2234L26.95 70.7233L24.1181 69.0865L23.9014 68.9624L21.8459 67.7757L21.6313 67.6495L17.0342 64.9965L16.8175 64.8723L14.9492 63.793L20.1985 60.7192L20.5562 60.5088L20.7708 60.6329L20.4131 60.8433L15.3784 63.7909L17.0342 64.7482L17.2488 64.8723L21.8459 67.5254L22.0605 67.6495L24.1181 68.8382L24.3327 68.9624L27.3813 70.7233Z" fill="#05D4F5"/>
<path d="M1.40489 61.0936C1.72679 61.2787 1.72679 61.5796 1.40489 61.7647C1.08299 61.9499 0.563325 61.9499 0.241425 61.7647C-0.080475 61.5796 -0.080475 61.2787 0.241425 61.0936C0.563325 60.9063 1.0851 60.9063 1.40489 61.0936Z" fill="#05D4F5"/>
<path d="M15.5374 60.7698C15.5374 60.8077 15.5163 60.8435 15.4827 60.8624L8.95842 64.6305L8.36091 64.9756C8.34408 64.9861 8.32514 64.9903 8.30621 64.9903C8.26834 64.9903 8.23257 64.9714 8.21364 64.9356C8.18418 64.8851 8.20101 64.8178 8.25361 64.7883L8.75014 64.5022L15.2155 60.7698L12.8149 59.3834C12.7812 59.3644 12.7602 59.3287 12.7602 59.2908C12.7602 59.2529 12.7812 59.215 12.8149 59.1982L15.1902 57.8265L15.55 57.6182L15.7667 57.7423L15.4069 57.9506L13.0863 59.2908L15.4869 60.6752C15.5185 60.6962 15.5374 60.732 15.5374 60.7698Z" fill="#05D4F5"/>
<path d="M8.85021 64.5505C9.17211 64.7356 9.17211 65.0365 8.85021 65.2216C8.52831 65.4068 8.00864 65.4068 7.68674 65.2216C7.36484 65.0365 7.36484 64.7356 7.68674 64.5505C8.00653 64.3653 8.52831 64.3653 8.85021 64.5505Z" fill="#05D4F5"/>
<path d="M36.1619 72.533C36.1619 72.5708 36.1409 72.6066 36.1072 72.6255L29.7534 76.2948L28.9855 76.7387C28.9686 76.7471 28.9497 76.7534 28.9308 76.7534C28.895 76.7534 28.8571 76.7345 28.8382 76.6987C28.8087 76.6461 28.8277 76.5809 28.8782 76.5515L29.5472 76.1664L35.84 72.533L33.4395 71.1465C33.4058 71.1275 33.3848 71.0918 33.3848 71.0539C33.3848 71.016 33.4058 70.9803 33.4395 70.9613L35.6864 69.6632L36.0462 69.457L36.2608 69.5812L35.901 69.7873L33.7088 71.0539L36.1093 72.4404C36.1409 72.4593 36.1619 72.493 36.1619 72.533Z" fill="#05D4F5"/>
<path d="M29.6393 76.2106C29.9612 76.3958 29.9612 76.6966 29.6393 76.8818C29.3174 77.0669 28.7977 77.0669 28.4758 76.8818C28.1539 76.6966 28.1539 76.3958 28.4758 76.2106C28.7977 76.0255 29.3174 76.0255 29.6393 76.2106Z" fill="#05D4F5"/>
<path d="M11.319 64.3654C11.6409 64.5506 11.6409 64.8514 11.319 65.0366C10.9971 65.2217 10.4774 65.2217 10.1555 65.0366C9.83359 64.8514 9.83359 64.5506 10.1555 64.3654C10.4774 64.1803 10.9971 64.1803 11.319 64.3654Z" fill="#05D4F5"/>
<path d="M12.5533 67.3298C12.8752 67.5149 12.8752 67.8158 12.5533 68.0009C12.2314 68.1861 11.7118 68.1861 11.3899 68.0009C11.068 67.8158 11.068 67.5149 11.3899 67.3298C11.7118 67.1446 12.2314 67.1446 12.5533 67.3298Z" fill="#05D4F5"/>
<path d="M19.4401 69.0296C19.762 69.2147 19.762 69.5156 19.4401 69.7007C19.1182 69.8859 18.5985 69.8859 18.2766 69.7007C17.9547 69.5156 17.9547 69.2147 18.2766 69.0296C18.5985 68.8423 19.1182 68.8423 19.4401 69.0296Z" fill="#05D4F5"/>
<path d="M19.4713 71.529C19.7932 71.7141 19.7932 72.015 19.4713 72.2001C19.1494 72.3853 18.6297 72.3853 18.3078 72.2001C17.9859 72.015 17.9859 71.7141 18.3078 71.529C18.6276 71.3439 19.1494 71.3439 19.4713 71.529Z" fill="#05D4F5"/>
<path d="M24.3815 72.2404C24.7034 72.4256 24.7034 72.7264 24.3815 72.9116C24.0596 73.0967 23.5399 73.0967 23.218 72.9116C22.8961 72.7264 22.8961 72.4256 23.218 72.2404C23.5399 72.0553 24.0596 72.0553 24.3815 72.2404Z" fill="#05D4F5"/>
<path d="M26.7994 73.1912C27.1213 73.3764 27.1213 73.6772 26.7994 73.8624C26.4775 74.0475 25.9579 74.0475 25.636 73.8624C25.3141 73.6772 25.3141 73.3764 25.636 73.1912C25.9558 73.004 26.4775 73.004 26.7994 73.1912Z" fill="#05D4F5"/>
<path d="M72.0975 64.2479C72.0765 64.2815 72.0407 64.3026 72.0049 64.3026C71.986 64.3026 71.9692 64.2984 71.9502 64.2878L71.2938 63.9091L64.8285 60.1747C64.7948 60.1557 64.7738 60.12 64.7738 60.0821C64.7738 60.0442 64.7948 60.0085 64.8285 59.9895L67.229 58.603L65.0746 57.3596L64.7148 57.1534L64.9294 57.0293L65.2892 57.2355L67.4983 58.5105C67.532 58.5294 67.553 58.5652 67.553 58.603C67.553 58.6409 67.532 58.6767 67.4983 58.6956L65.0978 60.0821L71.5358 63.7997L72.0575 64.1006C72.1101 64.13 72.127 64.1974 72.0975 64.2479Z" fill="#05D4F5"/>
<path d="M49.764 77.1766C49.7429 77.2102 49.7072 77.2313 49.6714 77.2313C49.6525 77.2313 49.6356 77.2271 49.6167 77.2165L48.9813 76.8505L42.4949 73.1055C42.4612 73.0865 42.4402 73.0508 42.4402 73.0129C42.4402 72.975 42.4612 72.9393 42.4949 72.9203L44.8955 71.5338L42.7874 70.3157L42.4297 70.1095L42.6443 69.9854L43.002 70.1915L45.1648 71.4413C45.1984 71.4602 45.2195 71.496 45.2195 71.5338C45.2195 71.5717 45.1984 71.6075 45.1648 71.6264L42.7642 73.0129L49.2317 76.7474L49.724 77.0314C49.7745 77.0587 49.7934 77.1261 49.764 77.1766Z" fill="#05D4F5"/>
<path d="M60.7775 70.2336C60.7565 70.2673 60.7207 70.2883 60.6849 70.2883C60.666 70.2883 60.6471 70.2841 60.6302 70.2736L60.0348 69.9285L55.1264 67.0967C55.0927 67.0777 55.0717 67.042 55.0717 67.0041C55.0717 66.9662 55.0927 66.9305 55.1264 66.9115L56.9463 65.8617L55.3073 64.8981L55.0927 64.7718L53.7188 63.9639L53.3633 63.7535L53.5779 63.6294L53.9334 63.8377L55.3073 64.6456L55.5219 64.7718L57.2156 65.767C57.2492 65.7859 57.2682 65.8217 57.2682 65.8596C57.2682 65.8974 57.2471 65.9332 57.2135 65.9521L55.3957 67.002L60.3252 69.8486L60.7375 70.0863C60.788 70.1179 60.807 70.1831 60.7775 70.2336Z" fill="#05D4F5"/>
<path d="M69.6908 69.9494C69.6698 69.9831 69.634 70.0041 69.5982 70.0041C69.5793 70.0041 69.5625 69.9999 69.5435 69.9894L68.9081 69.6233L59.9602 64.456C59.9265 64.4371 59.9055 64.4014 59.9055 64.3635C59.9055 64.3256 59.9265 64.2898 59.9602 64.2709L63.2465 62.3732L59.8402 60.406L59.4805 60.1998L59.6951 60.0757L60.0548 60.2819L63.5179 62.2806C63.5516 62.2995 63.5726 62.3353 63.5726 62.3732C63.5726 62.411 63.5516 62.4468 63.5179 62.4657L60.2316 64.3635L69.1585 69.5181L69.6529 69.8021C69.7013 69.8316 69.7203 69.8968 69.6908 69.9494Z" fill="#05D4F5"/>
<path d="M60.0865 72.6464C60.0676 72.6801 60.0297 72.7011 59.9939 72.7011C59.975 72.7011 59.9582 72.6969 59.9393 72.6864L59.3922 72.3708L53.0594 68.7142L49.5648 70.7319C49.5311 70.7508 49.4891 70.7508 49.4575 70.7319L45.7483 68.5901L45.3906 68.3839L45.6052 68.2598L45.9629 68.466L49.5122 70.5152L53.0068 68.4975C53.0405 68.4786 53.0826 68.4786 53.1141 68.4975L59.6089 72.2467L60.0465 72.4992C60.0991 72.5286 60.116 72.596 60.0865 72.6464Z" fill="#05D4F5"/>
<path d="M69.5909 64.0604C69.5699 64.0941 69.5341 64.1151 69.4983 64.1151C69.4794 64.1151 69.4626 64.1109 69.4436 64.1004L68.8272 63.7448L61.434 59.476L61.0742 59.2677L61.2888 59.1436L61.6486 59.3518L69.0586 63.6291L69.5509 63.9131C69.6035 63.9426 69.6225 64.0078 69.5909 64.0604Z" fill="#05D4F5"/>
<path d="M75.306 60.7132C75.285 60.7468 75.2492 60.7679 75.2135 60.7679C75.1945 60.7679 75.1777 60.7637 75.1588 60.7532L74.4813 60.3618L67.1723 56.1414L66.8125 55.9352L67.0271 55.811L67.3869 56.0193L74.6875 60.2356L75.2661 60.5701C75.3187 60.5954 75.3355 60.6606 75.306 60.7132Z" fill="#05D4F5"/>
<path d="M62.9533 67.8391C62.9322 67.8728 62.8965 67.8939 62.8607 67.8939C62.8418 67.8939 62.8228 67.8896 62.806 67.8791L62.1369 67.4941L56.4711 64.2225L56.2544 64.0984L54.8637 63.2947L54.5039 63.0885L54.7185 62.9644L55.0783 63.1705L56.469 63.9742L56.6857 64.0984L62.3305 67.3573L62.9112 67.6919C62.9638 67.7213 62.9827 67.7865 62.9533 67.8391Z" fill="#05D4F5"/>
<path d="M52.2237 74.0918C52.2048 74.1255 52.1669 74.1466 52.1311 74.1466C52.1122 74.1466 52.0954 74.1423 52.0764 74.1318L51.4558 73.7742L44.1194 69.539L43.7617 69.3307L43.9763 69.2065L44.334 69.4127L51.6872 73.6563L52.1858 73.9446C52.2363 73.974 52.2553 74.0393 52.2237 74.0918Z" fill="#05D4F5"/>
<path d="M60.1366 62.1039L56.682 64.0984L56.4674 64.2225L55.5185 64.7695L55.3018 64.8937L50.9741 67.3931L50.326 67.7676L50.2188 67.5804L50.7952 67.2479L55.0893 64.7695L55.3039 64.6454L56.2507 64.0984L56.4674 63.9721L59.7053 62.1039L58.302 61.2938L57.9444 61.0877L58.159 60.9614L58.5187 61.1697L60.1366 62.1039Z" fill="#05D4F5"/>
<path d="M50.1588 76.8395C50.4807 77.0247 50.4807 77.3255 50.1588 77.5107C49.8369 77.6958 49.3172 77.6958 48.9953 77.5107C48.6734 77.3255 48.6734 77.0247 48.9953 76.8395C49.3172 76.6544 49.8369 76.6544 50.1588 76.8395Z" fill="#05D4F5"/>
<path d="M52.6861 73.7302C53.008 73.9153 53.008 74.2162 52.6861 74.4013C52.3642 74.5865 51.8446 74.5865 51.5227 74.4013C51.2008 74.2162 51.2008 73.9153 51.5227 73.7302C51.8446 73.545 52.3663 73.545 52.6861 73.7302Z" fill="#05D4F5"/>
<path d="M50.8072 67.2542C51.1291 67.4394 51.1291 67.7402 50.8072 67.9254C50.4853 68.1105 49.9657 68.1105 49.6438 67.9254C49.3219 67.7402 49.3219 67.4394 49.6438 67.2542C49.9636 67.067 50.4853 67.067 50.8072 67.2542Z" fill="#05D4F5"/>
<path d="M60.651 72.3059C60.9729 72.491 60.9729 72.7919 60.651 72.977C60.3291 73.1621 59.8094 73.1621 59.4875 72.977C59.1656 72.7919 59.1656 72.491 59.4875 72.3059C59.8094 72.1207 60.3291 72.1207 60.651 72.3059Z" fill="#05D4F5"/>
<path d="M61.108 69.9724C61.4299 70.1575 61.4299 70.4584 61.108 70.6435C60.7861 70.8287 60.2665 70.8287 59.9446 70.6435C59.6226 70.4584 59.6226 70.1575 59.9446 69.9724C60.2643 69.7872 60.7861 69.7872 61.108 69.9724Z" fill="#05D4F5"/>
<path d="M63.4361 67.385C63.758 67.5701 63.758 67.871 63.4361 68.0561C63.1142 68.2412 62.5946 68.2412 62.2727 68.0561C61.9508 67.871 61.9508 67.5701 62.2727 67.385C62.5946 67.1998 63.1163 67.1998 63.4361 67.385Z" fill="#05D4F5"/>
<path d="M70.0924 69.6086C70.4143 69.7937 70.4143 70.0946 70.0924 70.2797C69.7705 70.4649 69.2508 70.4649 68.9289 70.2797C68.607 70.0946 68.607 69.7937 68.9289 69.6086C69.2508 69.4234 69.7705 69.4234 70.0924 69.6086Z" fill="#05D4F5"/>
<path d="M69.475 64.5149C69.9293 64.5149 70.2976 64.3021 70.2976 64.0395C70.2976 63.7768 69.9293 63.564 69.475 63.564C69.0207 63.564 68.6523 63.7768 68.6523 64.0395C68.6523 64.3021 69.0207 64.5149 69.475 64.5149Z" fill="#05D4F5"/>
<path d="M72.4986 63.8859C72.8205 64.0711 72.8205 64.3719 72.4986 64.5571C72.1767 64.7422 71.6571 64.7422 71.3352 64.5571C71.0133 64.3719 71.0133 64.0711 71.3352 63.8859C71.6571 63.7008 72.1788 63.7008 72.4986 63.8859Z" fill="#05D4F5"/>
<path d="M75.7604 60.2756C76.0823 60.4607 76.0823 60.7616 75.7604 60.9467C75.4385 61.1319 74.9188 61.1319 74.5969 60.9467C74.275 60.7616 74.275 60.4607 74.5969 60.2756C74.9188 60.0904 75.4385 60.0904 75.7604 60.2756Z" fill="#05D4F5"/>
<path d="M31.8407 34.3404C31.8407 34.3782 31.8218 34.414 31.7881 34.433L30.0797 35.4555L29.8672 35.5838L27.7233 36.8693L27.5108 36.9955L25.4995 38.2011L31.1485 41.4622L31.5083 41.6683L31.2937 41.7925L30.9339 41.5863L25.2344 38.2958C25.2007 38.2768 25.1818 38.2411 25.1797 38.2032C25.1797 38.1653 25.1986 38.1295 25.2323 38.1106L27.2962 36.8735L27.5087 36.7452L29.6526 35.4597L29.8651 35.3313L31.5188 34.3404L28.3482 32.51L27.8117 32.2007C27.7612 32.1712 27.7423 32.1039 27.7717 32.0534C27.8012 32.0008 27.8685 31.984 27.919 32.0134L28.5544 32.3795L31.7839 34.2436C31.8197 34.2667 31.8407 34.3025 31.8407 34.3404Z" fill="#05D4F5"/>
<path d="M12.5256 52.493L6.97758 49.2908L9.37816 47.9043C9.41182 47.8854 9.43286 47.8496 9.43286 47.8118C9.43286 47.7739 9.41182 47.7381 9.37816 47.7192L6.11918 45.8383L5.51325 45.489C5.46066 45.4596 5.39543 45.4764 5.36598 45.529C5.33652 45.5795 5.35336 45.6468 5.40595 45.6763L5.86671 45.9435L9.10886 47.8139L6.70828 49.2003C6.67462 49.2193 6.65358 49.255 6.65358 49.2929C6.65358 49.3308 6.67462 49.3666 6.70828 49.3855L12.311 52.6192L12.5256 52.493Z" fill="#05D4F5"/>
<path d="M23.8133 46.141L23.5987 46.2652L23.2389 46.0569L19.3803 43.8288C19.3466 43.8099 19.3256 43.7741 19.3256 43.7362C19.3256 43.6984 19.3466 43.6605 19.3803 43.6437L21.2002 42.5917L16.7462 39.9723L16.3233 39.7241C16.2707 39.6946 16.2539 39.6273 16.2854 39.5768C16.3149 39.5263 16.3822 39.5095 16.4327 39.5389L16.9713 39.8566L21.4674 42.5012C21.5011 42.5202 21.5221 42.5559 21.52 42.5938C21.52 42.6317 21.499 42.6674 21.4653 42.6864L19.6475 43.7362L23.4514 45.9327L23.8133 46.141Z" fill="#05D4F5"/>
<path d="M28.6379 43.3385L28.4233 43.4627L28.0636 43.2565L22.0611 39.7913C22.0274 39.7724 22.0064 39.7366 22.0064 39.6987C22.0064 39.6609 22.0274 39.6251 22.0611 39.6062L24.7099 38.0766L21.3436 36.1326L20.6325 35.7202C20.5799 35.6908 20.5631 35.6255 20.5925 35.5729C20.622 35.5203 20.6872 35.5035 20.7398 35.533L21.5519 36.0021L24.9792 37.9819C25.0129 38.0009 25.0339 38.0366 25.0339 38.0745C25.0339 38.1124 25.0129 38.1481 24.9792 38.1671L22.3304 39.6966L28.2782 43.1302L28.6379 43.3385Z" fill="#05D4F5"/>
<path d="M21.0992 47.7189L20.8846 47.843L20.5249 47.6368L16.6053 45.3751L13.8028 46.993C13.7692 47.012 13.7292 47.012 13.6955 46.993L9.90427 44.805L9.4372 44.5357C9.38461 44.5062 9.36777 44.4389 9.39723 44.3884C9.42668 44.3358 9.49191 44.3189 9.5445 44.3484L10.102 44.6703L13.7481 46.7763L16.5506 45.1584C16.5842 45.1395 16.6263 45.1395 16.6579 45.1584L20.7374 47.5127L21.0992 47.7189Z" fill="#05D4F5"/>
<path d="M33.7667 40.3577L33.5521 40.4818L33.1924 40.2735L27.5118 36.9935L27.2972 36.8715L25.5383 35.8553L25.0817 35.5923C25.0291 35.5628 25.0123 35.4976 25.0418 35.445C25.0712 35.3924 25.1385 35.3756 25.189 35.405L25.7781 35.7459L27.5097 36.7452L27.7243 36.8694L33.4091 40.1515L33.7667 40.3577Z" fill="#05D4F5"/>
<path d="M36.1604 38.9649L35.9458 39.089L35.586 38.8807L29.8655 35.5818L29.6509 35.4576L23.034 31.6411L22.6911 31.4434C22.6385 31.4139 22.6217 31.3487 22.6511 31.2961C22.6806 31.2435 22.7458 31.2267 22.7984 31.2561L23.3012 31.5465L29.8613 35.3314L30.0759 35.4555L35.7985 38.7566L36.1604 38.9649Z" fill="#05D4F5"/>
<path d="M27.4683 44.0161L27.2537 44.1402L26.894 43.9341L19.3114 39.5558L18.8044 39.2612C18.7518 39.2318 18.735 39.1645 18.7644 39.114C18.7939 39.0614 18.8591 39.0445 18.9117 39.074L19.5471 39.4401L27.1086 43.8057L27.4683 44.0161Z" fill="#05D4F5"/>
<path d="M16.8133 50.2099L16.5987 50.334L16.2389 50.1279L12.8537 48.1733L12.0416 47.7041C11.9911 47.6747 11.9722 47.6095 12.0037 47.5569C12.0332 47.5064 12.0984 47.4874 12.151 47.5169L13.0809 48.0534L16.4556 50.0016L16.8133 50.2099Z" fill="#05D4F5"/>
<path d="M6.10411 45.1735C6.42601 45.3587 6.42601 45.6595 6.10411 45.8447C5.78221 46.0298 5.26254 46.0298 4.94064 45.8447C4.61874 45.6595 4.61874 45.3587 4.94064 45.1735C5.26254 44.9884 5.78221 44.9884 6.10411 45.1735Z" fill="#05D4F5"/>
<path d="M13.0026 47.4328C13.3245 47.6179 13.3245 47.9188 13.0026 48.104C12.6807 48.2891 12.161 48.2891 11.8391 48.104C11.5172 47.9188 11.5172 47.6179 11.8391 47.4328C12.161 47.2477 12.6828 47.2477 13.0026 47.4328Z" fill="#05D4F5"/>
<path d="M9.96739 44.0983C10.2893 44.2835 10.2893 44.5843 9.96739 44.7695C9.64549 44.9546 9.12583 44.9546 8.80393 44.7695C8.48202 44.5843 8.48202 44.2835 8.80393 44.0983C9.12583 43.9132 9.6476 43.9132 9.96739 44.0983Z" fill="#05D4F5"/>
<path d="M16.901 39.2316C17.2229 39.4168 17.2229 39.7176 16.901 39.9028C16.5791 40.0879 16.0594 40.0879 15.7375 39.9028C15.4156 39.7176 15.4156 39.4168 15.7375 39.2316C16.0594 39.0465 16.5812 39.0465 16.901 39.2316Z" fill="#05D4F5"/>
<path d="M11.2447 42.5036C11.5666 42.6888 11.5666 42.9896 11.2447 43.1748C10.9228 43.3599 10.4032 43.3599 10.0813 43.1748C9.75937 42.9896 9.75937 42.6888 10.0813 42.5036C10.4032 42.3185 10.9249 42.3185 11.2447 42.5036Z" fill="#05D4F5"/>
<path d="M22.5183 46.8945L22.3037 47.0186L21.944 46.8124L12.9665 41.6284L11.3381 42.5688L10.7237 42.9223C10.6732 42.9517 10.6059 42.9349 10.5765 42.8823C10.547 42.8318 10.5659 42.7645 10.6164 42.735L11.1214 42.4447L12.9118 41.4117C12.9455 41.3927 12.9855 41.3927 13.0191 41.4117L22.1586 46.6883L22.5183 46.8945Z" fill="#05D4F5"/>
<path d="M37.518 38.1758L37.3034 38.3L36.9436 38.0938L33.043 35.8405C33.0093 35.8215 32.9883 35.7858 32.9883 35.7479C32.9883 35.71 33.0093 35.6743 33.043 35.6553L34.8629 34.6034L30.4088 31.984L29.986 31.7357C29.9355 31.7063 29.9186 31.6389 29.9481 31.5884C29.9775 31.5358 30.0449 31.519 30.0954 31.5506L30.634 31.8662L35.13 34.5129C35.1637 34.5318 35.1826 34.5676 35.1826 34.6055C35.1826 34.6433 35.1616 34.6791 35.1279 34.698L33.3102 35.7479L37.1582 37.9696L37.518 38.1758Z" fill="#05D4F5"/>
<path d="M30.5611 31.2434C30.883 31.4285 30.883 31.7294 30.5611 31.9145C30.2392 32.0996 29.7196 32.0996 29.3977 31.9145C29.0758 31.7294 29.0758 31.4285 29.3977 31.2434C29.7196 31.0582 30.2413 31.0582 30.5611 31.2434Z" fill="#05D4F5"/>
<path d="M19.4986 38.8049C19.8205 38.99 19.8205 39.2909 19.4986 39.476C19.1767 39.6612 18.6571 39.6612 18.3352 39.476C18.0133 39.2909 18.0133 38.99 18.3352 38.8049C18.655 38.6197 19.1767 38.6197 19.4986 38.8049Z" fill="#05D4F5"/>
<path d="M21.4361 35.4113C21.758 35.5965 21.758 35.8973 21.4361 36.0825C21.1142 36.2676 20.5946 36.2676 20.2727 36.0825C19.9508 35.8973 19.9508 35.5965 20.2727 35.4113C20.5946 35.2262 21.1163 35.2262 21.4361 35.4113Z" fill="#05D4F5"/>
<path d="M23.3307 30.8646C23.6526 31.0497 23.6526 31.3506 23.3307 31.5357C23.0088 31.7209 22.4891 31.7209 22.1672 31.5357C21.8453 31.3506 21.8453 31.0497 22.1672 30.8646C22.4891 30.6773 23.0088 30.6773 23.3307 30.8646Z" fill="#05D4F5"/>
<path d="M28.4361 31.7966C28.758 31.9817 28.758 32.2826 28.4361 32.4677C28.1142 32.6529 27.5946 32.6529 27.2727 32.4677C26.9508 32.2826 26.9508 31.9817 27.2727 31.7966C27.5946 31.6114 28.1163 31.6114 28.4361 31.7966Z" fill="#05D4F5"/>
<path d="M25.7369 35.0999C26.0588 35.2851 26.0588 35.5859 25.7369 35.7711C25.415 35.9562 24.8954 35.9562 24.5735 35.7711C24.2516 35.5859 24.2516 35.2851 24.5735 35.0999C24.8954 34.9127 25.4171 34.9127 25.7369 35.0999Z" fill="#05D4F5"/>
<path d="M68.1571 46.7113C68.1571 46.7492 68.1361 46.785 68.1024 46.8039L62.7416 49.8988L62.3818 50.105L62.1651 49.9808L62.5249 49.7725L67.8352 46.7071L62.9625 43.7869L62.75 43.6585L61.5487 42.939C61.515 42.9201 61.4961 42.8843 61.4961 42.8464C61.4961 42.8086 61.5171 42.7728 61.5508 42.7539L64.7803 40.8898L65.4157 40.5237C65.4662 40.4942 65.5335 40.5111 65.563 40.5637C65.5924 40.6163 65.5756 40.6815 65.5251 40.7109L64.9886 41.0202L61.818 42.8506L62.9646 43.5386L63.1771 43.6648L68.1045 46.6167C68.1361 46.6377 68.1571 46.6735 68.1571 46.7113Z" fill="#05D4F5"/>
<path d="M63.02 39.9117L62.5971 40.16L58.1431 42.7794L59.963 43.8292C59.9966 43.8481 60.0177 43.8839 60.0177 43.9218C60.0177 43.9597 59.9966 43.9954 59.963 44.0144L56.258 46.154L55.8982 46.3602L55.6836 46.2361L56.0434 46.0299L59.6937 43.9218L57.8759 42.8719C57.8422 42.853 57.8212 42.8172 57.8212 42.7794C57.8212 42.7415 57.8422 42.7057 57.8738 42.6868L62.3699 40.04L62.9085 39.7245C62.9611 39.695 63.0263 39.7118 63.0557 39.7623C63.0894 39.8149 63.0726 39.8801 63.02 39.9117Z" fill="#05D4F5"/>
<path d="M58.4208 35.2367L57.7286 35.6364L54.2529 37.6436L56.9627 39.2068C56.9964 39.2257 57.0174 39.2615 57.0174 39.2993C57.0174 39.3372 56.9964 39.373 56.9627 39.3919L50.7562 42.9749L50.3964 43.1832L50.1797 43.0591L50.5395 42.8529L56.6934 39.2993L53.9836 37.7361C53.9499 37.7172 53.9289 37.6814 53.9289 37.6436C53.9289 37.6057 53.9499 37.5699 53.9836 37.551L57.5413 35.4976L58.3156 35.0515C58.3682 35.0221 58.4334 35.0389 58.4628 35.0915C58.4902 35.1399 58.4713 35.2051 58.4208 35.2367Z" fill="#05D4F5"/>
<path d="M73.9508 48.8425L73.488 49.1097L70.3594 50.9148C70.3258 50.9338 70.2858 50.9338 70.2521 50.9148L67.8978 49.5557L65.0218 51.2157L64.662 51.424L64.4453 51.2999L64.8051 51.0937L67.8431 49.3411C67.8768 49.3222 67.9189 49.3222 67.9504 49.3411L70.3047 50.7002L73.2502 49.0003L73.8414 48.6594C73.894 48.63 73.9593 48.6468 73.9887 48.6994C74.0203 48.7457 74.0034 48.8109 73.9508 48.8425Z" fill="#05D4F5"/>
<path d="M54.0491 35.8154L53.5926 36.0784L46.2015 40.3473L45.8417 40.5535L45.625 40.4293L45.9848 40.2232L53.3548 35.969L53.9439 35.6282C53.9965 35.5987 54.0617 35.6156 54.0912 35.6682C54.1185 35.7208 54.1017 35.786 54.0491 35.8154Z" fill="#05D4F5"/>
<path d="M56.6547 31.6348L56.3117 31.8325L43.8734 39.0048L43.5136 39.211L43.2969 39.0869L43.6566 38.8807L56.0424 31.7379L56.5453 31.4475C56.5979 31.4181 56.6631 31.4349 56.6925 31.4875C56.7241 31.538 56.7073 31.6053 56.6547 31.6348Z" fill="#05D4F5"/>
<path d="M60.5407 39.451L60.0316 39.7435L52.5921 44.0397L52.2323 44.248L52.0156 44.1238L52.3754 43.9177L59.7959 39.6341L60.4334 39.2659C60.486 39.2364 60.5512 39.2533 60.5807 39.3059C60.6102 39.3542 60.5933 39.4216 60.5407 39.451Z" fill="#05D4F5"/>
<path d="M52.4787 39.3539L51.6666 39.823L48.4749 41.6661L48.1151 41.8723L47.8984 41.7481L48.2582 41.5419L51.4393 39.7052L52.3672 39.1687C52.4198 39.1393 52.485 39.1561 52.5144 39.2087C52.5481 39.2571 52.5313 39.3223 52.4787 39.3539Z" fill="#05D4F5"/>
<path d="M52.1 39.8929C52.5543 39.8929 52.9226 39.68 52.9226 39.4174C52.9226 39.1548 52.5543 38.9419 52.1 38.9419C51.6457 38.9419 51.2773 39.1548 51.2773 39.4174C51.2773 39.68 51.6457 39.8929 52.1 39.8929Z" fill="#05D4F5"/>
<path d="M73.3 48.3547C72.9781 48.5398 72.9781 48.8407 73.3 49.0258C73.6219 49.211 74.1416 49.211 74.4635 49.0258C74.7854 48.8407 74.7854 48.5398 74.4635 48.3547C74.1416 48.1695 73.6219 48.1695 73.3 48.3547Z" fill="#05D4F5"/>
<path d="M62.4485 39.4191C62.1266 39.6043 62.1266 39.9051 62.4485 40.0903C62.7704 40.2754 63.29 40.2754 63.6119 40.0903C63.9338 39.9051 63.9338 39.6043 63.6119 39.4191C63.29 39.234 62.7683 39.234 62.4485 39.4191Z" fill="#05D4F5"/>
<path d="M68.1047 42.6906C67.7828 42.8758 67.7828 43.1766 68.1047 43.3618C68.4266 43.5469 68.9463 43.5469 69.2682 43.3618C69.5901 43.1766 69.5901 42.8758 69.2682 42.6906C68.9463 42.5055 68.4266 42.5055 68.1047 42.6906Z" fill="#05D4F5"/>
<path d="M68.7681 43.0697C68.7387 43.1223 68.6735 43.1391 68.6209 43.1096L68.0086 42.7562L66.3802 41.8157L63.178 43.6651L62.9634 43.7892L57.5627 46.9072L57.2029 47.1155L56.9883 46.9914L57.3481 46.7852L62.7551 43.663L62.9697 43.5409L66.3318 41.6011C66.3655 41.5822 66.4075 41.5822 66.4391 41.6011L68.2295 42.6362L68.7345 42.9266C68.7787 42.9518 68.7976 43.0192 68.7681 43.0697Z" fill="#05D4F5"/>
<path d="M49.3612 31.9231L48.9404 32.1713L44.4864 34.7907L46.3063 35.8406C46.3399 35.8595 46.361 35.8953 46.361 35.9332C46.361 35.971 46.3399 36.0068 46.3063 36.0257L42.5129 38.2159L42.1531 38.4221L40.8003 39.2027C40.7835 39.2132 40.7645 39.2174 40.7477 39.2174C40.7098 39.2174 40.6741 39.1985 40.6551 39.1627C40.6257 39.1101 40.6425 39.0449 40.693 39.0154L41.9364 38.2959L42.2962 38.0897L46.0349 35.9311L44.2171 34.8812C44.1834 34.8623 44.1645 34.8265 44.1624 34.7886C44.1624 34.7508 44.1834 34.715 44.215 34.6961L48.711 32.0493L49.2496 31.7337C49.3001 31.7043 49.3675 31.7211 49.3969 31.7716C49.4285 31.8263 49.4116 31.8936 49.3612 31.9231Z" fill="#05D4F5"/>
<path d="M48.7883 31.4309C48.4664 31.616 48.4664 31.9169 48.7883 32.102C49.1102 32.2871 49.6299 32.2871 49.9518 32.102C50.2737 31.9169 50.2737 31.616 49.9518 31.4309C49.6299 31.2457 49.1081 31.2457 48.7883 31.4309Z" fill="#05D4F5"/>
<path d="M59.8508 38.9924C59.5289 39.1775 59.5289 39.4784 59.8508 39.6635C60.1727 39.8487 60.6924 39.8487 61.0143 39.6635C61.3362 39.4784 61.3362 39.1775 61.0143 38.9924C60.6924 38.8072 60.1706 38.8072 59.8508 38.9924Z" fill="#05D4F5"/>
<path d="M58.2719 35.7562C58.7262 35.7562 59.0945 35.5433 59.0945 35.2807C59.0945 35.0181 58.7262 34.8052 58.2719 34.8052C57.8175 34.8052 57.4492 35.0181 57.4492 35.2807C57.4492 35.5433 57.8175 35.7562 58.2719 35.7562Z" fill="#05D4F5"/>
<path d="M56.0149 31.0519C55.693 31.2371 55.693 31.538 56.0149 31.7231C56.3368 31.9082 56.8564 31.9082 57.1783 31.7231C57.5002 31.538 57.5002 31.2371 57.1783 31.0519C56.8585 30.8668 56.3368 30.8668 56.0149 31.0519Z" fill="#05D4F5"/>
<path d="M64.8977 40.3049C64.5758 40.49 64.5758 40.7909 64.8977 40.976C65.2196 41.1612 65.7392 41.1612 66.0611 40.976C66.383 40.7909 66.383 40.49 66.0611 40.3049C65.7392 40.1197 65.2196 40.1197 64.8977 40.3049Z" fill="#05D4F5"/>
<path d="M53.3938 35.3229C53.0719 35.5081 53.0719 35.8089 53.3938 35.9941C53.7157 36.1792 54.2353 36.1792 54.5572 35.9941C54.8791 35.8089 54.8791 35.5081 54.5572 35.3229C54.2353 35.1378 53.7157 35.1378 53.3938 35.3229Z" fill="#05D4F5"/>
<path d="M28.6722 38.9727L26.8859 37.9355C26.6903 37.8219 26.5451 37.5968 26.4883 37.2412L28.2745 38.2784C28.3313 38.634 28.4765 38.857 28.6722 38.9727Z" fill="#DAD9E8"/>
<mask id="mask4_187_1950" style="mask-type:luminance" maskUnits="userSpaceOnUse" x="26" y="37" width="3" height="2">
<path d="M28.6722 38.9727L26.8859 37.9355C26.6903 37.8219 26.5451 37.5968 26.4883 37.2412L28.2745 38.2784C28.3313 38.634 28.4765 38.857 28.6722 38.9727Z" fill="white"/>
</mask>
<g mask="url(#mask4_187_1950)">
<path d="M28.67 38.9713L26.8838 37.9341C26.6882 37.8205 26.5451 37.5974 26.4883 37.2461L28.2745 38.2833C28.3313 38.6347 28.4765 38.8577 28.67 38.9713Z" fill="#DAD9E8"/>
<path d="M28.2745 38.2848L26.4883 37.2475C26.4883 37.2454 26.4883 37.2433 26.4883 37.2412L28.2745 38.2784C28.2745 38.2806 28.2745 38.2827 28.2745 38.2848Z" fill="#DAD9E8"/>
</g>
<path d="M30.2097 20.3364L31.9959 21.3737C31.4741 21.0707 30.7525 21.1086 29.9425 21.5756L28.1562 20.5384C28.9663 20.0713 29.6879 20.0335 30.2097 20.3364Z" fill="#DAD9E8"/>
<mask id="mask5_187_1950" style="mask-type:luminance" maskUnits="userSpaceOnUse" x="28" y="20" width="4" height="2">
<path d="M30.2097 20.3364L31.9959 21.3737C31.4741 21.0707 30.7525 21.1086 29.9425 21.5756L28.1562 20.5384C28.9663 20.0713 29.6879 20.0335 30.2097 20.3364Z" fill="white"/>
</mask>
<g mask="url(#mask5_187_1950)">
<path d="M29.9425 21.5756L28.1562 20.5384C28.9663 20.0713 29.6879 20.0335 30.2097 20.3364L31.9959 21.3737C31.4741 21.0707 30.7525 21.1086 29.9425 21.5756Z" fill="#DAD9E8"/>
</g>
<path d="M28.2765 38.2789L26.4902 37.2395L24.7734 26.3496L26.5597 27.3889L28.2765 38.2789Z" fill="#DAD9E8"/>
<path d="M29.3995 21.8914L27.6133 20.8521L28.1582 20.5386L29.9444 21.5758L29.3995 21.8914Z" fill="#EBEBF1"/>
<path d="M26.5605 27.3888L24.7743 26.3516C24.4818 24.498 25.8346 21.8807 27.6146 20.854L29.4008 21.8912C27.6188 22.918 26.268 25.5352 26.5605 27.3888Z" fill="#EBEBF1"/>
<mask id="mask6_187_1950" style="mask-type:luminance" maskUnits="userSpaceOnUse" x="24" y="20" width="6" height="8">
<path d="M26.5605 27.3888L24.7743 26.3516C24.4818 24.498 25.8346 21.8807 27.6146 20.854L29.4008 21.8912C27.6188 22.918 26.268 25.5352 26.5605 27.3888Z" fill="white"/>
</mask>
<g mask="url(#mask6_187_1950)">
<path d="M26.5601 27.3886L24.7739 26.3514C24.6855 25.7875 24.7487 25.1542 24.9296 24.5146L26.7158 25.5519C26.5349 26.1915 26.4718 26.8248 26.5601 27.3886Z" fill="#EBEBF1"/>
<path d="M26.7159 25.5519L24.9297 24.5147C25.1338 23.7952 25.4851 23.0714 25.9396 22.436L27.7258 23.4733C27.2714 24.1087 26.9179 24.8345 26.7159 25.5519Z" fill="#EBEBF1"/>
<path d="M27.7237 23.4733L25.9375 22.436C26.2846 21.95 26.6886 21.5166 27.1304 21.1758L28.9167 22.213C28.4769 22.5539 28.0709 22.9873 27.7237 23.4733Z" fill="#EBEBF1"/>
<path d="M28.919 22.2133L27.1328 21.1761C27.2885 21.0561 27.4484 20.9467 27.6146 20.8521L29.4008 21.8893C29.2346 21.9861 29.0747 22.0934 28.919 22.2133Z" fill="#EBEBF1"/>
</g>
<path d="M29.9425 21.5755C31.7224 20.5488 33.0837 21.5987 32.8039 23.7825L31.1544 36.6144C31.0239 37.6285 30.3717 38.4742 29.7195 38.8529C29.0652 39.2295 28.4109 39.1391 28.2762 38.2786L26.5594 27.3887C26.267 25.5351 27.6198 22.9178 29.3997 21.8911L29.9425 21.5755Z" fill="#C4C3EC"/>
<path d="M31.9176 21.6681L33.161 22.3919C32.6329 22.0847 31.9008 22.1289 31.095 22.5939L29.8516 21.8701C30.6595 21.4051 31.3895 21.361 31.9176 21.6681Z" fill="#05D4F5"/>
<mask id="mask7_187_1950" style="mask-type:luminance" maskUnits="userSpaceOnUse" x="29" y="21" width="5" height="2">
<path d="M31.9176 21.6681L33.161 22.3919C32.6329 22.0847 31.9008 22.1289 31.095 22.5939L29.8516 21.8701C30.6595 21.4051 31.3895 21.361 31.9176 21.6681Z" fill="white"/>
</mask>
<g mask="url(#mask7_187_1950)">
<path d="M31.095 22.594L29.8516 21.8703C30.6595 21.4032 31.3895 21.3611 31.9176 21.6683L33.161 22.392C32.6351 22.0849 31.9029 22.129 31.095 22.594Z" fill="#05D4F5"/>
</g>
<path d="M31.3846 23.8097C32.4828 23.1743 33.3791 23.6856 33.3833 24.95C33.3875 26.2124 32.4975 27.7546 31.3972 28.3879C30.2989 29.0232 29.4006 28.512 29.3985 27.2496C29.3942 25.9873 30.2842 24.443 31.3846 23.8097Z" fill="#05D4F5"/>
<path d="M29.0483 29.4738L27.8049 28.7501C27.2831 28.4471 26.9591 27.8033 26.957 26.886C26.9528 25.043 28.2489 22.796 29.8541 21.8682L31.0976 22.5919C29.4923 23.5176 28.1963 25.7646 28.2005 27.6098C28.2026 28.5271 28.5266 29.1709 29.0483 29.4738Z" fill="#05D4F5"/>
<mask id="mask8_187_1950" style="mask-type:luminance" maskUnits="userSpaceOnUse" x="26" y="21" width="6" height="9">
<path d="M29.0483 29.4738L27.8049 28.7501C27.2831 28.4471 26.9591 27.8033 26.957 26.886C26.9528 25.043 28.2489 22.796 29.8541 21.8682L31.0976 22.5919C29.4923 23.5176 28.1963 25.7646 28.2005 27.6098C28.2026 28.5271 28.5266 29.1709 29.0483 29.4738Z" fill="white"/>
</mask>
<g mask="url(#mask8_187_1950)">
<path d="M29.0474 29.4741L27.804 28.7504C27.3411 28.4811 27.034 27.9425 26.9688 27.1851L28.2122 27.9088C28.2774 28.6662 28.5825 29.2048 29.0474 29.4741Z" fill="#05D4F5"/>
<path d="M28.2131 27.9085L26.9697 27.1848C26.9613 27.0901 26.957 26.9891 26.957 26.8881C26.9528 25.2976 27.9164 23.4082 29.2103 22.3247L30.4538 23.0485C29.1599 24.132 28.1963 26.0213 28.2005 27.6119C28.2005 27.7129 28.2047 27.8117 28.2131 27.9085Z" fill="#05D4F5"/>
<path d="M30.4544 23.0483L29.2109 22.3246C29.4171 22.152 29.6338 21.9985 29.8547 21.8701L31.0982 22.5939C30.8751 22.7222 30.6605 22.8737 30.4544 23.0483Z" fill="#05D4F5"/>
</g>
<path d="M31.3846 23.8101L31.0963 22.5941C32.7016 21.6683 34.0061 22.411 34.0103 24.2562C34.0145 26.0992 32.7185 28.3462 31.1153 29.2719C29.51 30.1976 28.2055 29.455 28.1992 27.6119C28.195 25.7689 29.491 23.5219 31.0963 22.5941L31.3846 23.8101C30.2863 24.4434 29.3943 25.9877 29.3985 27.25C29.4006 28.5124 30.2989 29.0236 31.3972 28.3883C32.4954 27.755 33.3875 26.2128 33.3833 24.9505C33.3791 23.686 32.4828 23.1747 31.3846 23.8101Z" fill="#05D4F5"/>
<mask id="mask9_187_1950" style="mask-type:luminance" maskUnits="userSpaceOnUse" x="28" y="22" width="7" height="8">
<path d="M31.3846 23.8101L31.0963 22.5941C32.7016 21.6683 34.0061 22.411 34.0103 24.2562C34.0145 26.0992 32.7185 28.3462 31.1153 29.2719C29.51 30.1976 28.2055 29.455 28.1992 27.6119C28.195 25.7689 29.491 23.5219 31.0963 22.5941L31.3846 23.8101C30.2863 24.4434 29.3943 25.9877 29.3985 27.25C29.4006 28.5124 30.2989 29.0236 31.3972 28.3883C32.4954 27.755 33.3875 26.2128 33.3833 24.9505C33.3791 23.686 32.4828 23.1747 31.3846 23.8101Z" fill="white"/>
</mask>
<g mask="url(#mask9_187_1950)">
<path d="M31.3846 23.8101L31.0963 22.5941C32.7016 21.6683 34.0061 22.411 34.0103 24.2562C34.0145 26.0992 32.7185 28.3462 31.1153 29.2719C29.51 30.1976 28.2055 29.455 28.1992 27.6119C28.195 25.7689 29.491 23.5219 31.0963 22.5941L31.3846 23.8101C30.2863 24.4434 29.3943 25.9877 29.3985 27.25C29.4006 28.5124 30.2989 29.0236 31.3972 28.3883C32.4954 27.755 33.3875 26.2128 33.3833 24.9505C33.3791 23.686 32.4828 23.1747 31.3846 23.8101Z" fill="#12B0F3"/>
</g>
<path d="M27.9962 1.61633L27.3906 1.80176L30.6149 12.3314L31.2205 12.1459L27.9962 1.61633Z" fill="#171C29"/>
<path d="M34.7567 45.2972C31.7986 43.4689 31.1317 41.0157 30.8477 39.968C31.077 40.9737 31.8639 41.973 33.2062 42.7809C36.5598 44.7986 42.1121 44.8554 45.6088 42.9072C47.1089 42.0698 47.9883 40.9989 48.2345 39.8901C48.0072 40.7591 47.6643 42.074 46.3536 43.593C45.857 44.1674 44.763 45.2383 43.0146 45.9389C40.3553 47.0056 37.1131 46.7531 34.7567 45.2972Z" fill="#919DD6"/>
<path d="M45.6657 21.3229C48.9352 23.2901 48.8237 26.4271 45.4153 28.3269C42.0069 30.2267 36.5957 30.172 33.3262 28.2049C30.0567 26.2377 30.1682 23.1007 33.5765 21.2009C36.9828 19.3011 42.3962 19.3558 45.6657 21.3229Z" fill="#E4E3EE"/>
<path d="M30.8393 39.9387L28.2031 28.4197C28.5103 29.762 29.5328 31.0622 31.277 32.1121C35.6342 34.7357 42.8485 34.8072 47.3909 32.2741C49.3412 31.1864 50.4816 29.7957 50.8035 28.3545L48.2325 39.8882C47.9842 40.997 47.1069 42.0679 45.6068 42.9052C42.1122 44.8535 36.5578 44.7988 33.2041 42.779C31.8618 41.9732 31.075 40.9738 30.8393 39.9387Z" fill="#B7B6E3"/>
<path d="M32.1721 21.018C36.624 18.6006 42.9273 18.6721 47.1604 21.1884C46.7838 20.9612 46.2557 20.978 45.6624 21.3083C42.3929 19.3412 36.9795 19.2865 33.5733 21.1863C30.1649 23.0862 30.0534 26.221 33.3229 28.1903C36.5924 30.1574 42.0058 30.2121 45.4121 28.3123C48.8204 26.4125 48.9319 23.2776 45.6624 21.3083C46.2557 20.978 46.7838 20.9612 47.1604 21.1884C48.0462 21.7607 49.3864 22.6275 50.3184 24.4495C51.1873 26.1495 50.9243 27.6748 50.8107 28.327C50.4804 29.8061 49.3401 31.1968 47.3898 32.2824C42.8474 34.8155 35.633 34.7419 31.2758 32.1204C29.5338 31.0726 28.5113 29.7745 28.202 28.4322C28.0926 27.8473 27.9895 27.294 28.0947 26.4272C28.2251 25.3416 28.6585 24.521 28.6775 24.4874C29.0036 23.8793 29.8641 22.2698 32.1721 21.018Z" fill="#DAD9E8"/>
<path d="M44.2369 7.1049C46.7448 8.61342 46.6585 11.0203 44.0454 12.4762C41.4324 13.9342 37.2792 13.8922 34.7714 12.3815C32.2635 10.873 32.3497 8.46825 34.9628 7.01023C37.578 5.55431 41.729 5.59639 44.2369 7.1049Z" fill="#EBEBF1"/>
<path d="M31.4626 25.0998C27.4251 22.6024 26.5394 19.2972 26.5078 16.9639C26.5141 18.8385 27.7176 20.711 30.1329 22.1648C35.1108 25.1608 43.3539 25.245 48.5422 22.3521C51.2121 20.8625 52.5544 18.8764 52.5481 16.8882C52.5039 18.1085 52.4366 18.7396 51.9464 20.1072C51.5613 21.1781 50.8755 22.0891 50.5052 22.5793C50.3326 22.8086 48.7316 24.8473 45.6409 26.0529C40.2801 28.14 34.6563 27.0775 31.4626 25.0998Z" fill="#B7B6E3"/>
<path d="M31.8334 6.63364C34.1983 5.34604 36.8513 4.71276 39.7211 4.75063C42.6687 4.7885 45.3154 5.4891 47.5855 6.83561C46.7355 6.32436 45.5489 6.37275 44.2382 7.10492C41.7303 5.5964 37.5793 5.55432 34.9641 7.01024C32.351 8.46826 32.2648 10.873 34.7726 12.3816C37.2805 13.8901 41.4315 13.9321 44.0467 12.4762C46.6598 11.0182 46.7461 8.61343 44.2382 7.10492C45.5489 6.37275 46.7355 6.32436 47.5855 6.83561C48.7827 7.60775 52.4246 9.95994 52.5403 14.9715C52.5466 16.9576 51.2043 18.9458 48.5344 20.4354C43.3461 23.3283 35.1029 23.2462 30.1251 20.2502C27.7098 18.7964 26.5063 16.9218 26.5 15.0493C26.5274 14.3214 26.5568 13.4945 26.8766 12.4868C27.2532 11.2917 27.5793 10.7784 28.1179 9.92838C28.5429 9.25723 29.8663 7.70453 31.8334 6.63364Z" fill="#E4E3EE"/>
<path d="M42.0817 22.4007C37.8654 22.8972 33.3209 22.1734 30.1251 20.2484C27.7224 18.803 26.519 16.941 26.5 15.079C26.4958 13.8693 26.9944 12.7521 27.8339 11.8579C27.8507 13.5284 28.9301 15.1968 31.0845 16.495C33.9521 18.2202 38.0274 18.8703 41.8082 18.4243C41.9765 19.7939 42.0796 21.1909 42.0817 22.4007Z" fill="#042F8F"/>
<path d="M26.5063 16.9641L26.5 15.0495C26.5063 16.9241 27.7098 18.7966 30.1251 20.2504C35.1029 23.2464 43.3461 23.3306 48.5344 20.4356C51.2043 18.946 52.5466 16.9599 52.5403 14.9717L52.5466 16.8863C52.5529 18.8724 51.2106 20.8606 48.5407 22.3501C43.3524 25.243 35.1093 25.161 30.1314 22.1629C27.714 20.7112 26.5105 18.8387 26.5063 16.9641Z" fill="#DAD9E8"/>
<path d="M28.6161 17.0206C28.3594 17.7443 27.9218 17.7927 27.6188 17.13C27.1118 16.0254 27.6272 14.6915 28.2857 14.8809C28.4057 14.9146 28.4688 14.984 28.534 15.0576C28.9548 15.6572 28.7276 16.7008 28.6161 17.0206Z" fill="#05D4F5"/>
<path d="M35.9979 20.2944C35.8065 21.38 34.441 21.5631 33.751 20.5953C33.0314 19.5854 33.8204 18.4198 34.8282 18.546C34.866 18.5503 34.9144 18.5608 34.9502 18.5671C35.838 18.8238 36.0968 19.7327 35.9979 20.2944Z" fill="#05D4F5"/>
<path d="M48.1601 15.6236C48.1601 14.9798 47.7077 14.721 47.1523 15.0408C46.5948 15.3627 46.1445 16.1432 46.1445 16.787C46.1445 17.4308 46.5969 17.6917 47.1523 17.3698C47.7077 17.0479 48.1601 16.2674 48.1601 15.6236Z" fill="#1393F2"/>
<path d="M47.2827 16.5367C47.1859 16.5367 47.0912 16.4926 47.0281 16.4105C46.9229 16.2695 46.9523 16.0718 47.0912 15.9666L54.4402 10.4501C54.5791 10.3449 54.7789 10.3722 54.8841 10.5132C54.9893 10.6521 54.9599 10.8519 54.821 10.9571L47.472 16.4736C47.4152 16.5157 47.3479 16.5367 47.2827 16.5367Z" fill="#171C29"/>
<path d="M56.4988 10.3095C56.4988 9.3648 55.733 8.60107 54.7904 8.60107C53.8458 8.60107 53.082 9.3669 53.082 10.3095C53.082 11.2541 53.8479 12.0178 54.7904 12.0178C55.733 12.0178 56.4988 11.252 56.4988 10.3095Z" fill="#1393F2"/>
<path d="M29.2449 1.70839C29.2449 0.763724 28.4791 0 27.5365 0C26.5918 0 25.8281 0.765828 25.8281 1.70839C25.8281 2.65094 26.594 3.41677 27.5365 3.41677C28.4791 3.41677 29.2449 2.65305 29.2449 1.70839Z" fill="#1393F2"/>
<path d="M49.6715 27.8034L50.9149 28.5271C50.3869 28.22 49.6547 28.2641 48.8489 28.7291L47.6055 28.0054C48.4134 27.5404 49.1434 27.4962 49.6715 27.8034Z" fill="#05D4F5"/>
<mask id="mask10_187_1950" style="mask-type:luminance" maskUnits="userSpaceOnUse" x="47" y="27" width="4" height="2">
<path d="M49.6715 27.8034L50.9149 28.5271C50.3869 28.22 49.6547 28.2641 48.8489 28.7291L47.6055 28.0054C48.4134 27.5404 49.1434 27.4962 49.6715 27.8034Z" fill="white"/>
</mask>
<g mask="url(#mask10_187_1950)">
<path d="M48.8489 28.7293L47.6055 28.0055C48.4134 27.5384 49.1434 27.4964 49.6715 27.8035L50.9149 28.5273C50.389 28.2201 49.6568 28.2622 48.8489 28.7293Z" fill="#05D4F5"/>
</g>
<path d="M49.1346 29.945C50.2328 29.3096 51.1291 29.8208 51.1333 31.0853C51.1375 32.3476 50.2475 33.8898 49.1472 34.5231C48.0468 35.1585 47.1506 34.6472 47.1485 33.3849C47.1442 32.1204 48.0363 30.5782 49.1346 29.945Z" fill="#05D4F5"/>
<path d="M46.7983 35.6089L45.5549 34.8852C45.0331 34.5822 44.7091 33.9384 44.707 33.0232C44.7028 31.1802 45.9989 28.9332 47.6041 28.0054L48.8476 28.7291C47.2423 29.6548 45.9463 31.9018 45.9505 33.747C45.9547 34.6622 46.2787 35.306 46.7983 35.6089Z" fill="#05D4F5"/>
<mask id="mask11_187_1950" style="mask-type:luminance" maskUnits="userSpaceOnUse" x="44" y="28" width="5" height="8">
<path d="M46.7983 35.6089L45.5549 34.8852C45.0331 34.5822 44.7091 33.9384 44.707 33.0232C44.7028 31.1802 45.9989 28.9332 47.6041 28.0054L48.8476 28.7291C47.2423 29.6548 45.9463 31.9018 45.9505 33.747C45.9547 34.6622 46.2787 35.306 46.7983 35.6089Z" fill="white"/>
</mask>
<g mask="url(#mask11_187_1950)">
<path d="M46.7974 35.6089L45.554 34.8851C45.0911 34.6158 44.784 34.0772 44.7188 33.3198L45.9622 34.0436C46.0274 34.801 46.3346 35.3396 46.7974 35.6089Z" fill="#05D4F5"/>
<path d="M45.9631 34.0438L44.7197 33.32C44.7113 33.2253 44.707 33.1244 44.707 33.0234C44.7028 31.4328 45.6664 29.5435 46.9603 28.46L48.2038 29.1837C46.9098 30.2672 45.9463 32.1566 45.9505 33.7471C45.9505 33.8481 45.9547 33.947 45.9631 34.0438Z" fill="#05D4F5"/>
<path d="M48.2044 29.1816L46.9609 28.4579C47.1671 28.2853 47.3838 28.1318 47.6047 28.0034L48.8482 28.7272C48.6251 28.8555 48.4105 29.0091 48.2044 29.1816Z" fill="#05D4F5"/>
</g>
<path d="M49.1346 29.9454L48.8463 28.7293C50.4516 27.8036 51.7561 28.5463 51.7603 30.3914C51.7645 32.2344 50.4685 34.4793 48.8653 35.4072C47.26 36.3329 45.9555 35.5902 45.9492 33.7472C45.945 31.9041 47.241 29.6571 48.8463 28.7293L49.1346 29.9454C48.0363 30.5787 47.1443 32.1229 47.1485 33.3853C47.1506 34.6476 48.0489 35.1589 49.1472 34.5235C50.2454 33.8902 51.1375 32.3481 51.1333 31.0857C51.1312 29.8213 50.2349 29.31 49.1346 29.9454Z" fill="#05D4F5"/>
<mask id="mask12_187_1950" style="mask-type:luminance" maskUnits="userSpaceOnUse" x="45" y="28" width="7" height="8">
<path d="M49.1346 29.9454L48.8463 28.7293C50.4516 27.8036 51.7561 28.5463 51.7603 30.3914C51.7645 32.2344 50.4685 34.4793 48.8653 35.4072C47.26 36.3329 45.9555 35.5902 45.9492 33.7472C45.945 31.9041 47.241 29.6571 48.8463 28.7293L49.1346 29.9454C48.0363 30.5787 47.1443 32.1229 47.1485 33.3853C47.1506 34.6476 48.0489 35.1589 49.1472 34.5235C50.2454 33.8902 51.1375 32.3481 51.1333 31.0857C51.1312 29.8213 50.2349 29.31 49.1346 29.9454Z" fill="white"/>
</mask>
<g mask="url(#mask12_187_1950)">
<path d="M49.1346 29.9454L48.8463 28.7293C50.4516 27.8036 51.7561 28.5463 51.7603 30.3914C51.7645 32.2344 50.4685 34.4793 48.8653 35.4072C47.26 36.3329 45.9555 35.5902 45.9492 33.7472C45.945 31.9041 47.241 29.6571 48.8463 28.7293L49.1346 29.9454C48.0363 30.5787 47.1443 32.1229 47.1485 33.3853C47.1506 34.6476 48.0489 35.1589 49.1472 34.5235C50.2454 33.8902 51.1375 32.3481 51.1333 31.0857C51.1312 29.8213 50.2349 29.31 49.1346 29.9454Z" fill="#12B0F3"/>
</g>
<path d="M49.6878 46.9991L47.9015 45.9619C47.7059 45.8483 47.5607 45.6231 47.5039 45.2676L49.2901 46.3048C49.3469 46.6604 49.4921 46.8834 49.6878 46.9991Z" fill="#DAD9E8"/>
<mask id="mask13_187_1950" style="mask-type:luminance" maskUnits="userSpaceOnUse" x="47" y="45" width="3" height="2">
<path d="M49.6878 46.9991L47.9015 45.9619C47.7059 45.8483 47.5607 45.6231 47.5039 45.2676L49.2901 46.3048C49.3469 46.6604 49.4921 46.8834 49.6878 46.9991Z" fill="white"/>
</mask>
<g mask="url(#mask13_187_1950)">
<path d="M49.6857 46.9977L47.8994 45.9604C47.7038 45.8468 47.5607 45.6238 47.5039 45.2725L49.2901 46.3097C49.3469 46.661 49.49 46.8841 49.6857 46.9977Z" fill="#DAD9E8"/>
<path d="M49.2922 46.3111L47.506 45.2739C47.506 45.2718 47.506 45.2697 47.5039 45.2676L49.2901 46.3048C49.2901 46.3069 49.2922 46.309 49.2922 46.3111Z" fill="#DAD9E8"/>
</g>
<path d="M51.2253 28.3628L53.0115 29.4C52.4898 29.0971 51.7681 29.1349 50.9581 29.602L49.1719 28.5648C49.9798 28.0977 50.7035 28.0598 51.2253 28.3628Z" fill="#DAD9E8"/>
<mask id="mask14_187_1950" style="mask-type:luminance" maskUnits="userSpaceOnUse" x="49" y="28" width="5" height="2">
<path d="M51.2253 28.3628L53.0115 29.4C52.4898 29.0971 51.7681 29.1349 50.9581 29.602L49.1719 28.5648C49.9798 28.0977 50.7035 28.0598 51.2253 28.3628Z" fill="white"/>
</mask>
<g mask="url(#mask14_187_1950)">
<path d="M50.9581 29.602L49.1719 28.5648C49.9819 28.0977 50.7035 28.0598 51.2253 28.3628L53.0115 29.4C52.4898 29.0971 51.766 29.1349 50.9581 29.602Z" fill="#DAD9E8"/>
</g>
<path d="M49.2882 46.3052L47.502 45.2659L45.7852 34.376L47.5714 35.4153L49.2882 46.3052Z" fill="#DAD9E8"/>
<path d="M50.4112 29.9178L48.625 28.8784L49.1699 28.5649L50.9561 29.6022L50.4112 29.9178Z" fill="#EBEBF1"/>
<path d="M47.5722 35.4152L45.786 34.3779C45.4935 32.5244 46.8464 29.9071 48.6263 28.8804L50.4125 29.9176C48.6326 30.9443 47.2819 33.5616 47.5722 35.4152Z" fill="#EBEBF1"/>
<mask id="mask15_187_1950" style="mask-type:luminance" maskUnits="userSpaceOnUse" x="45" y="28" width="6" height="8">
<path d="M47.5722 35.4152L45.786 34.3779C45.4935 32.5244 46.8464 29.9071 48.6263 28.8804L50.4125 29.9176C48.6326 30.9443 47.2819 33.5616 47.5722 35.4152Z" fill="white"/>
</mask>
<g mask="url(#mask15_187_1950)">
<path d="M47.5719 35.415L45.7856 34.3777C45.6973 33.8139 45.7604 33.1806 45.9413 32.541L47.7276 33.5783C47.5466 34.2178 47.4835 34.8511 47.5719 35.415Z" fill="#EBEBF1"/>
<path d="M47.7276 33.5783L45.9414 32.5411C46.1455 31.8215 46.4968 31.0978 46.9513 30.4624L48.7375 31.4996C48.2852 32.135 47.9317 32.8609 47.7276 33.5783Z" fill="#EBEBF1"/>
<path d="M48.7394 31.4996L46.9531 30.4624C47.3003 29.9764 47.7042 29.543 48.146 29.2021L49.9323 30.2394C49.4905 30.5802 49.0865 31.0136 48.7394 31.4996Z" fill="#EBEBF1"/>
<path d="M49.9308 30.2397L48.1445 29.2024C48.3002 29.0825 48.4622 28.9731 48.6263 28.8784L50.4126 29.9157C50.2485 30.0124 50.0886 30.1197 49.9308 30.2397Z" fill="#EBEBF1"/>
</g>
<path d="M50.9581 29.6019C52.7381 28.5752 54.0993 29.625 53.8195 31.8089L52.17 44.6407C52.0396 45.6548 51.3873 46.5006 50.7351 46.8793C50.0808 47.2559 49.4265 47.1654 49.2918 46.3049L47.575 35.415C47.2826 33.5615 48.6354 30.9442 50.4153 29.9175L50.9581 29.6019Z" fill="#C4C3EC"/>
</g>
<defs>
<clipPath id="clip0_187_1950">
<rect width="76" height="77.6495" fill="white"/>
</clipPath>
</defs>
</svg>
