<svg width="63" height="74" viewBox="0 0 63 74" fill="none" xmlns="http://www.w3.org/2000/svg">
<g clip-path="url(#clip0_187_2635)">
<path d="M23.1879 45.8238C23.0538 45.8238 22.9069 45.7812 22.7579 45.694L20.0013 44.1017C19.9481 44.0698 19.9289 44.0017 19.9608 43.9485C19.9928 43.8952 20.0609 43.8761 20.1141 43.908L22.8707 45.5003C23.0581 45.6088 23.2283 45.6301 23.3497 45.5599C23.471 45.4896 23.5391 45.3321 23.5391 45.115V44.4508C23.5391 44.1507 23.6456 43.9229 23.8414 43.8122C24.0351 43.6994 24.2863 43.7207 24.546 43.8718L25.1207 44.2039C25.1739 44.2358 25.1931 44.3039 25.1612 44.3572C25.1292 44.4104 25.0611 44.4295 25.0079 44.3976L24.4332 44.0655C24.2458 43.957 24.0756 43.9357 23.9542 44.0059C23.8329 44.0762 23.7648 44.2337 23.7648 44.4508V45.115C23.7648 45.4151 23.6583 45.6429 23.4625 45.7536C23.3795 45.8004 23.2879 45.8238 23.1879 45.8238Z" fill="#42E8E0"/>
<path d="M22.1176 46.4412C21.9835 46.4412 21.8366 46.3965 21.6876 46.3113L18.931 44.7212C18.8778 44.6893 18.8586 44.6212 18.8905 44.5679C18.9225 44.5147 18.9906 44.4956 19.0438 44.5275L21.8004 46.1176C21.9877 46.2262 22.158 46.2475 22.2794 46.1772C22.4007 46.107 22.4688 45.9494 22.4688 45.7323V45.0682C22.4688 44.768 22.5753 44.5403 22.7711 44.4296C22.9648 44.3168 23.216 44.338 23.4757 44.4871L24.0504 44.8191C24.1036 44.8511 24.1228 44.9192 24.0909 44.9724C24.0589 45.0256 23.9908 45.0448 23.9376 45.0128L23.3629 44.6808C23.1755 44.5722 23.0052 44.5509 22.8839 44.6212C22.7626 44.6914 22.6945 44.8489 22.6945 45.066V45.7302C22.6945 46.0303 22.588 46.2581 22.3922 46.3688C22.3092 46.4178 22.2155 46.4412 22.1176 46.4412Z" fill="#42E8E0"/>
<path d="M21.0434 47.0587C20.9093 47.0587 20.7624 47.0161 20.6134 46.9288L17.8568 45.3366C17.8035 45.3047 17.7844 45.2365 17.8163 45.1833C17.8482 45.1301 17.9164 45.111 17.9696 45.1429L20.7262 46.7351C20.9135 46.8437 21.0838 46.865 21.2051 46.7947C21.3265 46.7245 21.3946 46.567 21.3946 46.3498V45.6857C21.3946 45.3855 21.501 45.1578 21.6969 45.0471C21.8906 44.9343 22.1418 44.9556 22.4015 45.1067L22.9762 45.4388C23.0294 45.4707 23.0486 45.5388 23.0166 45.592C22.9847 45.6452 22.9166 45.6644 22.8634 45.6325L22.2886 45.3004C22.1013 45.1918 21.931 45.1706 21.8097 45.2408C21.6884 45.311 21.6202 45.4686 21.6202 45.6857V46.3498C21.6202 46.65 21.5138 46.8777 21.318 46.9884C21.2349 47.0353 21.1413 47.0587 21.0434 47.0587Z" fill="#42E8E0"/>
<path d="M19.9731 47.6755C19.839 47.6755 19.6921 47.6308 19.5431 47.5457L16.7864 45.9556C16.7332 45.9236 16.7141 45.8555 16.746 45.8023C16.7779 45.7491 16.846 45.7299 16.8993 45.7619L19.6559 47.352C19.8432 47.4605 20.0135 47.4818 20.1348 47.4116C20.2562 47.3413 20.3243 47.1838 20.3243 46.9667V46.3026C20.3243 46.0024 20.4307 45.7746 20.6266 45.664C20.8203 45.5511 21.0714 45.5724 21.3311 45.7214L21.9059 46.0535C21.9591 46.0854 21.9783 46.1535 21.9463 46.2068C21.9144 46.26 21.8463 46.2791 21.7931 46.2472L21.2183 45.9151C21.031 45.8066 20.8607 45.7853 20.7394 45.8555C20.618 45.9258 20.5499 46.0833 20.5499 46.3004V46.9646C20.5499 47.2647 20.4435 47.4925 20.2477 47.6032C20.1646 47.65 20.0731 47.6755 19.9731 47.6755Z" fill="#42E8E0"/>
<path d="M18.8988 48.2911C18.7647 48.2911 18.6179 48.2485 18.4688 48.1613L15.7122 46.569C15.659 46.5371 15.6399 46.469 15.6718 46.4157C15.7037 46.3625 15.7718 46.3434 15.825 46.3753L18.5817 47.9675C18.769 48.0761 18.9393 48.0974 19.0606 48.0271C19.182 47.9569 19.2501 47.7994 19.2501 47.5823V46.9181C19.2501 46.618 19.3565 46.3902 19.5523 46.2795C19.746 46.1667 19.9972 46.188 20.2569 46.3391L20.8317 46.6712C20.8849 46.7031 20.904 46.7712 20.8721 46.8244C20.8402 46.8777 20.7721 46.8968 20.7188 46.8649L20.1441 46.5328C19.9568 46.4243 19.7865 46.403 19.6652 46.4732C19.5438 46.5435 19.4757 46.701 19.4757 46.9181V47.5823C19.4757 47.8824 19.3693 48.1102 19.1734 48.2209C19.0904 48.2677 18.9968 48.2911 18.8988 48.2911Z" fill="#42E8E0"/>
<path d="M17.8285 48.9084C17.6944 48.9084 17.5475 48.8659 17.3985 48.7786L14.6419 47.1864C14.5887 47.1544 14.5695 47.0863 14.6015 47.0331C14.6334 46.9799 14.7015 46.9607 14.7547 46.9927L17.5114 48.5849C17.6987 48.6935 17.869 48.7147 17.9903 48.6445C18.1116 48.5743 18.1798 48.4167 18.1798 48.1996V47.5355C18.1798 47.2353 18.2862 47.0076 18.482 46.8969C18.6757 46.784 18.9269 46.8053 19.1866 46.9543L19.7614 47.2864C19.8146 47.3183 19.8337 47.3865 19.8018 47.4397C19.7699 47.4929 19.7018 47.512 19.6485 47.4801L19.0738 47.148C18.8865 47.0395 18.7162 47.0182 18.5948 47.0884C18.4735 47.1587 18.4054 47.3162 18.4054 47.5333V48.1975C18.4054 48.4976 18.299 48.7254 18.1031 48.8361C18.0201 48.885 17.9286 48.9084 17.8285 48.9084Z" fill="#42E8E0"/>
<path d="M16.7582 49.5256C16.6241 49.5256 16.4772 49.4831 16.3282 49.3958L13.5716 47.8035C13.5184 47.7716 13.4992 47.7035 13.5312 47.6503C13.5631 47.5971 13.6312 47.5779 13.6844 47.6098L16.441 49.2021C16.6284 49.3106 16.7987 49.3319 16.92 49.2617C17.0413 49.1914 17.1094 49.0339 17.1094 48.8168V48.1526C17.1094 47.8525 17.2159 47.6247 17.4117 47.514C17.6054 47.4012 17.8566 47.4225 18.1163 47.5715L18.691 47.9036C18.7443 47.9355 18.7634 48.0036 18.7315 48.0569C18.6996 48.1101 18.6314 48.1292 18.5782 48.0973L18.0035 47.7652C17.8162 47.6567 17.6459 47.6354 17.5245 47.7056C17.4032 47.7759 17.3351 47.9334 17.3351 48.1505V48.8147C17.3351 49.1148 17.2286 49.3426 17.0328 49.4533C16.9498 49.5022 16.8561 49.5256 16.7582 49.5256Z" fill="#42E8E0"/>
<path d="M15.684 50.1409C15.5499 50.1409 15.403 50.0983 15.254 50.011L12.4974 48.4188C12.4442 48.3869 12.425 48.3187 12.4569 48.2655C12.4889 48.2123 12.557 48.1931 12.6102 48.2251L15.3668 49.8173C15.5541 49.9259 15.7244 49.9472 15.8458 49.8769C15.9671 49.8067 16.0352 49.6492 16.0352 49.432V48.7679C16.0352 48.4677 16.1417 48.24 16.3375 48.1293C16.5312 48.0165 16.7824 48.0377 17.0421 48.1868L17.6168 48.5188C17.67 48.5508 17.6892 48.6189 17.6573 48.6721C17.6253 48.7253 17.5572 48.7445 17.504 48.7125L16.9293 48.3805C16.7419 48.2719 16.5716 48.2506 16.4503 48.3209C16.329 48.3911 16.2609 48.5486 16.2609 48.7658V49.4299C16.2609 49.73 16.1544 49.9578 15.9586 50.0685C15.8756 50.1175 15.7819 50.1409 15.684 50.1409Z" fill="#42E8E0"/>
<path d="M14.6098 50.7581C14.4757 50.7581 14.3288 50.7155 14.1798 50.6282L11.4232 49.036C11.3699 49.004 11.3508 48.9359 11.3827 48.8827C11.4146 48.8295 11.4828 48.8103 11.536 48.8423L14.2926 50.4345C14.4799 50.5431 14.6502 50.5644 14.7716 50.4941C14.8929 50.4239 14.961 50.2663 14.961 50.0492V49.3851C14.961 49.0849 15.0674 48.8572 15.2633 48.7465C15.457 48.6337 15.7082 48.6549 15.9679 48.8039L16.5426 49.136C16.5958 49.1679 16.615 49.2361 16.583 49.2893C16.5511 49.3425 16.483 49.3617 16.4298 49.3297L15.855 48.9977C15.6677 48.8891 15.4974 48.8678 15.3761 48.938C15.2548 49.0083 15.1866 49.1658 15.1866 49.3829V50.0471C15.1866 50.3472 15.0802 50.575 14.8844 50.6857C14.8014 50.7346 14.7098 50.7581 14.6098 50.7581Z" fill="#42E8E0"/>
<path d="M13.5395 51.3752C13.4054 51.3752 13.2585 51.3327 13.1095 51.2454L10.3529 49.6532C10.2996 49.6212 10.2805 49.5531 10.3124 49.4999C10.3443 49.4467 10.4125 49.4275 10.4657 49.4595L13.2223 51.0517C13.4096 51.1603 13.5799 51.1815 13.7012 51.1113C13.8226 51.041 13.8907 50.8835 13.8907 50.6664V50.0023C13.8907 49.7021 13.9971 49.4743 14.193 49.3637C14.3867 49.2508 14.6379 49.2721 14.8976 49.4211L15.4723 49.7532C15.5255 49.7851 15.5447 49.8533 15.5127 49.9065C15.4808 49.9597 15.4127 49.9788 15.3595 49.9469L14.7847 49.6148C14.5974 49.5063 14.4271 49.485 14.3058 49.5552C14.1844 49.6255 14.1163 49.783 14.1163 50.0001V50.6643C14.1163 50.9644 14.0099 51.1922 13.8141 51.3029C13.731 51.3518 13.6374 51.3752 13.5395 51.3752Z" fill="#42E8E0"/>
<path d="M12.4692 51.9905C12.335 51.9905 12.1882 51.9458 12.0392 51.8606L9.28254 50.2705C9.22932 50.2386 9.21016 50.1705 9.24209 50.1173C9.27402 50.064 9.34214 50.0449 9.39536 50.0768L12.152 51.6669C12.3393 51.7755 12.5096 51.7968 12.6309 51.7265C12.7523 51.6563 12.8204 51.4988 12.8204 51.2816V50.6175C12.8204 50.3174 12.9268 50.0896 13.1227 49.9789C13.3164 49.8661 13.5675 49.8874 13.8272 50.0364L14.402 50.3684C14.4552 50.4004 14.4744 50.4685 14.4424 50.5217C14.4105 50.5749 14.3424 50.5941 14.2892 50.5621L13.7144 50.2301C13.5271 50.1215 13.3568 50.1002 13.2355 50.1705C13.1141 50.2407 13.046 50.3982 13.046 50.6154V51.2795C13.046 51.5796 12.9396 51.8074 12.7438 51.9181C12.6607 51.9671 12.5692 51.9905 12.4692 51.9905Z" fill="#42E8E0"/>
<path d="M11.3988 52.608C11.2647 52.608 11.1179 52.5654 10.9688 52.4781L8.21223 50.8859C8.15901 50.854 8.13985 50.7859 8.17178 50.7326C8.20371 50.6794 8.27183 50.6603 8.32505 50.6922L11.0817 52.2844C11.269 52.393 11.4393 52.4143 11.5606 52.344C11.682 52.2738 11.7501 52.1163 11.7501 51.8991V51.235C11.7501 50.9349 11.8565 50.7071 12.0523 50.5964C12.246 50.4836 12.4972 50.5049 12.7569 50.656L13.3317 50.9881C13.3849 51.02 13.404 51.0881 13.3721 51.1413C13.3402 51.1946 13.2721 51.2137 13.2188 51.1818L12.6441 50.8497C12.4568 50.7412 12.2865 50.7199 12.1652 50.7901C12.0438 50.8604 11.9757 51.0179 11.9757 51.235V51.8991C11.9757 52.1993 11.8693 52.4271 11.6734 52.5377C11.5904 52.5846 11.4968 52.608 11.3988 52.608Z" fill="#42E8E0"/>
<path d="M10.3246 53.2253C10.1905 53.2253 10.0436 53.1806 9.89463 53.0955L7.13801 51.5054C7.08479 51.4735 7.06563 51.4053 7.09756 51.3521C7.12949 51.2989 7.19761 51.2797 7.25083 51.3117L10.0074 52.9018C10.1948 53.0104 10.3651 53.0316 10.4864 52.9614C10.6077 52.8911 10.6758 52.7336 10.6758 52.5165V51.8524C10.6758 51.5522 10.7823 51.3244 10.9781 51.2138C11.1718 51.1009 11.423 51.1222 11.6827 51.2712L12.2574 51.6033C12.3107 51.6352 12.3298 51.7033 12.2979 51.7566C12.266 51.8098 12.1978 51.8289 12.1446 51.797L11.5699 51.4649C11.3826 51.3564 11.2123 51.3351 11.0909 51.4053C10.9696 51.4756 10.9015 51.6331 10.9015 51.8502V52.5144C10.9015 52.8145 10.7951 53.0423 10.5992 53.153C10.5162 53.2019 10.4247 53.2253 10.3246 53.2253Z" fill="#42E8E0"/>
<path d="M9.2504 53.8404C9.1163 53.8404 8.96942 53.7978 8.82041 53.7106L6.06379 52.1183C6.01057 52.0864 5.99141 52.0183 6.02334 51.9651C6.05527 51.9118 6.12339 51.8927 6.17661 51.9246L8.93323 53.5169C9.12055 53.6254 9.29085 53.6467 9.41218 53.5765C9.53351 53.5062 9.60163 53.3487 9.60163 53.1316V52.4674C9.60163 52.1673 9.70807 51.9395 9.9039 51.8288C10.0976 51.716 10.3488 51.7373 10.6085 51.8884L11.1832 52.2205C11.2364 52.2524 11.2556 52.3205 11.2237 52.3738C11.1917 52.427 11.1236 52.4461 11.0704 52.4142L10.4957 52.0821C10.3083 51.9736 10.1381 51.9523 10.0167 52.0225C9.89539 52.0928 9.82727 52.2503 9.82727 52.4674V53.1316C9.82727 53.4317 9.72084 53.6595 9.525 53.7702C9.44198 53.817 9.35045 53.8404 9.2504 53.8404Z" fill="#42E8E0"/>
<path d="M8.18009 54.4578C8.04598 54.4578 7.8991 54.4131 7.7501 54.3279L4.99348 52.7378C4.94026 52.7059 4.9211 52.6378 4.95303 52.5845C4.98496 52.5313 5.05308 52.5122 5.1063 52.5441L7.86292 54.1342C8.05024 54.2428 8.22053 54.2641 8.34187 54.1938C8.4632 54.1236 8.53132 53.966 8.53132 53.7489V53.0848C8.53132 52.7846 8.63775 52.5569 8.83359 52.4462C9.0273 52.3334 9.27848 52.3546 9.53818 52.5037L10.1129 52.8357C10.1661 52.8677 10.1853 52.9358 10.1534 52.989C10.1214 53.0422 10.0533 53.0614 10.0001 53.0294L9.42536 52.6974C9.23804 52.5888 9.06774 52.5675 8.94641 52.6378C8.82507 52.708 8.75696 52.8655 8.75696 53.0826V53.7468C8.75696 54.0469 8.65052 54.2747 8.45469 54.3854C8.37167 54.4344 8.27801 54.4578 8.18009 54.4578Z" fill="#42E8E0"/>
<path d="M7.10978 55.0748C6.97567 55.0748 6.82879 55.0322 6.67979 54.9449L3.92316 53.3527C3.86995 53.3208 3.85079 53.2527 3.88272 53.1994C3.91465 53.1462 3.98277 53.1271 4.03598 53.159L6.79261 54.7512C6.97993 54.8598 7.15022 54.8811 7.27155 54.8108C7.39289 54.7406 7.46101 54.5831 7.46101 54.3659V53.7018C7.46101 53.4017 7.56744 53.1739 7.76328 53.0632C7.95698 52.9504 8.20817 52.9717 8.46786 53.1228L9.0426 53.4549C9.09582 53.4868 9.11498 53.5549 9.08305 53.6081C9.05112 53.6614 8.983 53.6805 8.92979 53.6486L8.35505 53.3165C8.16772 53.208 7.99743 53.1867 7.8761 53.2569C7.75476 53.3272 7.68665 53.4847 7.68665 53.7018V54.3659C7.68665 54.6661 7.58021 54.8939 7.38437 55.0045C7.30136 55.0514 7.20982 55.0748 7.10978 55.0748Z" fill="#42E8E0"/>
<path d="M6.03556 55.6921C5.90145 55.6921 5.75457 55.6474 5.60557 55.5623L2.84895 53.9722C2.79573 53.9403 2.77657 53.8721 2.8085 53.8189C2.84043 53.7657 2.90855 53.7465 2.96177 53.7785L5.71839 55.3686C5.90571 55.4771 6.076 55.4984 6.19734 55.4282C6.31867 55.3579 6.38679 55.2004 6.38679 54.9833V54.3192C6.38679 54.019 6.49322 53.7912 6.68906 53.6806C6.88277 53.5677 7.13395 53.589 7.39365 53.738L7.96839 54.0701C8.0216 54.102 8.04076 54.1701 8.00883 54.2234C7.9769 54.2766 7.90878 54.2957 7.85557 54.2638L7.28083 53.9317C7.0935 53.8232 6.92321 53.8019 6.80188 53.8721C6.68054 53.9424 6.61243 54.0999 6.61243 54.317V54.9812C6.61243 55.2813 6.50599 55.5091 6.31016 55.6198C6.22714 55.6666 6.13348 55.6921 6.03556 55.6921Z" fill="#42E8E0"/>
<path d="M4.96525 56.3077C4.83114 56.3077 4.68426 56.2651 4.53525 56.1779L1.77863 54.5856C1.72542 54.5537 1.70626 54.4856 1.73819 54.4323C1.77012 54.3791 1.83824 54.36 1.89145 54.3919L4.64807 55.9841C4.8354 56.0927 5.00569 56.114 5.12702 56.0437C5.24836 55.9735 5.31647 55.816 5.31647 55.5989V54.9347C5.31647 54.6346 5.42291 54.4068 5.61875 54.2961C5.81245 54.1833 6.06364 54.2046 6.32333 54.3557L6.89807 54.6878C6.95129 54.7197 6.97045 54.7878 6.93852 54.8411C6.90659 54.8943 6.83847 54.9134 6.78525 54.8815L6.21051 54.5494C6.02319 54.4409 5.8529 54.4196 5.73156 54.4898C5.61023 54.5601 5.54211 54.7176 5.54211 54.9347V55.5989C5.54211 55.899 5.43568 56.1268 5.23984 56.2375C5.15683 56.2843 5.06316 56.3077 4.96525 56.3077Z" fill="#42E8E0"/>
<path d="M3.89103 56.9246C3.75692 56.9246 3.61004 56.882 3.46104 56.7947L0.704415 55.2025C0.651198 55.1705 0.63204 55.1024 0.66397 55.0492C0.6959 54.996 0.764017 54.9768 0.817234 55.0088L3.57386 56.601C3.76118 56.7096 3.93147 56.7309 4.0528 56.6606C4.17414 56.5904 4.24226 56.4328 4.24226 56.2157V55.5516C4.24226 55.2514 4.34869 55.0237 4.54453 54.913C4.73824 54.8002 4.98942 54.8214 5.24911 54.9704L5.82385 55.3025C5.87707 55.3344 5.89623 55.4026 5.8643 55.4558C5.83237 55.509 5.76425 55.5282 5.71104 55.4962L5.1363 55.1642C4.94897 55.0556 4.77868 55.0343 4.65735 55.1046C4.53601 55.1748 4.46789 55.3323 4.46789 55.5494V56.2136C4.46789 56.5137 4.36146 56.7415 4.16562 56.8522C4.08261 56.9011 3.99107 56.9246 3.89103 56.9246Z" fill="#42E8E0"/>
<path d="M2.82071 57.5422C2.68661 57.5422 2.53973 57.4997 2.39072 57.4124L-0.365898 55.8202C-0.419115 55.7882 -0.438273 55.7201 -0.406343 55.6669C-0.374413 55.6137 -0.306295 55.5945 -0.253079 55.6264L2.50354 57.2187C2.69087 57.3272 2.86116 57.3485 2.98249 57.2783C3.10383 57.208 3.17194 57.0505 3.17194 56.8334V56.1692C3.17194 55.8691 3.27838 55.6413 3.47421 55.5306C3.66792 55.4178 3.91911 55.4391 4.1788 55.5881L4.75354 55.9202C4.80676 55.9521 4.82592 56.0202 4.79399 56.0735C4.76206 56.1267 4.69394 56.1458 4.64072 56.1139L4.06598 55.7818C3.87866 55.6733 3.70837 55.652 3.58703 55.7222C3.4657 55.7925 3.39758 55.95 3.39758 56.1671V56.8313C3.39758 57.1314 3.29115 57.3592 3.09531 57.4699C3.01229 57.5188 2.91863 57.5422 2.82071 57.5422Z" fill="#42E8E0"/>
<path d="M27.5826 45.8751C27.4825 45.8751 27.391 45.8517 27.308 45.8048C27.1142 45.692 27.0057 45.4664 27.0057 45.1662V44.5021C27.0057 44.285 26.9376 44.1274 26.8162 44.0572C26.6949 43.9869 26.5246 44.0082 26.3373 44.1168L25.7625 44.4489C25.7072 44.4808 25.6391 44.4616 25.6093 44.4084C25.5774 44.3552 25.5965 44.285 25.6497 44.2552L26.2245 43.9231C26.4842 43.7741 26.7353 43.7528 26.9291 43.8656C27.1228 43.9784 27.2313 44.2041 27.2313 44.5042V45.1684C27.2313 45.3855 27.2994 45.543 27.4208 45.6132C27.5421 45.6835 27.7124 45.6622 27.8997 45.5536L30.6563 43.9614C30.7117 43.9295 30.7798 43.9486 30.8096 44.0018C30.8415 44.0551 30.8224 44.1253 30.7692 44.1551L28.0125 45.7474C27.8635 45.8325 27.7167 45.8751 27.5826 45.8751Z" fill="#42E8E0"/>
<path d="M28.6529 46.4923C28.5549 46.4923 28.4613 46.4688 28.3783 46.422C28.1846 46.3092 28.076 46.0836 28.076 45.7834V45.1193C28.076 44.9021 28.0079 44.7446 27.8865 44.6744C27.7631 44.6041 27.5949 44.6254 27.4076 44.734L26.8329 45.0661C26.7775 45.0959 26.7094 45.0788 26.6796 45.0256C26.6477 44.9724 26.6668 44.9021 26.72 44.8723L27.2948 44.5403C27.5545 44.3913 27.8057 44.37 27.9994 44.4828C28.1931 44.5956 28.3016 44.8213 28.3016 45.1214V45.7855C28.3016 46.0027 28.3698 46.1602 28.4911 46.2304C28.6124 46.3007 28.7827 46.2794 28.97 46.1708L31.7267 44.5786C31.7799 44.5467 31.848 44.5658 31.8799 44.619C31.9119 44.6722 31.8927 44.7425 31.8395 44.7723L29.0829 46.3624C28.9338 46.4476 28.787 46.4923 28.6529 46.4923Z" fill="#42E8E0"/>
<path d="M29.7271 47.1075C29.6292 47.1075 29.5355 47.0841 29.4525 47.0372C29.2588 46.9244 29.1502 46.6988 29.1502 46.3986V45.7345C29.1502 45.5174 29.0821 45.3599 28.9608 45.2896C28.8394 45.2194 28.6691 45.2407 28.4818 45.3492L27.9071 45.6813C27.8517 45.7132 27.7836 45.6941 27.7538 45.6408C27.7219 45.5876 27.741 45.5174 27.7943 45.4876L28.369 45.1555C28.6287 45.0065 28.8799 44.9852 29.0736 45.098C29.2673 45.2109 29.3759 45.4365 29.3759 45.7366V46.4008C29.3759 46.6179 29.444 46.7754 29.5653 46.8457C29.6866 46.9159 29.8569 46.8946 30.0443 46.7861L32.8009 45.1938C32.8562 45.1619 32.9243 45.1811 32.9541 45.2343C32.9861 45.2875 32.9669 45.3577 32.9137 45.3875L30.1571 46.9798C30.0081 47.0649 29.8612 47.1075 29.7271 47.1075Z" fill="#42E8E0"/>
<path d="M30.7956 47.7251C30.6956 47.7251 30.604 47.7017 30.521 47.6548C30.3273 47.542 30.2188 47.3164 30.2188 47.0162V46.3521C30.2188 46.135 30.1506 45.9775 30.0293 45.9072C29.908 45.837 29.7377 45.8582 29.5504 45.9668L28.9735 46.2989C28.9203 46.3287 28.8521 46.3117 28.8202 46.2584C28.7883 46.2052 28.8074 46.135 28.8607 46.1052L29.4354 45.7731C29.6951 45.6241 29.9463 45.6028 30.14 45.7135C30.3337 45.8263 30.4423 46.052 30.4423 46.3521V47.0162C30.4423 47.2334 30.5104 47.3909 30.6317 47.4611C30.753 47.5314 30.9255 47.5101 31.1107 47.4015L33.8673 45.8093C33.9205 45.7774 33.9907 45.7965 34.0205 45.8497C34.0525 45.903 34.0333 45.9732 33.9801 46.003L31.2235 47.5931C31.0766 47.6825 30.9297 47.7251 30.7956 47.7251Z" fill="#42E8E0"/>
<path d="M31.8716 48.3423C31.7716 48.3423 31.68 48.3189 31.597 48.272C31.4033 48.1592 31.2947 47.9336 31.2947 47.6334V46.9693C31.2947 46.7522 31.2266 46.5946 31.1053 46.5244C30.984 46.4542 30.8115 46.4754 30.6263 46.584L30.0516 46.9161C29.9963 46.948 29.9281 46.9288 29.8983 46.8756C29.8664 46.8224 29.8856 46.7522 29.9388 46.7224L30.5135 46.3903C30.7732 46.2413 31.0244 46.22 31.2181 46.3307C31.4118 46.4435 31.5204 46.6691 31.5204 46.9693V47.6334C31.5204 47.8506 31.5885 48.0081 31.7098 48.0783C31.8312 48.1486 32.0015 48.1273 32.1888 48.0187L34.9454 46.4265C35.0008 46.3945 35.0689 46.4137 35.0987 46.4669C35.1306 46.5201 35.1114 46.5904 35.0582 46.6202L32.3016 48.2124C32.1526 48.2976 32.0057 48.3423 31.8716 48.3423Z" fill="#42E8E0"/>
<path d="M32.9419 48.9595C32.844 48.9595 32.7503 48.9361 32.6673 48.8893C32.4736 48.7765 32.3651 48.5508 32.3651 48.2507V47.5866C32.3651 47.3694 32.2969 47.2119 32.1756 47.1417C32.0543 47.0714 31.884 47.0927 31.6967 47.2013L31.1219 47.5333C31.0666 47.5653 30.9985 47.5461 30.9687 47.4929C30.9367 47.4397 30.9559 47.3694 31.0091 47.3396L31.5838 47.0076C31.8435 46.8586 32.0947 46.8373 32.2884 46.9501C32.4821 47.0629 32.5907 47.2885 32.5907 47.5887V48.2528C32.5907 48.4699 32.6588 48.6275 32.7802 48.6977C32.9015 48.768 33.0718 48.7467 33.2591 48.6381L36.0157 47.0459C36.0689 47.0139 36.1371 47.0331 36.169 47.0863C36.2009 47.1395 36.1818 47.2098 36.1285 47.2396L33.3719 48.8297C33.2229 48.9148 33.0782 48.9595 32.9419 48.9595Z" fill="#42E8E0"/>
<path d="M34.0144 49.5747C33.9143 49.5747 33.8228 49.5513 33.7398 49.5045C33.5461 49.3916 33.4375 49.166 33.4375 48.8659V48.2017C33.4375 47.9846 33.3694 47.8271 33.248 47.7568C33.1267 47.6866 32.9564 47.7079 32.7691 47.8164L32.1922 48.1485C32.139 48.1804 32.0688 48.1613 32.039 48.108C32.007 48.0548 32.0262 47.9846 32.0794 47.9548L32.6542 47.6227C32.9139 47.4737 33.165 47.4524 33.3587 47.5631C33.5525 47.6759 33.661 47.9016 33.661 48.2017V48.8659C33.661 49.083 33.7291 49.2405 33.8505 49.3107C33.9718 49.381 34.1442 49.3597 34.3294 49.2511L37.086 47.6589C37.1414 47.627 37.2095 47.6461 37.2393 47.6993C37.2712 47.7526 37.2521 47.8228 37.1989 47.8526L34.4422 49.4448C34.2954 49.5321 34.1485 49.5747 34.0144 49.5747Z" fill="#42E8E0"/>
<path d="M35.0865 50.192C34.9885 50.192 34.8949 50.1686 34.8119 50.1217C34.6182 50.0089 34.5096 49.7833 34.5096 49.4831V48.819C34.5096 48.6019 34.4415 48.4443 34.3201 48.3741C34.1967 48.3038 34.0285 48.3251 33.8412 48.4337L33.2665 48.7658C33.2111 48.7977 33.143 48.7785 33.1132 48.7253C33.0813 48.6721 33.1004 48.6019 33.1536 48.572L33.7284 48.24C33.9881 48.091 34.2393 48.0697 34.433 48.1825C34.6267 48.2953 34.7352 48.521 34.7352 48.8211V49.4852C34.7352 49.7024 34.8033 49.8599 34.9247 49.9301C35.046 50.0004 35.2163 49.9791 35.4036 49.8705L38.1603 48.2804C38.2135 48.2485 38.2837 48.2677 38.3135 48.3209C38.3454 48.3741 38.3263 48.4443 38.2731 48.4741L35.5165 50.0642C35.3674 50.1473 35.2206 50.192 35.0865 50.192Z" fill="#42E8E0"/>
<path d="M36.155 50.8096C36.0549 50.8096 35.9634 50.7861 35.8804 50.7393C35.6867 50.6265 35.5781 50.4009 35.5781 50.1007V49.4366C35.5781 49.2194 35.51 49.0619 35.3887 48.9917C35.2673 48.9214 35.0949 48.9427 34.9097 49.0513L34.3329 49.3834C34.2796 49.4153 34.2094 49.3961 34.1796 49.3429C34.1477 49.2897 34.1668 49.2194 34.22 49.1896L34.7948 48.8576C35.0545 48.7086 35.3057 48.6873 35.4994 48.798C35.6931 48.9108 35.8016 49.1364 35.8016 49.4366V50.1007C35.8016 50.3178 35.8698 50.4754 35.9911 50.5456C36.1124 50.6159 36.2827 50.5946 36.47 50.486L39.2267 48.8938C39.282 48.8618 39.3501 48.881 39.3799 48.9342C39.4119 48.9874 39.3927 49.0577 39.3395 49.0875L36.5829 50.6797C36.436 50.7649 36.2912 50.8096 36.155 50.8096Z" fill="#42E8E0"/>
<path d="M37.2292 51.4245C37.1313 51.4245 37.0376 51.4011 36.9546 51.3521C36.7609 51.2393 36.6523 51.0137 36.6523 50.7135V50.0494C36.6523 49.8322 36.5842 49.6747 36.4629 49.6045C36.3416 49.5342 36.1713 49.5555 35.9839 49.6641L35.4071 49.9961C35.3539 50.0281 35.2836 50.0089 35.2538 49.9557C35.2219 49.9025 35.241 49.8322 35.2943 49.8024L35.8711 49.4704C36.1308 49.3214 36.3799 49.3001 36.5757 49.4108C36.7694 49.5236 36.878 49.7492 36.878 50.0494V50.7135C36.878 50.9306 36.9461 51.0882 37.0674 51.1584C37.1888 51.2286 37.3591 51.2074 37.5464 51.0988L40.303 49.5066C40.3562 49.4746 40.4265 49.4938 40.4563 49.547C40.4882 49.6002 40.469 49.6705 40.4158 49.7003L37.6592 51.2904C37.5102 51.3819 37.3633 51.4245 37.2292 51.4245Z" fill="#42E8E0"/>
<path d="M38.3034 52.0417C38.2055 52.0417 38.1119 52.0183 38.0288 51.9693C37.8351 51.8565 37.7266 51.6308 37.7266 51.3307V50.6666C37.7266 50.4494 37.6584 50.2919 37.5371 50.2217C37.4158 50.1514 37.2455 50.1727 37.0582 50.2813L36.4813 50.6133C36.4281 50.6453 36.3578 50.6261 36.328 50.5729C36.2961 50.5197 36.3153 50.4494 36.3685 50.4196L36.9432 50.0876C37.2029 49.9385 37.4541 49.9173 37.6478 50.028C37.8415 50.1408 37.9501 50.3664 37.9501 50.6666V51.3307C37.9501 51.5478 38.0182 51.7053 38.1395 51.7756C38.2609 51.8458 38.4312 51.8245 38.6185 51.716L41.3751 50.1237C41.4304 50.0918 41.4986 50.111 41.5284 50.1642C41.5603 50.2174 41.5411 50.2877 41.4879 50.3175L38.7313 51.9097C38.5823 51.9991 38.4375 52.0417 38.3034 52.0417Z" fill="#42E8E0"/>
<path d="M39.3716 52.6593C39.2716 52.6593 39.18 52.6358 39.097 52.589C38.9033 52.4762 38.7947 52.2505 38.7947 51.9504V51.2863C38.7947 51.0691 38.7266 50.9116 38.6053 50.8414C38.484 50.7711 38.3137 50.7924 38.1263 50.901L37.5516 51.233C37.4963 51.2628 37.4281 51.2458 37.3983 51.1926C37.3664 51.1394 37.3856 51.0691 37.4388 51.0393L38.0135 50.7073C38.2732 50.5583 38.5244 50.537 38.7181 50.6498C38.9118 50.7626 39.0204 50.9882 39.0204 51.2884V51.9525C39.0204 52.1697 39.0885 52.3272 39.2098 52.3974C39.3312 52.4677 39.5015 52.4464 39.6888 52.3378L42.4454 50.7456C42.5008 50.7137 42.5689 50.7328 42.5987 50.786C42.6306 50.8392 42.6114 50.9095 42.5582 50.9393L39.8016 52.5315C39.6526 52.6145 39.5057 52.6593 39.3716 52.6593Z" fill="#42E8E0"/>
<path d="M40.4458 53.2742C40.3458 53.2742 40.2543 53.2508 40.1712 53.2018C39.9775 53.089 39.869 52.8633 39.869 52.5632V51.8991C39.869 51.6819 39.8009 51.5244 39.6795 51.4542C39.5582 51.3839 39.3858 51.4052 39.2006 51.5138L38.6258 51.8458C38.5705 51.8778 38.5024 51.8586 38.4726 51.8054C38.4406 51.7522 38.4598 51.6819 38.513 51.6521L39.0877 51.3201C39.3474 51.1711 39.5986 51.1498 39.7923 51.2626C39.986 51.3754 40.0946 51.601 40.0946 51.9012V52.5653C40.0946 52.7825 40.1627 52.94 40.2841 53.0102C40.4054 53.0805 40.5778 53.0592 40.763 52.9506L43.5196 51.3584C43.575 51.3264 43.6431 51.3456 43.6729 51.3988C43.7048 51.452 43.6857 51.5223 43.6324 51.5521L40.8758 53.1443C40.7268 53.2316 40.5799 53.2742 40.4458 53.2742Z" fill="#42E8E0"/>
<path d="M41.5161 53.8918C41.4161 53.8918 41.3246 53.8684 41.2415 53.8195C41.0478 53.7067 40.9393 53.481 40.9393 53.1809V52.5167C40.9393 52.2996 40.8712 52.1421 40.7498 52.0718C40.6285 52.0016 40.4582 52.0229 40.2709 52.1314L39.6961 52.4635C39.6408 52.4954 39.5727 52.4763 39.5429 52.4231C39.5109 52.3699 39.5301 52.2996 39.5833 52.2698L40.1581 51.9377C40.4178 51.7887 40.6689 51.7674 40.8626 51.8803C41.0564 51.9931 41.1649 52.2187 41.1649 52.5189V53.183C41.1649 53.4001 41.233 53.5576 41.3544 53.6279C41.4757 53.6981 41.646 53.6769 41.8333 53.5683L44.5899 51.976C44.6432 51.9441 44.7134 51.9633 44.7432 52.0165C44.7751 52.0697 44.756 52.14 44.7028 52.1698L41.9461 53.762C41.7971 53.8493 41.6503 53.8918 41.5161 53.8918Z" fill="#42E8E0"/>
<path d="M42.5904 54.509C42.4903 54.509 42.3988 54.4856 42.3158 54.4367C42.1221 54.3238 42.0135 54.0982 42.0135 53.7981V53.1339C42.0135 52.9168 41.9454 52.7593 41.824 52.689C41.7006 52.6188 41.5324 52.6401 41.3451 52.7486L40.7704 53.0807C40.715 53.1105 40.6469 53.0935 40.6171 53.0403C40.5852 52.987 40.6043 52.9168 40.6575 52.887L41.2323 52.5549C41.492 52.4059 41.7432 52.3846 41.9369 52.4974C42.1306 52.6103 42.2391 52.8359 42.2391 53.136V53.8002C42.2391 54.0173 42.3073 54.1748 42.4286 54.2451C42.5499 54.3153 42.7223 54.294 42.9075 54.1855L45.6642 52.5932C45.7195 52.5613 45.7876 52.5805 45.8174 52.6337C45.8494 52.6869 45.8302 52.7571 45.777 52.7869L43.0204 54.3792C42.8714 54.4643 42.7245 54.509 42.5904 54.509Z" fill="#42E8E0"/>
<path d="M43.6607 55.1241C43.5628 55.1241 43.4691 55.1007 43.3861 55.0538C43.1924 54.941 43.0838 54.7154 43.0838 54.4153V53.7511C43.0838 53.534 43.0157 53.3765 42.8944 53.3062C42.773 53.236 42.6027 53.2573 42.4154 53.3658L41.8407 53.6979C41.7853 53.7298 41.7172 53.7107 41.6874 53.6574C41.6555 53.6042 41.6746 53.534 41.7279 53.5042L42.3026 53.1721C42.5623 53.0231 42.8135 53.0018 43.0072 53.1146C43.2009 53.2275 43.3094 53.4531 43.3094 53.7532V54.4174C43.3094 54.6345 43.3776 54.792 43.4989 54.8623C43.6202 54.9325 43.7905 54.9112 43.9778 54.8027L46.7345 53.2104C46.7898 53.1785 46.8579 53.1977 46.8877 53.2509C46.9197 53.3041 46.9005 53.3743 46.8473 53.4041L44.0907 54.9964C43.9395 55.0815 43.7948 55.1241 43.6607 55.1241Z" fill="#42E8E0"/>
<path d="M44.7331 55.7412C44.6331 55.7412 44.5415 55.7178 44.4585 55.671C44.2648 55.5581 44.1563 55.3325 44.1563 55.0324V54.3682C44.1563 54.1511 44.0881 53.9936 43.9668 53.9233C43.8455 53.8531 43.6752 53.8744 43.4879 53.9829L42.911 54.315C42.8578 54.3448 42.7896 54.3278 42.7577 54.2746C42.7258 54.2213 42.7449 54.1511 42.7982 54.1213L43.375 53.7892C43.6347 53.6402 43.8859 53.6189 44.0796 53.7296C44.2733 53.8424 44.3819 54.0681 44.3819 54.3682V55.0324C44.3819 55.2495 44.45 55.407 44.5713 55.4772C44.6927 55.5475 44.8651 55.5262 45.0503 55.4176L47.8069 53.8254C47.8601 53.7935 47.9282 53.8126 47.9602 53.8658C47.9921 53.9191 47.973 53.9893 47.9197 54.0191L45.1631 55.6092C45.0141 55.6986 44.8672 55.7412 44.7331 55.7412Z" fill="#42E8E0"/>
<path d="M45.8052 56.3586C45.7073 56.3586 45.6136 56.3352 45.5306 56.2862C45.3369 56.1734 45.2283 55.9477 45.2283 55.6476V54.9834C45.2283 54.7663 45.1602 54.6088 45.0389 54.5386C44.9176 54.4683 44.7451 54.4896 44.5599 54.5982L43.9852 54.9302C43.9299 54.9622 43.8617 54.943 43.8319 54.8898C43.8 54.8366 43.8192 54.7663 43.8724 54.7365L44.4471 54.4044C44.7068 54.2554 44.958 54.2342 45.1517 54.3448C45.3454 54.4577 45.454 54.6833 45.454 54.9834V55.6476C45.454 55.8647 45.5221 56.0222 45.6434 56.0925C45.7648 56.1627 45.9351 56.1414 46.1224 56.0329L48.879 54.4406C48.9322 54.4087 49.0025 54.4279 49.0323 54.4811C49.0642 54.5343 49.045 54.6045 48.9918 54.6343L46.2352 56.2287C46.0862 56.3139 45.9393 56.3586 45.8052 56.3586Z" fill="#42E8E0"/>
<path d="M46.8755 56.9761C46.7776 56.9761 46.6839 56.9527 46.6009 56.9059C46.4072 56.7931 46.2987 56.5674 46.2987 56.2673V55.6032C46.2987 55.386 46.2305 55.2285 46.1092 55.1583C45.9879 55.088 45.8176 55.1093 45.6303 55.2179L45.0555 55.5499C45.0002 55.5819 44.9321 55.5627 44.9023 55.5095C44.8703 55.4563 44.8895 55.386 44.9427 55.3562L45.5174 55.0242C45.7771 54.8752 46.0283 54.8539 46.222 54.9667C46.4157 55.0795 46.5243 55.3051 46.5243 55.6053V56.2694C46.5243 56.4866 46.5924 56.6441 46.7137 56.7143C46.8351 56.7846 47.0054 56.7633 47.1927 56.6547L49.9493 55.0625C50.0025 55.0305 50.0728 55.0497 50.1026 55.1029C50.1345 55.1561 50.1154 55.2264 50.0621 55.2562L47.3055 56.8463C47.1565 56.9314 47.0096 56.9761 46.8755 56.9761Z" fill="#42E8E0"/>
<path d="M47.9497 57.5915C47.8497 57.5915 47.7582 57.5681 47.6751 57.5212C47.4814 57.4084 47.3729 57.1828 47.3729 56.8826V56.2185C47.3729 56.0014 47.3048 55.8438 47.1834 55.7736C47.0621 55.7033 46.8918 55.7246 46.7045 55.8332L46.1297 56.1653C46.0744 56.1972 46.0063 56.178 45.9765 56.1248C45.9445 56.0716 45.9637 56.0014 46.0169 55.9716L46.5917 55.6395C46.8514 55.4884 47.1025 55.4692 47.2962 55.5799C47.49 55.6927 47.5985 55.9183 47.5985 56.2185V56.8826C47.5985 57.0997 47.6666 57.2573 47.788 57.3275C47.9093 57.3978 48.0796 57.3765 48.2669 57.2679L51.0235 55.6757C51.0789 55.6437 51.147 55.6629 51.1768 55.7161C51.2087 55.7693 51.1896 55.8396 51.1364 55.8694L48.3797 57.4616C48.2307 57.5489 48.0838 57.5915 47.9497 57.5915Z" fill="#42E8E0"/>
<path d="M46.5711 56.3032V58.7512L25.3929 70.9782L4.21484 58.7512V56.3032H46.5711Z" fill="url(#paint0_linear_187_2635)"/>
<path d="M25.3929 68.5324L4.21484 56.3032L25.3929 44.0762L46.5711 56.3032L25.3929 68.5324Z" fill="#BCBEFF"/>
<path d="M25.3929 68.2451L4.46177 56.1606L4.21484 56.3033L25.3929 68.5325L46.5711 56.3033L46.3241 56.1606L25.3929 68.2451Z" fill="white"/>
<path d="M25.394 65.7119L9.10547 56.3053L25.394 46.9009L41.6826 56.3075L25.394 65.7119Z" fill="#0F054C"/>
<path opacity="0.5" d="M25.3922 65.7119L9.10156 56.3075L25.3922 46.9009L41.6829 56.3075L25.3922 65.7119Z" fill="url(#paint1_linear_187_2635)"/>
<path opacity="0.5" d="M25.3906 44.5298L41.6813 53.9364V56.3077L25.3906 46.9011V44.5298Z" fill="url(#paint2_linear_187_2635)"/>
<path opacity="0.5" d="M25.3922 46.9011L9.10156 56.3056V53.9342L25.3922 44.5298V46.9011Z" fill="url(#paint3_linear_187_2635)"/>
<path opacity="0.5" d="M25.3922 63.3408L9.10156 53.9342L25.3922 44.5298L41.6829 53.9364L25.3922 63.3408Z" fill="url(#paint4_linear_187_2635)"/>
<path opacity="0.5" d="M25.3923 57.6936L18.8828 53.9343L25.3923 50.1772L31.9017 53.9343L25.3923 57.6936Z" fill="#42E8E0"/>
<path opacity="0.5" d="M25.3923 50.5221L31.6016 54.1089L31.9017 53.9343L25.3923 50.1772L18.8828 53.9343L19.183 54.1089L25.3923 50.5221Z" fill="#42E8E0"/>
<path opacity="0.5" d="M25.3906 63.341V65.7123L41.6813 56.3079V53.9365L25.3906 63.341Z" fill="url(#paint5_linear_187_2635)"/>
<path opacity="0.5" d="M9.10156 53.9341V56.3054L25.3922 65.712V63.3407L9.10156 53.9341Z" fill="url(#paint6_linear_187_2635)"/>
<path opacity="0.8" d="M25.3922 63.0812L9.3272 53.8066L9.10156 53.9344L25.3922 63.3409L41.6829 53.9365L41.4573 53.8066L25.3922 63.0812Z" fill="#42E8E0"/>
<path d="M30.7117 73.9309C30.6925 73.9309 30.6734 73.9266 30.6563 73.916L27.8997 72.3259C27.3995 72.0364 27.0057 71.3573 27.0057 70.7784V70.1142C27.0057 69.6161 26.6545 69.0094 26.2245 68.7625L25.6497 68.4304C25.5965 68.3985 25.5774 68.3304 25.6093 68.2772C25.6412 68.224 25.7093 68.2048 25.7625 68.2367L26.3373 68.5688C26.8375 68.8583 27.2313 69.5373 27.2313 70.1163V70.7805C27.2313 71.2786 27.5826 71.8853 28.0125 72.1322L30.7692 73.7223C30.8224 73.7542 30.8415 73.8223 30.8096 73.8756C30.7883 73.9096 30.75 73.9309 30.7117 73.9309Z" fill="#42E8E0"/>
<path d="M31.7859 73.3134C31.7668 73.3134 31.7476 73.3091 31.7306 73.2985L28.9739 71.7063C28.4737 71.4168 28.0799 70.7377 28.0799 70.1587V69.4946C28.0799 68.9965 27.7287 68.3898 27.2987 68.1429L26.7239 67.8108C26.6707 67.7789 26.6516 67.7108 26.6835 67.6575C26.7154 67.6043 26.7814 67.5852 26.8368 67.6171L27.4115 67.9492C27.9117 68.2387 28.3055 68.9177 28.3055 69.4967V70.1609C28.3055 70.659 28.6568 71.2656 29.0868 71.5126L31.8434 73.1048C31.8966 73.1367 31.9158 73.2048 31.8838 73.2581C31.8625 73.2921 31.8242 73.3134 31.7859 73.3134Z" fill="#42E8E0"/>
<path d="M32.8562 72.6964C32.8371 72.6964 32.8179 72.6921 32.8009 72.6815L30.0443 71.0892C29.544 70.7998 29.1502 70.1207 29.1502 69.5417V68.8776C29.1502 68.3795 28.799 67.7728 28.369 67.5237L27.7943 67.1917C27.741 67.1597 27.7219 67.0916 27.7538 67.0384C27.7857 66.9852 27.8539 66.966 27.9071 66.998L28.4818 67.33C28.9821 67.6195 29.3759 68.2986 29.3759 68.8776V69.5417C29.3759 70.0398 29.7271 70.6465 30.1571 70.8934L32.9137 72.4857C32.9669 72.5176 32.9861 72.5857 32.9541 72.6389C32.9329 72.6751 32.8967 72.6964 32.8562 72.6964Z" fill="#42E8E0"/>
<path d="M33.9265 72.0771C33.9074 72.0771 33.8882 72.0728 33.8712 72.0622L31.1146 70.4699C30.6143 70.1804 30.2205 69.5014 30.2205 68.9224V68.2583C30.2205 67.7601 29.8693 67.1535 29.4393 66.9065L28.8646 66.5745C28.8114 66.5425 28.7922 66.4744 28.8241 66.4212C28.8561 66.368 28.9242 66.3488 28.9774 66.3808L29.5543 66.7128C30.0545 67.0023 30.4483 67.6814 30.4483 68.2604V68.9245C30.4483 69.4226 30.7995 70.0293 31.2295 70.2762L33.9861 71.8685C34.0394 71.9004 34.0585 71.9685 34.0266 72.0217C34.0032 72.0579 33.9649 72.0771 33.9265 72.0771Z" fill="#42E8E0"/>
<path d="M35.0008 71.4594C34.9816 71.4594 34.9624 71.4551 34.9454 71.4445L32.1888 69.8544C31.6886 69.5649 31.2947 68.8858 31.2947 68.3068V67.6427C31.2947 67.1446 30.9435 66.5379 30.5135 66.2889L29.9388 65.9568C29.8856 65.9249 29.8664 65.8568 29.8983 65.8035C29.9303 65.7503 29.9984 65.7312 30.0516 65.7631L30.6263 66.0952C31.1266 66.3847 31.5204 67.0637 31.5204 67.6427V68.3068C31.5204 68.805 31.8716 69.4116 32.3016 69.6585L35.0582 71.2508C35.1114 71.2827 35.1306 71.3508 35.0987 71.4041C35.0774 71.4402 35.0412 71.4594 35.0008 71.4594Z" fill="#42E8E0"/>
<path d="M36.0732 70.842C36.054 70.842 36.0349 70.8378 36.0179 70.8271L33.2612 69.237C32.761 68.9475 32.3672 68.2685 32.3672 67.6895V67.0253C32.3672 66.5272 32.016 65.9206 31.586 65.6736L31.0091 65.3416C30.9559 65.3096 30.9367 65.2415 30.9687 65.1883C31.0006 65.1351 31.0666 65.1159 31.1219 65.1479L31.6967 65.4799C32.1969 65.7694 32.5907 66.4485 32.5907 67.0275V67.6916C32.5907 68.1897 32.9419 68.7964 33.3719 69.0454L36.1285 70.6356C36.1818 70.6675 36.2009 70.7356 36.169 70.7888C36.1498 70.8207 36.1115 70.842 36.0732 70.842Z" fill="#42E8E0"/>
<path d="M37.1435 70.225C37.1244 70.225 37.1052 70.2208 37.0882 70.2101L34.3315 68.6179C33.8313 68.3284 33.4375 67.6493 33.4375 67.0703V66.4062C33.4375 65.9081 33.0863 65.3014 32.6563 65.0545L32.0794 64.7224C32.0262 64.6905 32.007 64.6224 32.039 64.5692C32.0709 64.5159 32.1369 64.4968 32.1922 64.5287L32.767 64.8608C33.2672 65.1503 33.661 65.8293 33.661 66.4083V67.0725C33.661 67.5706 34.0122 68.1772 34.4422 68.4242L37.1989 70.0164C37.2521 70.0483 37.2712 70.1165 37.2393 70.1697C37.2201 70.2037 37.1818 70.225 37.1435 70.225Z" fill="#42E8E0"/>
<path d="M38.2156 69.6075C38.1964 69.6075 38.1773 69.6033 38.1603 69.5926L35.4036 68.0004C34.9034 67.7109 34.5096 67.0318 34.5096 66.4528V65.7887C34.5096 65.2906 34.1584 64.6839 33.7284 64.4349L33.1536 64.1028C33.1004 64.0709 33.0813 64.0027 33.1132 63.9495C33.1451 63.8963 33.2111 63.8772 33.2665 63.9091L33.8412 64.2412C34.3414 64.5307 34.7352 65.2097 34.7352 65.7887V66.4528C34.7352 66.9509 35.0865 67.5576 35.5165 67.8045L38.2731 69.3968C38.3263 69.4287 38.3454 69.4968 38.3135 69.5501C38.2922 69.5862 38.2539 69.6075 38.2156 69.6075Z" fill="#42E8E0"/>
<path d="M39.2898 68.988C39.2707 68.988 39.2515 68.9838 39.2345 68.9731L36.4778 67.383C35.9776 67.0935 35.5838 66.4145 35.5838 65.8355V65.1713C35.5838 64.6732 35.2326 64.0666 34.8026 63.8196L34.2279 63.4876C34.1746 63.4556 34.1555 63.3875 34.1874 63.3343C34.2193 63.2811 34.2875 63.2619 34.3407 63.2939L34.9154 63.6259C35.4156 63.9154 35.8094 64.5945 35.8094 65.1735V65.8376C35.8094 66.3357 36.1607 66.9424 36.5907 67.1914L39.3473 68.7816C39.4005 68.8135 39.4197 68.8816 39.3877 68.9348C39.3665 68.9689 39.3281 68.988 39.2898 68.988Z" fill="#42E8E0"/>
<path d="M40.3601 68.371C40.341 68.371 40.3218 68.3668 40.3048 68.3561L37.5482 66.7639C37.0479 66.4744 36.6541 65.7953 36.6541 65.2163V64.5522C36.6541 64.0541 36.3029 63.4474 35.8729 63.2005L35.2982 62.8684C35.2449 62.8365 35.2258 62.7684 35.2577 62.7152C35.2896 62.6619 35.3578 62.6428 35.411 62.6747L35.9879 63.0068C36.4881 63.2963 36.8819 63.9753 36.8819 64.5543V65.2185C36.8819 65.7166 37.2331 66.3232 37.6631 66.5702L40.4197 68.1624C40.473 68.1943 40.4921 68.2625 40.4602 68.3157C40.4368 68.3519 40.4006 68.371 40.3601 68.371Z" fill="#42E8E0"/>
<path d="M41.4304 67.7535C41.4113 67.7535 41.3921 67.7493 41.3751 67.7386L38.6185 66.1464C38.1182 65.8569 37.7244 65.1778 37.7244 64.5988V63.9347C37.7244 63.4366 37.3732 62.8299 36.9432 62.5809L36.3685 62.2488C36.3153 62.2169 36.2961 62.1487 36.328 62.0955C36.36 62.0423 36.4281 62.0232 36.4813 62.0551L37.056 62.3872C37.5563 62.6767 37.9501 63.3557 37.9501 63.9347V64.5988C37.9501 65.0969 38.3013 65.7036 38.7313 65.9505L41.4879 67.5428C41.5411 67.5747 41.5603 67.6428 41.5284 67.696C41.5071 67.7322 41.4688 67.7535 41.4304 67.7535Z" fill="#42E8E0"/>
<path d="M42.5029 67.1365C42.4837 67.1365 42.4646 67.1322 42.4475 67.1216L39.6909 65.5315C39.1907 65.242 38.7969 64.5629 38.7969 63.9839V63.3198C38.7969 62.8217 38.4456 62.215 38.0157 61.9681L37.4388 61.636C37.3856 61.6041 37.3664 61.5359 37.3983 61.4827C37.4303 61.4295 37.4963 61.4104 37.5516 61.4423L38.1263 61.7744C38.6266 62.0639 39.0204 62.7429 39.0204 63.3219V63.986C39.0204 64.4842 39.3716 65.0908 39.8016 65.3399L42.5582 66.93C42.6114 66.9619 42.6306 67.03 42.5987 67.0833C42.5795 67.1152 42.5412 67.1365 42.5029 67.1365Z" fill="#42E8E0"/>
<path d="M43.5771 66.519C43.5579 66.519 43.5388 66.5147 43.5218 66.5041L40.7651 64.9118C40.2649 64.6223 39.8711 63.9433 39.8711 63.3643V62.7001C39.8711 62.202 39.5199 61.5954 39.0899 61.3484L38.513 61.0164C38.4598 60.9844 38.4406 60.9163 38.4726 60.8631C38.5045 60.8099 38.5726 60.7907 38.6258 60.8227L39.2006 61.1547C39.7008 61.4442 40.0946 62.1233 40.0946 62.7023V63.3664C40.0946 63.8645 40.4458 64.4712 40.8758 64.7181L43.6324 66.3104C43.6857 66.3423 43.7048 66.4104 43.6729 66.4636C43.6537 66.4977 43.6154 66.519 43.5771 66.519Z" fill="#42E8E0"/>
<path d="M44.6492 65.8995C44.63 65.8995 44.6109 65.8953 44.5938 65.8846L41.8372 64.2924C41.337 64.0029 40.9432 63.3238 40.9432 62.7448V62.0807C40.9432 61.5826 40.592 60.9759 40.162 60.7269L39.5872 60.3948C39.534 60.3629 39.5149 60.2947 39.5468 60.2415C39.5787 60.1883 39.6468 60.1691 39.7 60.2011L40.2748 60.5332C40.775 60.8226 41.1688 61.5017 41.1688 62.0807V62.7448C41.1688 63.2429 41.5201 63.8496 41.95 64.0965L44.7067 65.6888C44.7599 65.7207 44.779 65.7888 44.7471 65.842C44.7258 65.8804 44.6875 65.8995 44.6492 65.8995Z" fill="#42E8E0"/>
<path d="M45.7195 65.282C45.7003 65.282 45.6812 65.2777 45.6642 65.2671L42.9075 63.677C42.4073 63.3875 42.0135 62.7084 42.0135 62.1294V61.4653C42.0135 60.9672 41.6623 60.3605 41.2323 60.1136L40.6575 59.7815C40.6043 59.7496 40.5852 59.6815 40.6171 59.6282C40.649 59.575 40.7171 59.5559 40.7704 59.5878L41.3451 59.9199C41.8453 60.2094 42.2391 60.8884 42.2391 61.4674V62.1316C42.2391 62.6297 42.5904 63.2363 43.0204 63.4854L45.777 65.0755C45.8302 65.1074 45.8494 65.1755 45.8174 65.2288C45.7961 65.2628 45.76 65.282 45.7195 65.282Z" fill="#42E8E0"/>
<path d="M46.7898 64.665C46.7707 64.665 46.7515 64.6607 46.7345 64.6501L43.9778 63.0578C43.4776 62.7683 43.0838 62.0893 43.0838 61.5103V60.8461C43.0838 60.348 42.7326 59.7414 42.3026 59.4944L41.7279 59.1624C41.6746 59.1304 41.6555 59.0623 41.6874 59.0091C41.7193 58.9559 41.7853 58.9367 41.8407 58.9687L42.4154 59.3007C42.9156 59.5902 43.3094 60.2693 43.3094 60.8483V61.5124C43.3094 62.0105 43.6607 62.6172 44.0907 62.8641L46.8473 64.4564C46.9005 64.4883 46.9197 64.5564 46.8877 64.6096C46.8665 64.6437 46.8281 64.665 46.7898 64.665Z" fill="#42E8E0"/>
<path d="M47.864 64.0475C47.8449 64.0475 47.8257 64.0432 47.8087 64.0326L45.0521 62.4403C44.5518 62.1508 44.158 61.4718 44.158 60.8928V60.2286C44.158 59.7305 43.8068 59.1239 43.3768 58.8748L42.8021 58.5427C42.7489 58.5108 42.7297 58.4427 42.7616 58.3895C42.7936 58.3363 42.8617 58.3171 42.9149 58.349L43.4918 58.6811C43.992 58.9706 44.3858 59.6496 44.3858 60.2286V60.8928C44.3858 61.3909 44.737 61.9976 45.167 62.2445L47.9236 63.8367C47.9769 63.8687 47.996 63.9368 47.9641 63.99C47.9407 64.0262 47.9024 64.0475 47.864 64.0475Z" fill="#42E8E0"/>
<path d="M48.9365 63.4304C48.9173 63.4304 48.8982 63.4262 48.8811 63.4155L46.1245 61.8254C45.6243 61.5359 45.2305 60.8569 45.2305 60.2779V59.6137C45.2305 59.1156 44.8792 58.5089 44.4493 58.262L43.8724 57.9299C43.8192 57.898 43.8 57.8299 43.8319 57.7767C43.8639 57.7235 43.932 57.7043 43.9852 57.7362L44.5599 58.0683C45.0602 58.3578 45.454 59.0368 45.454 59.6158V60.28C45.454 60.7781 45.8052 61.3848 46.2352 61.6338L48.9918 63.2239C49.045 63.2559 49.0642 63.324 49.0323 63.3772C49.0131 63.4091 48.9748 63.4304 48.9365 63.4304Z" fill="#42E8E0"/>
<path d="M50.0068 62.811C49.9876 62.811 49.9685 62.8067 49.9514 62.7961L47.1948 61.2038C46.6946 60.9143 46.3008 60.2353 46.3008 59.6563V58.9921C46.3008 58.494 45.9496 57.8874 45.5196 57.6404L44.9427 57.3084C44.8895 57.2764 44.8703 57.2083 44.9023 57.1551C44.9342 57.1019 45.0023 57.0827 45.0555 57.1147L45.6303 57.4467C46.1305 57.7362 46.5243 58.4153 46.5243 58.9943V59.6584C46.5243 60.1565 46.8755 60.7632 47.3055 61.0101L50.0621 62.6024C50.1154 62.6343 50.1345 62.7024 50.1026 62.7556C50.0834 62.7918 50.0451 62.811 50.0068 62.811Z" fill="#42E8E0"/>
<path d="M51.0789 62.1935C51.0597 62.1935 51.0406 62.1892 51.0235 62.1786L48.2669 60.5863C47.7667 60.2968 47.3729 59.6178 47.3729 59.0388V58.3746C47.3729 57.8765 47.0216 57.2699 46.5917 57.0208L46.0169 56.6887C45.9637 56.6568 45.9445 56.5887 45.9765 56.5355C46.0084 56.4823 46.0765 56.4631 46.1297 56.495L46.7045 56.8271C47.2047 57.1166 47.5985 57.7956 47.5985 58.3746V59.0388C47.5985 59.5369 47.9497 60.1436 48.3797 60.3905L51.1364 61.9827C51.1896 62.0147 51.2087 62.0828 51.1768 62.136C51.1555 62.1743 51.1193 62.1935 51.0789 62.1935Z" fill="#42E8E0"/>
<path d="M20.0041 73.9309C19.9658 73.9309 19.9274 73.9118 19.9062 73.8756C19.8742 73.8224 19.8934 73.7521 19.9466 73.7223L22.7032 72.1322C23.1332 71.8832 23.4844 71.2765 23.4844 70.7805V70.1164C23.4844 69.5374 23.8761 68.8583 24.3785 68.5688L24.9532 68.2368C25.0064 68.207 25.0767 68.224 25.1065 68.2772C25.1384 68.3304 25.1193 68.4007 25.066 68.4305L24.4913 68.7625C24.0613 69.0116 23.7101 69.6183 23.7101 70.1142V70.7784C23.7101 71.3574 23.3184 72.0364 22.816 72.3259L20.0594 73.9182C20.0424 73.9267 20.0232 73.9309 20.0041 73.9309Z" fill="#42E8E0"/>
<path d="M18.9299 73.3134C18.8915 73.3134 18.8532 73.2942 18.8319 73.2581C18.8 73.2048 18.8192 73.1346 18.8724 73.1048L21.629 71.5126C22.059 71.2635 22.4102 70.6568 22.4102 70.1609V69.4967C22.4102 68.9177 22.8019 68.2387 23.3043 67.9492L23.879 67.6171C23.9322 67.5852 24.0025 67.6043 24.0323 67.6575C24.0642 67.7108 24.045 67.781 23.9918 67.8108L23.4171 68.1429C22.9871 68.3919 22.6359 68.9986 22.6359 69.4946V70.1587C22.6359 70.7377 22.2442 71.4168 21.7418 71.7063L18.9852 73.2985C18.9682 73.3091 18.949 73.3134 18.9299 73.3134Z" fill="#42E8E0"/>
<path d="M17.8556 72.6962C17.8173 72.6962 17.779 72.6771 17.7577 72.6409C17.7258 72.5877 17.7449 72.5174 17.7982 72.4876L20.5548 70.8954C20.9848 70.6463 21.336 70.0396 21.336 69.5437V68.8795C21.336 68.3005 21.7277 67.6215 22.23 67.332L22.8048 66.9999C22.858 66.968 22.9282 66.9871 22.958 67.0404C22.99 67.0936 22.9708 67.1638 22.9176 67.1936L22.3429 67.5257C21.9129 67.7747 21.5616 68.3814 21.5616 68.8795V69.5437C21.5616 70.1227 21.17 70.8017 20.6676 71.0912L17.911 72.6834C17.8961 72.6898 17.8748 72.6962 17.8556 72.6962Z" fill="#42E8E0"/>
<path d="M16.7853 72.0766C16.747 72.0766 16.7087 72.0574 16.6874 72.0212C16.6555 71.968 16.6746 71.8978 16.7279 71.868L19.4845 70.2757C19.9145 70.0267 20.2657 69.42 20.2657 68.924V68.2599C20.2657 67.6809 20.6574 67.0018 21.1597 66.7123L21.7345 66.3803C21.7877 66.3483 21.8579 66.3675 21.8877 66.4207C21.9197 66.4739 21.9005 66.5442 21.8473 66.574L21.2726 66.9061C20.8426 67.1551 20.4913 67.7618 20.4913 68.2578V68.9219C20.4913 69.5009 20.0997 70.1799 19.5973 70.4694L16.8407 72.0617C16.8236 72.0723 16.8045 72.0766 16.7853 72.0766Z" fill="#42E8E0"/>
<path d="M15.7111 71.4594C15.6728 71.4594 15.6345 71.4402 15.6132 71.4041C15.5813 71.3508 15.6004 71.2806 15.6536 71.2508L18.4103 69.6585C18.8402 69.4095 19.1915 68.8028 19.1915 68.3068V67.6427C19.1915 67.0637 19.5831 66.3847 20.0855 66.0952L20.6603 65.7631C20.7135 65.7312 20.7837 65.7503 20.8135 65.8035C20.8454 65.8568 20.8263 65.927 20.7731 65.9568L20.1983 66.2889C19.7683 66.5379 19.4171 67.1446 19.4171 67.6406V68.3047C19.4171 68.8837 19.0254 69.5628 18.5231 69.8523L15.7665 71.4445C15.7494 71.4551 15.7303 71.4594 15.7111 71.4594Z" fill="#42E8E0"/>
<path d="M14.6408 70.8422C14.6025 70.8422 14.5642 70.8231 14.5429 70.7869C14.5109 70.7337 14.5301 70.6634 14.5833 70.6336L17.3399 69.0435C17.7699 68.7945 18.1212 68.1878 18.1212 67.6897V67.0255C18.1212 66.4465 18.5128 65.7675 19.0152 65.478L19.5899 65.1459C19.6432 65.1161 19.7134 65.1332 19.7432 65.1864C19.7751 65.2396 19.756 65.3098 19.7028 65.3396L19.128 65.6717C18.698 65.9208 18.3468 66.5274 18.3468 67.0234V67.6876C18.3468 68.2666 17.9551 68.9456 17.4528 69.2351L14.6961 70.8273C14.6791 70.838 14.66 70.8422 14.6408 70.8422Z" fill="#42E8E0"/>
<path d="M13.5705 70.2246C13.5322 70.2246 13.4939 70.2054 13.4726 70.1692C13.4406 70.116 13.4598 70.0458 13.513 70.016L16.2696 68.4237C16.6996 68.1747 17.0508 67.568 17.0508 67.072V66.4079C17.0508 65.8289 17.4425 65.1498 17.9449 64.8603L18.5196 64.5283C18.5728 64.4985 18.6431 64.5155 18.6729 64.5687C18.7048 64.6219 18.6857 64.6922 18.6324 64.722L18.0577 65.054C17.6277 65.3031 17.2765 65.9098 17.2765 66.4057V67.0699C17.2765 67.6489 16.8848 68.3279 16.3824 68.6174L13.6258 70.2097C13.6088 70.2203 13.5896 70.2246 13.5705 70.2246Z" fill="#42E8E0"/>
<path d="M12.5002 69.6074C12.4619 69.6074 12.4235 69.5882 12.4023 69.552C12.3703 69.4988 12.3895 69.4286 12.4427 69.3988L15.1993 67.8065C15.6293 67.5575 15.9805 66.9508 15.9805 66.4548V65.7907C15.9805 65.2117 16.3722 64.5326 16.8746 64.2431L17.4493 63.9111C17.5025 63.8813 17.5728 63.8983 17.6026 63.9515C17.6345 64.0047 17.6154 64.075 17.5621 64.1048L16.9874 64.4369C16.5574 64.6859 16.2062 65.2926 16.2062 65.7907V66.4548C16.2062 67.0338 15.8145 67.7129 15.3121 68.0024L12.5555 69.5946C12.5385 69.601 12.5193 69.6074 12.5002 69.6074Z" fill="#42E8E0"/>
<path d="M11.426 68.9882C11.3876 68.9882 11.3493 68.9691 11.328 68.9329C11.2961 68.8796 11.3153 68.8094 11.3685 68.7796L14.1251 67.1895C14.5551 66.9404 14.9063 66.3338 14.9063 65.8357V65.1715C14.9063 64.5925 15.298 63.9135 15.8004 63.624L16.3751 63.2919C16.4283 63.26 16.4986 63.2791 16.5284 63.3323C16.5603 63.3856 16.5411 63.4558 16.4879 63.4856L15.9132 63.8177C15.4832 64.0667 15.132 64.6734 15.132 65.1694V65.8335C15.132 66.4125 14.7403 67.0916 14.2379 67.3811L11.4813 68.9733C11.4643 68.984 11.4451 68.9882 11.426 68.9882Z" fill="#42E8E0"/>
<path d="M10.3517 68.3705C10.3134 68.3705 10.2751 68.3514 10.2538 68.3152C10.2219 68.262 10.241 68.1917 10.2943 68.1619L13.0509 66.5697C13.4809 66.3206 13.8321 65.714 13.8321 65.218V64.5538C13.8321 63.9748 14.2238 63.2958 14.7261 63.0063L15.3009 62.6742C15.3541 62.6423 15.4243 62.6615 15.4541 62.7147C15.4861 62.7679 15.4669 62.8381 15.4137 62.8679L14.839 63.2C14.409 63.4491 14.0577 64.0557 14.0577 64.5517V65.2159C14.0577 65.7948 13.6661 66.4739 13.1637 66.7634L10.4071 68.3556C10.39 68.3663 10.3709 68.3705 10.3517 68.3705Z" fill="#42E8E0"/>
<path d="M9.28142 67.7533C9.2431 67.7533 9.20479 67.7342 9.1835 67.698C9.15157 67.6448 9.17073 67.5745 9.22395 67.5447L11.9806 65.9525C12.4106 65.7034 12.7618 65.0968 12.7618 64.6008V63.9366C12.7618 63.3576 13.1535 62.6786 13.6558 62.3891L14.2306 62.057C14.2838 62.0251 14.354 62.0443 14.3838 62.0975C14.4158 62.1507 14.3966 62.2209 14.3434 62.2507L13.7686 62.5828C13.3387 62.8319 12.9874 63.4385 12.9874 63.9366V64.6008C12.9874 65.1798 12.5958 65.8588 12.0934 66.1483L9.33677 67.7406C9.31974 67.7491 9.30058 67.7533 9.28142 67.7533Z" fill="#42E8E0"/>
<path d="M8.21111 67.1362C8.17279 67.1362 8.13448 67.117 8.11319 67.0808C8.08126 67.0276 8.10042 66.9574 8.15363 66.9276L10.9103 65.3375C11.3402 65.0884 11.6915 64.4817 11.6915 63.9836V63.3195C11.6915 62.7405 12.0831 62.0614 12.5855 61.772L13.1603 61.4399C13.2135 61.4101 13.2837 61.4271 13.3135 61.4803C13.3454 61.5335 13.3263 61.6038 13.2731 61.6336L12.6983 61.9657C12.2683 62.2147 11.9171 62.8214 11.9171 63.3174V63.9815C11.9171 64.5605 11.5254 65.2395 11.0231 65.529L8.26645 67.1213C8.24942 67.1298 8.23027 67.1362 8.21111 67.1362Z" fill="#42E8E0"/>
<path d="M7.13689 66.5185C7.09857 66.5185 7.06026 66.4994 7.03897 66.4632C7.00704 66.4099 7.0262 66.3397 7.07941 66.3099L9.83604 64.7177C10.266 64.4686 10.6173 63.8619 10.6173 63.366V62.7018C10.6173 62.1228 11.0089 61.4438 11.5113 61.1543L12.086 60.8222C12.1393 60.7924 12.2095 60.8094 12.2393 60.8626C12.2712 60.9159 12.2521 60.9861 12.1989 61.0159L11.6241 61.348C11.1941 61.597 10.8429 62.2037 10.8429 62.6997V63.3638C10.8429 63.9428 10.4512 64.6219 9.94886 64.9114L7.19223 66.5036C7.1752 66.5121 7.15392 66.5185 7.13689 66.5185Z" fill="#42E8E0"/>
<path d="M6.06658 65.8993C6.02826 65.8993 5.98994 65.8802 5.96866 65.844C5.93673 65.7908 5.95589 65.7205 6.0091 65.6907L8.76572 64.0985C9.19571 63.8494 9.54694 63.2428 9.54694 62.7468V62.0826C9.54694 61.5036 9.93862 60.8246 10.441 60.5351L11.0157 60.203C11.0689 60.1711 11.1392 60.1903 11.169 60.2435C11.2009 60.2967 11.1818 60.3669 11.1285 60.3967L10.5538 60.7288C10.1238 60.9779 9.77258 61.5845 9.77258 62.0826V62.7468C9.77258 63.3258 9.38091 64.0048 8.87854 64.2943L6.12192 65.8866C6.10489 65.8951 6.08573 65.8993 6.06658 65.8993Z" fill="#42E8E0"/>
<path d="M4.99236 65.2822C4.95404 65.2822 4.91573 65.263 4.89444 65.2268C4.86251 65.1736 4.88167 65.1033 4.93488 65.0735L7.6915 63.4834C8.12149 63.2344 8.47272 62.6277 8.47272 62.1296V61.4655C8.47272 60.8865 8.8644 60.2074 9.36676 59.9179L9.9415 59.5858C9.99472 59.5539 10.065 59.5731 10.0948 59.6263C10.1267 59.6795 10.1075 59.7497 10.0543 59.7795L9.47958 60.1116C9.04959 60.3607 8.69836 60.9673 8.69836 61.4633V62.1275C8.69836 62.7065 8.30669 63.3855 7.80432 63.675L5.0477 65.2672C5.03067 65.2779 5.01152 65.2822 4.99236 65.2822Z" fill="#42E8E0"/>
<path d="M3.92205 64.6645C3.88373 64.6645 3.84541 64.6453 3.82413 64.6091C3.7922 64.5559 3.81135 64.4857 3.86457 64.4559L6.62119 62.8636C7.05118 62.6146 7.40241 62.0079 7.40241 61.5119V60.8478C7.40241 60.2688 7.79409 59.5897 8.29645 59.3002L8.87119 58.9682C8.92441 58.9362 8.99465 58.9554 9.02446 59.0086C9.05639 59.0618 9.03723 59.1321 8.98401 59.1619L8.40927 59.4939C7.97928 59.743 7.62805 60.3497 7.62805 60.8457V61.5098C7.62805 62.0888 7.23638 62.7678 6.73401 63.0573L3.97739 64.6496C3.96036 64.6602 3.9412 64.6645 3.92205 64.6645Z" fill="#42E8E0"/>
<path d="M2.84783 64.0473C2.80951 64.0473 2.77119 64.0281 2.74991 63.9919C2.71798 63.9387 2.73714 63.8685 2.79035 63.8387L5.54697 62.2464C5.97696 61.9974 6.32819 61.3907 6.32819 60.8947V60.2306C6.32819 59.6516 6.71987 58.9726 7.22223 58.6831L7.79697 58.351C7.85019 58.3191 7.92044 58.3382 7.95024 58.3914C7.98217 58.4446 7.96301 58.5149 7.90979 58.5447L7.33505 58.8768C6.90506 59.1258 6.55383 59.7325 6.55383 60.2306V60.8947C6.55383 61.4737 6.16216 62.1528 5.65979 62.4423L2.90317 64.0345C2.88614 64.0409 2.86698 64.0473 2.84783 64.0473Z" fill="#42E8E0"/>
<path d="M1.77751 63.4301C1.7392 63.4301 1.70088 63.4109 1.67959 63.3748C1.64766 63.3215 1.66682 63.2513 1.72004 63.2215L4.47666 61.6314C4.90665 61.3823 5.25788 60.7757 5.25788 60.2776V59.6134C5.25788 59.0344 5.64956 58.3554 6.15192 58.0659L6.72666 57.7338C6.77988 57.7019 6.85012 57.721 6.87992 57.7742C6.91185 57.8275 6.8927 57.8977 6.83948 57.9275L6.26474 58.2596C5.83475 58.5086 5.48352 59.1153 5.48352 59.6113V60.2754C5.48352 60.8544 5.09185 61.5335 4.58948 61.823L1.83286 63.4152C1.81583 63.4237 1.79667 63.4301 1.77751 63.4301Z" fill="#42E8E0"/>
<path d="M0.707201 62.8105C0.668885 62.8105 0.630569 62.7913 0.609282 62.7551C0.577352 62.7019 0.59651 62.6317 0.649727 62.6019L3.40635 61.0096C3.83634 60.7606 4.18757 60.1539 4.18757 59.6579V58.9938C4.18757 58.4148 4.57924 57.7357 5.08161 57.4462L5.65635 57.1142C5.70956 57.0822 5.77981 57.1014 5.80961 57.1546C5.84154 57.2078 5.82238 57.2781 5.76917 57.3079L5.19443 57.6399C4.76444 57.889 4.41321 58.4957 4.41321 58.9916V59.6558C4.41321 60.2348 4.02153 60.9138 3.51917 61.2033L0.762546 62.7956C0.745517 62.8062 0.726359 62.8105 0.707201 62.8105Z" fill="#42E8E0"/>
<path d="M-0.367018 62.1933C-0.405334 62.1933 -0.44365 62.1741 -0.464936 62.1379C-0.496866 62.0847 -0.477709 62.0145 -0.424492 61.9847L2.33213 60.3924C2.76212 60.1434 3.11335 59.5367 3.11335 59.0407V58.3766C3.11335 57.7976 3.50502 57.1185 4.00739 56.829L4.58213 56.497C4.63534 56.465 4.70559 56.4842 4.73539 56.5374C4.76732 56.5906 4.74816 56.6609 4.69495 56.6907L4.12021 57.0228C3.69022 57.2718 3.33899 57.8785 3.33899 58.3766V59.0407C3.33899 59.6197 2.94731 60.2988 2.44495 60.5883L-0.311673 62.1805C-0.328702 62.189 -0.34786 62.1933 -0.367018 62.1933Z" fill="#42E8E0"/>
<g opacity="0.3">
<path d="M45.3086 22.5235C45.4981 23.5984 46.2963 26.2997 49.5872 28.1708C54.2703 30.3335 57.5144 33.1774 58.6021 36.3513C58.6788 36.5599 58.7852 36.8366 58.8852 37.0346C59.0023 36.843 59.0023 36.843 59.0023 36.3768V31.0466C59.0002 27.9175 58.8256 27.2278 58.6021 26.355C57.5144 23.1812 54.2703 20.3373 49.5872 18.1746C45.8493 16.9676 44.9446 20.4714 45.3086 22.5235Z" fill="#42E8E0"/>
<path d="M10.9648 16.1288C15.9225 14.6898 21.7891 13.8809 28.0495 13.932C28.8754 13.9384 29.6928 13.9596 30.5038 13.9958C36.0022 14.4982 37.9563 20.3031 34.642 22.8447C33.12 24.0112 31.2872 23.9984 30.5038 23.992C29.6949 23.9559 28.8775 23.9346 28.0495 23.9282C21.7891 23.8771 15.9225 24.686 10.9648 26.125C5.95817 27.3447 5.66228 22.2572 7.41418 19.1451C8.00169 18.0978 9.09582 16.7248 10.9648 16.1288Z" fill="#42E8E0"/>
<path d="M-4 38.7203C-3.86377 37.1365 -3.7552 35.8849 -2.14167 33.7009C1.25993 28.6836 0.572374 22.8511 -1.30724 23.1193C-1.60951 23.1618 -1.92455 23.4897 -2.14167 23.7047C-3.28264 25.1926 -3.93188 26.7912 -3.99361 28.4622C-3.99787 28.5474 -4 28.6368 -4 28.724V38.7203Z" fill="#42E8E0"/>
</g>
<path d="M36.849 39.9507L35.7656 40.3892L39.5066 49.632L40.5899 49.1935L36.849 39.9507Z" fill="#42E8E0"/>
<path d="M16.2739 39.2739C18.2784 39.2739 19.9033 37.649 19.9033 35.6445C19.9033 33.6401 18.2784 32.0151 16.2739 32.0151C14.2695 32.0151 12.6445 33.6401 12.6445 35.6445C12.6445 37.649 14.2695 39.2739 16.2739 39.2739Z" fill="url(#paint7_radial_187_2635)"/>
<path d="M35.0142 41.0128C35.0142 48.0566 30.8186 53.7678 25.6438 53.7678C20.469 53.7678 16.2734 48.0566 16.2734 41.0128C16.2734 33.9691 20.469 31.8574 25.6438 31.8574C30.8186 31.8574 35.0142 33.9691 35.0142 41.0128Z" fill="url(#paint8_radial_187_2635)"/>
<path d="M35.0142 41.0128C35.0142 48.0566 30.8186 53.7678 25.6438 53.7678C20.469 53.7678 16.2734 48.0566 16.2734 41.0128C16.2734 33.9691 20.469 31.8574 25.6438 31.8574C30.8186 31.8574 35.0142 33.9691 35.0142 41.0128Z" fill="url(#paint9_linear_187_2635)"/>
<path d="M25.6406 39.3353C29.1722 39.3353 32.0351 37.6828 32.0351 35.6442C32.0351 33.6057 29.1722 31.9531 25.6406 31.9531C22.109 31.9531 19.2461 33.6057 19.2461 35.6442C19.2461 37.6828 22.109 39.3353 25.6406 39.3353Z" fill="#393091"/>
<path d="M21.122 34.0184C23.6189 32.5773 27.6676 32.5773 30.1667 34.0184C31.1991 34.6144 31.8015 35.3616 31.9824 36.1364C32.2379 35.0359 31.6333 33.88 30.1667 33.0349C27.6697 31.5938 23.621 31.5938 21.122 33.0349C19.6553 33.8821 19.0529 35.0359 19.3062 36.1364C19.4871 35.3616 20.0896 34.6144 21.122 34.0184Z" fill="#453C9E"/>
<path d="M18.2622 26.872L19.418 24.8795C20.0992 24.1728 20.642 23.2362 20.9187 22.2932L22.0895 20.2752L20.4036 19.3088C20.3504 19.2726 20.2929 19.2407 20.2354 19.2109C19.7565 18.9831 19.12 19.0449 18.4197 19.4493C16.9296 20.3093 15.7227 22.4018 15.7227 24.1217C15.7227 24.9817 16.0249 25.5863 16.5124 25.8672L18.2622 26.872Z" fill="url(#paint10_radial_187_2635)"/>
<path d="M22.063 24.6624C23.1164 22.838 23.1161 20.8658 22.0624 20.2574C21.0086 19.6491 19.3005 20.6349 18.2471 22.4593C17.1938 24.2837 17.1941 26.2559 18.2478 26.8643C19.3015 27.4727 21.0097 26.4869 22.063 24.6624Z" fill="#BCBEFF"/>
<path d="M26.0165 36.3895C31.2939 36.3895 35.5721 32.1113 35.5721 26.8339C35.5721 21.5565 31.2939 17.2783 26.0165 17.2783C20.7391 17.2783 16.4609 21.5565 16.4609 26.8339C16.4609 32.1113 20.7391 36.3895 26.0165 36.3895Z" fill="url(#paint11_radial_187_2635)"/>
<path d="M26.0165 36.3895C31.2939 36.3895 35.5721 32.1113 35.5721 26.8339C35.5721 21.5565 31.2939 17.2783 26.0165 17.2783C20.7391 17.2783 16.4609 21.5565 16.4609 26.8339C16.4609 32.1113 20.7391 36.3895 26.0165 36.3895Z" fill="url(#paint12_linear_187_2635)"/>
<path d="M31.3637 33.2963L32.5196 31.3039C33.2008 30.5971 33.7436 29.6605 34.0203 28.7175L35.1911 26.6996L33.5052 25.7331C33.4519 25.697 33.3945 25.665 33.337 25.6352C32.858 25.4075 32.2216 25.4692 31.5212 25.8736C30.0312 26.7336 28.8242 28.8261 28.8242 30.5461C28.8242 31.406 29.1265 32.0106 29.614 32.2916L31.3637 33.2963Z" fill="url(#paint13_radial_187_2635)"/>
<path d="M35.1646 31.0877C36.2179 29.2633 36.2176 27.2911 35.1639 26.6827C34.1102 26.0744 32.4021 27.0601 31.3487 28.8846C30.2953 30.709 30.2956 32.6812 31.3493 33.2896C32.4031 33.898 34.1112 32.9122 35.1646 31.0877Z" fill="#BCBEFF"/>
<path d="M30.6821 31.5636C30.6821 29.8436 31.889 27.7511 33.3791 26.8912C33.8942 26.5931 34.3774 26.4824 34.7883 26.5357C34.354 26.4399 33.8261 26.5399 33.2556 26.8677C31.7655 27.7277 30.5586 29.8202 30.5586 31.5402C30.5586 32.6641 31.0737 33.3516 31.8486 33.4517C31.144 33.2984 30.6821 32.6279 30.6821 31.5636Z" fill="white"/>
<path d="M34.6192 30.7727C35.3722 29.4685 35.3727 28.0591 34.6204 27.6247C33.868 27.1903 32.6477 27.8954 31.8947 29.1996C31.1417 30.5038 31.1412 31.9132 31.8935 32.3476C32.6459 32.782 33.8663 32.0769 34.6192 30.7727Z" fill="#393091"/>
<path d="M34.365 27.5234C34.5651 27.7597 34.68 28.1109 34.68 28.5622C34.68 29.7926 33.8179 31.2869 32.7514 31.9021C32.3385 32.1405 31.9574 32.2108 31.6445 32.1363C31.9894 32.5428 32.5811 32.6003 33.2559 32.2108C34.3203 31.5956 35.1845 30.1013 35.1845 28.8709C35.1845 28.1195 34.8609 27.6405 34.365 27.5234Z" fill="#453C9E"/>
<path d="M21.9231 33.1541C23.1604 32.6391 23.4404 30.4847 22.5486 28.3423C21.6567 26.1998 19.9307 24.8805 18.6934 25.3956C17.4561 25.9106 17.1761 28.0649 18.0679 30.2074C18.9598 32.3499 20.6858 33.6691 21.9231 33.1541Z" fill="#393091"/>
<path d="M21.788 29.7333C21.6986 30.4166 21.1835 30.6316 20.6364 30.2123C20.0893 29.7929 19.7168 28.901 19.8062 28.2177C19.8956 27.5344 20.4108 27.3194 20.9578 27.7388C21.5049 28.156 21.8774 29.05 21.788 29.7333Z" fill="#42E8E0"/>
<path d="M20.5887 32.4048C19.0838 31.2532 18.0599 28.7968 18.3047 26.9171C18.4047 26.1508 18.6985 25.5995 19.1157 25.293C18.3281 25.3675 17.732 26.0337 17.583 27.1917C17.3382 29.0713 18.3621 31.5278 19.8671 32.6794C20.759 33.3606 21.619 33.433 22.2257 32.986C21.7318 33.0307 21.1656 32.8455 20.5887 32.4048Z" fill="#453C9E"/>
<path d="M19.997 32.6176C18.492 31.466 17.4681 29.0095 17.7129 27.1299C17.8257 26.2593 18.1918 25.6675 18.6985 25.395C18.1216 25.6313 17.7044 26.2486 17.583 27.1916C17.3382 29.0712 18.3621 31.5277 19.8671 32.6793C20.676 33.2966 21.4572 33.4116 22.0469 33.0965C21.4742 33.3307 20.7462 33.1902 19.997 32.6176Z" fill="#42E8E0"/>
<path d="M36.3052 43.7993C38.3096 43.7993 39.9345 42.1744 39.9345 40.1699C39.9345 38.1655 38.3096 36.5405 36.3052 36.5405C34.3007 36.5405 32.6758 38.1655 32.6758 40.1699C32.6758 42.1744 34.3007 43.7993 36.3052 43.7993Z" fill="url(#paint14_radial_187_2635)"/>
<path d="M36.3052 43.7993C38.3096 43.7993 39.9345 42.1744 39.9345 40.1699C39.9345 38.1655 38.3096 36.5405 36.3052 36.5405C34.3007 36.5405 32.6758 38.1655 32.6758 40.1699C32.6758 42.1744 34.3007 43.7993 36.3052 43.7993Z" fill="url(#paint15_linear_187_2635)"/>
<path d="M42.0933 52.1929C41.8869 53.9171 40.3649 57.1846 38.9855 57.0186C37.6061 56.8546 36.8951 53.3211 37.1016 51.5968C37.3081 49.8726 38.5917 48.6082 39.9689 48.7721C41.3483 48.9381 42.2977 50.4687 42.0933 52.1929Z" fill="url(#paint16_radial_187_2635)"/>
<path d="M42.0933 52.1929C41.8869 53.9171 40.3649 57.1846 38.9855 57.0186C37.6061 56.8546 36.8951 53.3211 37.1016 51.5968C37.3081 49.8726 38.5917 48.6082 39.9689 48.7721C41.3483 48.9381 42.2977 50.4687 42.0933 52.1929Z" fill="url(#paint17_linear_187_2635)"/>
<path d="M6.66949 41.0981C6.45875 41.0981 6.25653 40.9831 6.15223 40.7852C6.00322 40.4999 6.11391 40.1465 6.39915 39.9975L13.8921 36.0765C14.1773 35.9275 14.5307 36.0382 14.6797 36.3235C14.8287 36.6087 14.718 36.9621 14.4327 37.1111L6.93983 41.0321C6.85469 41.0768 6.76103 41.0981 6.66949 41.0981Z" fill="#42E8E0"/>
<path d="M6.80151 43.2758C5.27952 44.1103 1.73529 44.7701 1.06901 43.5526C0.402742 42.335 2.86348 39.7018 4.38548 38.8674C5.90747 38.0329 7.68491 38.3416 8.35118 39.5592C9.01958 40.7768 8.32564 42.4414 6.80151 43.2758Z" fill="url(#paint18_radial_187_2635)"/>
<path d="M6.80151 43.2758C5.27952 44.1103 1.73529 44.7701 1.06901 43.5526C0.402742 42.335 2.86348 39.7018 4.38548 38.8674C5.90747 38.0329 7.68491 38.3416 8.35118 39.5592C9.01958 40.7768 8.32564 42.4414 6.80151 43.2758Z" fill="url(#paint19_linear_187_2635)"/>
<g opacity="0.5">
<path d="M29.3373 43.482C28.5475 43.5033 27.7514 43.5118 26.9489 43.5033C20.663 43.4522 14.8411 42.5391 9.98132 41.0107C5.12583 39.7143 4.8342 44.7933 6.52862 47.931C7.73558 50.1639 9.36826 50.777 9.98132 51.0069C14.8411 52.5374 20.6651 53.4485 26.9489 53.4995C27.7514 53.5059 28.5497 53.4995 29.3373 53.4783C35.0421 53.0589 36.5343 47.5797 33.8692 45.0232C33.1242 44.3101 31.7341 43.4629 29.3373 43.482Z" fill="#42E8E0"/>
<path d="M58.9939 35.5122C58.9663 39.8355 58.713 40.621 58.3915 41.6172C57.0547 44.7698 53.5914 47.5541 48.7402 49.6338C44.4935 50.8876 43.3206 46.4748 45.0491 43.2031C46.2241 40.9765 48.0526 40.0037 48.7402 39.6376C53.5914 37.5579 57.0547 34.7736 58.3915 31.621C58.4894 31.4124 58.6278 31.1335 58.7577 30.9441C58.7896 30.9398 58.8343 30.9335 58.8662 30.9292C58.9492 31.1612 58.9833 31.2549 58.9939 32.4363V35.5122Z" fill="#42E8E0"/>
</g>
<path opacity="0.8" d="M42.0418 38.7246C41.5799 38.7246 41.2031 38.3499 41.2031 37.8859V9.23615C41.2031 8.77423 41.5778 8.39746 42.0418 8.39746C42.5037 8.39746 42.8805 8.77211 42.8805 9.23615V37.888C42.8805 38.3499 42.5059 38.7246 42.0418 38.7246Z" fill="url(#paint20_linear_187_2635)"/>
<path opacity="0.8" d="M8.99993 26.504C8.753 26.504 8.55078 26.3039 8.55078 26.0549V0.449148C8.55078 0.202223 8.75088 0 8.99993 0C9.24686 0 9.44908 0.200095 9.44908 0.449148V26.0549C9.44908 26.3018 9.24898 26.504 8.99993 26.504Z" fill="url(#paint21_linear_187_2635)"/>
</g>
<defs>
<linearGradient id="paint0_linear_187_2635" x1="-6.25775" y1="63.6412" x2="48.0209" y2="63.6412" gradientUnits="userSpaceOnUse">
<stop stop-color="#5761D7"/>
<stop offset="0.1645" stop-color="#5E67DA"/>
<stop offset="0.4051" stop-color="#727AE2"/>
<stop offset="0.6924" stop-color="#9297EE"/>
<stop offset="1" stop-color="#BCBEFF"/>
</linearGradient>
<linearGradient id="paint1_linear_187_2635" x1="9.10252" y1="56.3065" x2="41.682" y2="56.3065" gradientUnits="userSpaceOnUse">
<stop stop-color="#42E8E0"/>
<stop offset="0.1507" stop-color="#43E3E0"/>
<stop offset="0.3285" stop-color="#45D5DF"/>
<stop offset="0.5199" stop-color="#49BDDD"/>
<stop offset="0.7209" stop-color="#4E9CDB"/>
<stop offset="0.9274" stop-color="#5472D8"/>
<stop offset="1" stop-color="#5761D7"/>
</linearGradient>
<linearGradient id="paint2_linear_187_2635" x1="25.3904" y1="50.4185" x2="41.6804" y2="50.4185" gradientUnits="userSpaceOnUse">
<stop stop-color="#42E8E0"/>
<stop offset="0.1507" stop-color="#43E3E0"/>
<stop offset="0.3285" stop-color="#45D5DF"/>
<stop offset="0.5199" stop-color="#49BDDD"/>
<stop offset="0.7209" stop-color="#4E9CDB"/>
<stop offset="0.9274" stop-color="#5472D8"/>
<stop offset="1" stop-color="#5761D7"/>
</linearGradient>
<linearGradient id="paint3_linear_187_2635" x1="9.10252" y1="50.4184" x2="25.3925" y2="50.4184" gradientUnits="userSpaceOnUse">
<stop stop-color="#42E8E0"/>
<stop offset="0.1507" stop-color="#43E3E0"/>
<stop offset="0.3285" stop-color="#45D5DF"/>
<stop offset="0.5199" stop-color="#49BDDD"/>
<stop offset="0.7209" stop-color="#4E9CDB"/>
<stop offset="0.9274" stop-color="#5472D8"/>
<stop offset="1" stop-color="#5761D7"/>
</linearGradient>
<linearGradient id="paint4_linear_187_2635" x1="9.10252" y1="53.9351" x2="41.682" y2="53.9351" gradientUnits="userSpaceOnUse">
<stop stop-color="#42E8E0"/>
<stop offset="0.1507" stop-color="#43E3E0"/>
<stop offset="0.3285" stop-color="#45D5DF"/>
<stop offset="0.5199" stop-color="#49BDDD"/>
<stop offset="0.7209" stop-color="#4E9CDB"/>
<stop offset="0.9274" stop-color="#5472D8"/>
<stop offset="1" stop-color="#5761D7"/>
</linearGradient>
<linearGradient id="paint5_linear_187_2635" x1="25.3909" y1="59.8236" x2="41.6804" y2="59.8236" gradientUnits="userSpaceOnUse">
<stop stop-color="#42E8E0"/>
<stop offset="0.1507" stop-color="#43E3E0"/>
<stop offset="0.3285" stop-color="#45D5DF"/>
<stop offset="0.5199" stop-color="#49BDDD"/>
<stop offset="0.7209" stop-color="#4E9CDB"/>
<stop offset="0.9274" stop-color="#5472D8"/>
<stop offset="1" stop-color="#5761D7"/>
</linearGradient>
<linearGradient id="paint6_linear_187_2635" x1="9.10252" y1="59.8231" x2="25.3925" y2="59.8231" gradientUnits="userSpaceOnUse">
<stop stop-color="#42E8E0"/>
<stop offset="0.1507" stop-color="#43E3E0"/>
<stop offset="0.3285" stop-color="#45D5DF"/>
<stop offset="0.5199" stop-color="#49BDDD"/>
<stop offset="0.7209" stop-color="#4E9CDB"/>
<stop offset="0.9274" stop-color="#5472D8"/>
<stop offset="1" stop-color="#5761D7"/>
</linearGradient>
<radialGradient id="paint7_radial_187_2635" cx="0" cy="0" r="1" gradientUnits="userSpaceOnUse" gradientTransform="translate(33.6307 24.0511) rotate(11.1976) scale(20.9487)">
<stop stop-color="#C0BFF6"/>
<stop offset="1" stop-color="#393091"/>
</radialGradient>
<radialGradient id="paint8_radial_187_2635" cx="0" cy="0" r="1" gradientUnits="userSpaceOnUse" gradientTransform="translate(31.173 39.102) scale(16.1027 21.9201)">
<stop stop-color="#C0BFF6"/>
<stop offset="1" stop-color="#393091"/>
</radialGradient>
<linearGradient id="paint9_linear_187_2635" x1="25.6445" y1="53.7688" x2="25.6445" y2="31.8579" gradientUnits="userSpaceOnUse">
<stop stop-color="#42E8E0"/>
<stop offset="0.00467455" stop-color="#42E6DF"/>
<stop offset="0.1358" stop-color="#40B6CB"/>
<stop offset="0.2707" stop-color="#3E8DB9"/>
<stop offset="0.4074" stop-color="#3C6BAA"/>
<stop offset="0.5467" stop-color="#3B519F"/>
<stop offset="0.6893" stop-color="#3A3F97"/>
<stop offset="0.8375" stop-color="#393493"/>
<stop offset="1" stop-color="#393091"/>
</linearGradient>
<radialGradient id="paint10_radial_187_2635" cx="0" cy="0" r="1" gradientUnits="userSpaceOnUse" gradientTransform="translate(16.2086 11.999) scale(11.3397 11.3397)">
<stop stop-color="#C0BFF6"/>
<stop offset="1" stop-color="#393091"/>
</radialGradient>
<radialGradient id="paint11_radial_187_2635" cx="0" cy="0" r="1" gradientUnits="userSpaceOnUse" gradientTransform="translate(31.9802 25.4173) scale(16.1521 16.1521)">
<stop stop-color="#C0BFF6"/>
<stop offset="1" stop-color="#393091"/>
</radialGradient>
<linearGradient id="paint12_linear_187_2635" x1="24.6861" y1="36.2977" x2="27.3465" y2="17.3685" gradientUnits="userSpaceOnUse">
<stop stop-color="#42E8E0"/>
<stop offset="0.00467455" stop-color="#42E6DF"/>
<stop offset="0.1358" stop-color="#40B6CB"/>
<stop offset="0.2707" stop-color="#3E8DB9"/>
<stop offset="0.4074" stop-color="#3C6BAA"/>
<stop offset="0.5467" stop-color="#3B519F"/>
<stop offset="0.6893" stop-color="#3A3F97"/>
<stop offset="0.8375" stop-color="#393493"/>
<stop offset="1" stop-color="#393091"/>
</linearGradient>
<radialGradient id="paint13_radial_187_2635" cx="0" cy="0" r="1" gradientUnits="userSpaceOnUse" gradientTransform="translate(31.8509 25.2453) scale(7.67073 7.67073)">
<stop stop-color="#C0BFF6"/>
<stop offset="1" stop-color="#393091"/>
</radialGradient>
<radialGradient id="paint14_radial_187_2635" cx="0" cy="0" r="1" gradientUnits="userSpaceOnUse" gradientTransform="translate(38.4549 37.8012) rotate(11.1976) scale(7.57135)">
<stop stop-color="#C0BFF6"/>
<stop offset="1" stop-color="#393091"/>
</radialGradient>
<linearGradient id="paint15_linear_187_2635" x1="33.3687" y1="42.3029" x2="39.2405" y2="38.0364" gradientUnits="userSpaceOnUse">
<stop stop-color="#42E8E0"/>
<stop offset="0.00467455" stop-color="#42E6DF"/>
<stop offset="0.1358" stop-color="#40B6CB"/>
<stop offset="0.2707" stop-color="#3E8DB9"/>
<stop offset="0.4074" stop-color="#3C6BAA"/>
<stop offset="0.5467" stop-color="#3B519F"/>
<stop offset="0.6893" stop-color="#3A3F97"/>
<stop offset="0.8375" stop-color="#393493"/>
<stop offset="1" stop-color="#393091"/>
</linearGradient>
<radialGradient id="paint16_radial_187_2635" cx="0" cy="0" r="1" gradientUnits="userSpaceOnUse" gradientTransform="translate(43.0354 49.3266) rotate(6.80285) scale(6.43652 10.6028)">
<stop stop-color="#C0BFF6"/>
<stop offset="1" stop-color="#393091"/>
</radialGradient>
<linearGradient id="paint17_linear_187_2635" x1="36.982" y1="52.5992" x2="41.9735" y2="53.1947" gradientUnits="userSpaceOnUse">
<stop stop-color="#42E8E0"/>
<stop offset="0.00467455" stop-color="#42E6DF"/>
<stop offset="0.1358" stop-color="#40B6CB"/>
<stop offset="0.2707" stop-color="#3E8DB9"/>
<stop offset="0.4074" stop-color="#3C6BAA"/>
<stop offset="0.5467" stop-color="#3B519F"/>
<stop offset="0.6893" stop-color="#3A3F97"/>
<stop offset="0.8375" stop-color="#393493"/>
<stop offset="1" stop-color="#393091"/>
</linearGradient>
<radialGradient id="paint18_radial_187_2635" cx="0" cy="0" r="1" gradientUnits="userSpaceOnUse" gradientTransform="translate(11.2839 38.9666) rotate(61.2704) scale(6.43657 10.603)">
<stop stop-color="#C0BFF6"/>
<stop offset="1" stop-color="#393091"/>
</radialGradient>
<linearGradient id="paint19_linear_187_2635" x1="8.29717" y1="41.4538" x2="2.74336" y2="40.0279" gradientUnits="userSpaceOnUse">
<stop stop-color="#42E8E0"/>
<stop offset="0.00467455" stop-color="#42E6DF"/>
<stop offset="0.1358" stop-color="#40B6CB"/>
<stop offset="0.2707" stop-color="#3E8DB9"/>
<stop offset="0.4074" stop-color="#3C6BAA"/>
<stop offset="0.5467" stop-color="#3B519F"/>
<stop offset="0.6893" stop-color="#3A3F97"/>
<stop offset="0.8375" stop-color="#393493"/>
<stop offset="1" stop-color="#393091"/>
</linearGradient>
<linearGradient id="paint20_linear_187_2635" x1="42.0428" y1="38.7249" x2="42.0428" y2="8.39791" gradientUnits="userSpaceOnUse">
<stop stop-color="#161242"/>
<stop offset="0.1155" stop-color="#171746"/>
<stop offset="0.2522" stop-color="#1A2550"/>
<stop offset="0.3996" stop-color="#1F3D62"/>
<stop offset="0.5547" stop-color="#265F7B"/>
<stop offset="0.7159" stop-color="#2F899A"/>
<stop offset="0.8795" stop-color="#39BDC0"/>
<stop offset="1" stop-color="#42E8E0"/>
</linearGradient>
<linearGradient id="paint21_linear_187_2635" x1="9.00059" y1="26.5034" x2="9.00059" y2="0" gradientUnits="userSpaceOnUse">
<stop stop-color="#161242"/>
<stop offset="0.1155" stop-color="#171746"/>
<stop offset="0.2522" stop-color="#1A2550"/>
<stop offset="0.3996" stop-color="#1F3D62"/>
<stop offset="0.5547" stop-color="#265F7B"/>
<stop offset="0.7159" stop-color="#2F899A"/>
<stop offset="0.8795" stop-color="#39BDC0"/>
<stop offset="1" stop-color="#42E8E0"/>
</linearGradient>
<clipPath id="clip0_187_2635">
<rect width="63" height="73.9307" fill="white"/>
</clipPath>
</defs>
</svg>
