<svg width="66" height="55" viewBox="0 0 66 55" fill="none" xmlns="http://www.w3.org/2000/svg">
<g clip-path="url(#clip0_185_887)">
<path d="M52.314 12.0913H0.363281V53.9573H52.314V12.0913Z" fill="white"/>
<path d="M52.3139 54.3205H0.363001C0.162725 54.3205 0 54.1578 0 53.9575V12.0915C0 11.8912 0.162725 11.7285 0.363001 11.7285H52.3139C52.5141 11.7285 52.6769 11.8912 52.6769 12.0915V53.9575C52.6769 54.1578 52.5141 54.3205 52.3139 54.3205ZM0.726002 53.5945H51.9509V12.4545H0.726002V53.5945Z" fill="black"/>
<path d="M52.314 7.73975H0.363281V14.7578H52.314V7.73975Z" fill="#ACD4F7"/>
<path d="M52.3139 15.121H0.363001C0.162725 15.121 0 14.9582 0 14.758V7.73995C0 7.53968 0.162725 7.37695 0.363001 7.37695H52.3139C52.5141 7.37695 52.6769 7.53968 52.6769 7.73995V14.758C52.6769 14.9582 52.5141 15.121 52.3139 15.121ZM0.726002 14.395H51.9509V8.10295H0.726002V14.395Z" fill="black"/>
<path d="M24.0143 25.4932H17.4219V48.0576H24.0143V25.4932Z" fill="white"/>
<path d="M24.014 48.4208H17.4216C17.2213 48.4208 17.0586 48.2581 17.0586 48.0578V25.4934C17.0586 25.2931 17.2213 25.1304 17.4216 25.1304H24.0182C24.2185 25.1304 24.3812 25.2931 24.3812 25.4934V48.0578C24.377 48.2581 24.2143 48.4208 24.014 48.4208ZM17.7846 47.6948H23.651V25.8564H17.7846V47.6948Z" fill="black"/>
<path d="M34.7291 33.3081H28.1367V48.0576H34.7291V33.3081Z" fill="#ACD4F7"/>
<path d="M34.7289 48.4208H28.1364C27.9362 48.4208 27.7734 48.258 27.7734 48.0578V33.3083C27.7734 33.108 27.9362 32.9453 28.1364 32.9453H34.7289C34.9291 32.9453 35.0919 33.108 35.0919 33.3083V48.0578C35.0919 48.258 34.9291 48.4208 34.7289 48.4208ZM28.4994 47.6948H34.3659V33.6713H28.4994V47.6948Z" fill="black"/>
<path d="M13.2995 30.834H6.70703V48.0577H13.2995V30.834Z" fill="white"/>
<path d="M13.2992 48.4209H6.70675C6.50647 48.4209 6.34375 48.2582 6.34375 48.0579V30.8342C6.34375 30.6339 6.50647 30.4712 6.70675 30.4712H13.2992C13.4994 30.4712 13.6622 30.6339 13.6622 30.8342V48.0579C13.6622 48.2582 13.4994 48.4209 13.2992 48.4209ZM7.06975 47.6949H12.9362V31.1972H7.06975V47.6949Z" fill="black"/>
<path d="M8.77796 47.3195C8.7571 47.3195 8.73624 47.3153 8.71538 47.3028C8.28979 47.0483 7.88089 46.7771 7.5012 46.4892C7.44696 46.4474 7.43862 46.3723 7.47617 46.3181C7.51789 46.2639 7.593 46.2555 7.64724 46.2931C8.02276 46.5768 8.42331 46.8438 8.84055 47.0942C8.89896 47.1275 8.91565 47.2026 8.88228 47.2611C8.86141 47.2986 8.81969 47.3195 8.77796 47.3195Z" fill="black"/>
<path d="M10.9503 47.286C10.9252 47.286 10.9044 47.2776 10.8835 47.2651L7.54973 44.9912C7.49548 44.9536 7.47879 44.8785 7.51635 44.8243C7.5539 44.77 7.629 44.7575 7.68324 44.7909L11.017 47.0648C11.0713 47.1024 11.0879 47.1775 11.0504 47.2317C11.0295 47.2651 10.992 47.286 10.9503 47.286Z" fill="black"/>
<path d="M12.3267 46.2889C12.3058 46.2889 12.2808 46.2847 12.2641 46.2722L7.5576 43.3432C7.49919 43.3098 7.4825 43.2347 7.52005 43.1763C7.5576 43.1178 7.62853 43.1012 7.68695 43.1387L12.3934 46.0677C12.4519 46.1011 12.4685 46.1762 12.431 46.2346C12.406 46.268 12.3642 46.2889 12.3267 46.2889Z" fill="black"/>
<path d="M12.3864 44.5322C12.3655 44.5322 12.3489 44.528 12.328 44.5197C10.6966 43.6393 9.09019 42.6963 7.55474 41.7075C7.5005 41.6699 7.48381 41.5948 7.51718 41.5406C7.55474 41.4863 7.62984 41.4696 7.68408 41.503C9.21536 42.4877 10.8134 43.4307 12.4406 44.3069C12.4991 44.3403 12.5199 44.4112 12.4907 44.4696C12.4699 44.5072 12.4281 44.5322 12.3864 44.5322Z" fill="black"/>
<path d="M12.322 42.7129C12.3011 42.7129 12.2802 42.7088 12.2636 42.6962C10.678 41.8033 9.09669 40.8646 7.56541 39.9091C7.507 39.8757 7.49031 39.8006 7.52786 39.7422C7.56542 39.6838 7.63635 39.6671 7.69476 39.7046C9.22604 40.6559 10.8032 41.5947 12.3846 42.4876C12.443 42.521 12.4638 42.5961 12.4305 42.6545C12.4054 42.6921 12.3637 42.7129 12.322 42.7129Z" fill="black"/>
<path d="M12.2976 40.8857C12.2767 40.8857 12.2559 40.8816 12.2392 40.8691L7.49933 38.1486C7.44091 38.1153 7.42005 38.0402 7.45343 37.9817C7.48681 37.9233 7.56191 37.9025 7.62033 37.9359L12.3602 40.6563C12.4186 40.6896 12.4395 40.7647 12.4061 40.8232C12.3769 40.8649 12.3393 40.8857 12.2976 40.8857Z" fill="black"/>
<path d="M12.3146 39.1916C12.2937 39.1916 12.277 39.1874 12.2562 39.1749C10.6456 38.3029 9.04758 37.3808 7.50796 36.4336C7.44954 36.4003 7.43285 36.3252 7.46623 36.2667C7.49961 36.2083 7.57471 36.1916 7.63313 36.225C9.16858 37.1722 10.7624 38.0901 12.3688 38.958C12.4272 38.9913 12.4481 39.0623 12.4189 39.1207C12.4022 39.1666 12.3605 39.1916 12.3146 39.1916Z" fill="black"/>
<path d="M12.1742 37.2052C12.1533 37.2052 12.1324 37.2011 12.1116 37.1886L7.60952 34.5474C7.5511 34.514 7.53441 34.4389 7.56779 34.3805C7.60117 34.3221 7.67628 34.3054 7.73469 34.3388L12.2367 36.9841C12.2952 37.0175 12.3118 37.0926 12.2785 37.151C12.2576 37.1844 12.2159 37.2052 12.1742 37.2052Z" fill="black"/>
<path d="M12.1511 35.432C12.1302 35.432 12.1094 35.4278 12.0927 35.4153C10.5948 34.5558 9.0927 33.6629 7.62401 32.7533C7.5656 32.7199 7.54891 32.6448 7.58646 32.5864C7.61984 32.528 7.69494 32.5113 7.75335 32.5489C9.21788 33.4543 10.7158 34.3472 12.2137 35.2067C12.2721 35.2401 12.293 35.3152 12.2596 35.3736C12.2345 35.4111 12.1928 35.432 12.1511 35.432Z" fill="black"/>
<path d="M12.3134 33.7924C12.2926 33.7924 12.2675 33.7882 12.2508 33.7757L9.22167 31.8939C9.16325 31.8606 9.14656 31.7855 9.18411 31.727C9.22167 31.6686 9.2926 31.6519 9.35101 31.6895L12.3802 33.5712C12.4386 33.6046 12.4553 33.6797 12.4177 33.7381C12.3969 33.7715 12.3552 33.7924 12.3134 33.7924Z" fill="black"/>
<path d="M12.3105 32.2197C12.2897 32.2197 12.2646 32.2113 12.2438 32.1988L11.4677 31.6898C11.4135 31.6522 11.3968 31.5771 11.4343 31.5229C11.4719 31.4686 11.547 31.4519 11.6012 31.4895L12.3773 31.9985C12.4315 32.0361 12.4482 32.1112 12.4107 32.1654C12.3898 32.1988 12.3522 32.2197 12.3105 32.2197Z" fill="black"/>
<path d="M49.1797 27.9383C51.7123 30.4334 54.2492 32.9243 56.7818 35.4194C58.1212 36.7379 59.4605 38.0564 60.9209 39.1996C61.7095 39.8171 62.5815 40.3971 63.5412 40.3971C64.4966 40.3971 65.5147 39.5918 65.5064 38.507C65.5022 37.6642 64.918 36.9841 64.3715 36.4083C60.3367 32.1524 56.1184 28.1177 51.7374 24.3208C50.9404 25.4974 50.1352 26.674 49.1797 27.9383Z" fill="white"/>
<path d="M63.5408 40.756C62.4727 40.756 61.5422 40.1427 60.6952 39.4793C59.2182 38.3235 57.8496 36.9758 56.527 35.674L48.9248 28.1929C48.7955 28.0636 48.7788 27.8591 48.8914 27.7131C49.8386 26.4572 50.6522 25.268 51.4408 24.1165C51.4992 24.0288 51.591 23.9746 51.6953 23.9579C51.7996 23.9454 51.9039 23.9746 51.979 24.0414C56.3517 27.8299 60.6118 31.9064 64.6382 36.1539C65.2307 36.7797 65.8649 37.5266 65.8732 38.4988C65.8774 39.062 65.6479 39.6086 65.2265 40.03C64.7759 40.489 64.1458 40.756 63.5408 40.756ZM49.6592 27.9008L57.036 35.1567C58.3462 36.4459 59.7022 37.7769 61.1458 38.9077C61.8885 39.4918 62.6938 40.03 63.5408 40.03C63.9539 40.03 64.392 39.8381 64.7091 39.521C64.9928 39.2373 65.1472 38.8743 65.143 38.5071C65.1389 37.802 64.6298 37.2053 64.1083 36.6587C60.1904 32.528 56.0555 28.5601 51.808 24.8633C51.1445 25.8397 50.4478 26.8452 49.6592 27.9008Z" fill="black"/>
<path d="M39.2895 0.362793C30.5608 0.362793 23.4844 7.43921 23.4844 16.1679C23.4844 24.8966 30.5608 31.973 39.2895 31.973C48.0182 31.973 55.0946 24.8966 55.0946 16.1679C55.0946 7.43921 48.0182 0.362793 39.2895 0.362793ZM39.2895 28.172C32.6595 28.172 27.2854 22.7979 27.2854 16.1679C27.2854 9.53794 32.6595 4.16386 39.2895 4.16386C45.9195 4.16386 51.2935 9.53794 51.2935 16.1679C51.2935 22.7979 45.9195 28.172 39.2895 28.172ZM39.2895 28.172C32.6595 28.172 27.2854 22.7979 27.2854 16.1679C27.2854 9.53794 32.6595 4.16386 39.2895 4.16386C45.9195 4.16386 51.2935 9.53794 51.2935 16.1679C51.2935 22.7979 45.9195 28.172 39.2895 28.172Z" fill="white"/>
<path d="M39.2892 32.3404C30.3728 32.3404 23.1211 25.0888 23.1211 16.1723C23.1211 7.25584 30.3728 0 39.2892 0C48.2057 0 55.4573 7.25167 55.4573 16.1681C55.4573 25.0846 48.2015 32.3404 39.2892 32.3404ZM39.2892 0.726001C30.7733 0.726001 23.8471 7.65222 23.8471 16.1681C23.8471 24.684 30.7733 31.6103 39.2892 31.6103C47.8051 31.6103 54.7313 24.684 54.7313 16.1681C54.7313 7.65222 47.8051 0.726001 39.2892 0.726001ZM39.2892 28.5352C32.4715 28.5352 26.9222 22.9859 26.9222 16.1681C26.9222 9.35039 32.4673 3.80107 39.2892 3.80107C46.1111 3.80107 51.6562 9.35039 51.6562 16.1681C51.6562 22.9859 46.1069 28.5352 39.2892 28.5352ZM27.644 16.1681C27.644 22.5895 32.8679 27.8092 39.285 27.8092C45.7022 27.8092 50.9261 22.5853 50.9261 16.1681C50.9261 9.75095 45.7022 4.52708 39.285 4.52708C32.8679 4.52708 27.644 9.75095 27.644 16.1681Z" fill="black"/>
<path d="M51.2184 28.3893C51.2059 28.3893 51.1976 28.3893 51.1851 28.3851C51.1225 28.3684 51.0849 28.3016 51.1016 28.2349L51.3812 27.2627C51.3979 27.2001 51.4646 27.1584 51.5314 27.1793C51.594 27.1959 51.6315 27.2627 51.6148 27.3295L51.3353 28.3016C51.3186 28.3559 51.2685 28.3893 51.2184 28.3893Z" fill="black"/>
<path d="M52.5439 30.0957C52.5397 30.0957 52.5313 30.0957 52.5272 30.0957C52.4604 30.0873 52.4145 30.0248 52.4229 29.958C52.5731 28.8231 52.7483 27.6715 52.9569 26.545C52.9694 26.4782 53.032 26.4365 53.0988 26.449C53.1655 26.4615 53.2073 26.5241 53.1948 26.5909C52.9903 27.7174 52.8109 28.8606 52.6649 29.9955C52.6565 30.0498 52.6064 30.0957 52.5439 30.0957Z" fill="black"/>
<path d="M54.2733 31.7479C54.2066 31.7479 54.1523 31.6937 54.1523 31.6269C54.1523 31.0594 54.24 30.104 54.3151 29.2611C54.361 28.7479 54.4027 28.3057 54.4152 28.0261C54.4194 27.9593 54.4695 27.9051 54.5404 27.9134C54.6071 27.9176 54.6572 27.9719 54.653 28.0386C54.6405 28.3223 54.5988 28.7688 54.5487 29.2862C54.4736 30.1248 54.386 31.072 54.386 31.6311C54.3943 31.6937 54.3401 31.7479 54.2733 31.7479Z" fill="black"/>
<path d="M56.0409 33.3795C55.9742 33.3795 55.9199 33.3253 55.9199 33.2627L55.8281 29.2238C55.8281 29.157 55.8782 29.1028 55.945 29.0986C56.0201 29.0986 56.066 29.1487 56.0701 29.2155L56.1619 33.2543C56.1619 33.3211 56.1077 33.3754 56.0409 33.3795Z" fill="black"/>
<path d="M57.7212 35.1649C57.6544 35.1649 57.6044 35.1149 57.6002 35.0481L57.4416 30.8215C57.4375 30.7547 57.4917 30.7005 57.5585 30.6963C57.6294 30.6963 57.6795 30.7464 57.6836 30.8131L57.8422 35.0398C57.8464 35.1065 57.7921 35.1608 57.7254 35.1649H57.7212Z" fill="black"/>
<path d="M59.4356 36.6673C59.373 36.6673 59.3188 36.6172 59.3146 36.5546L59.1018 32.6033C59.0976 32.5366 59.1477 32.4782 59.2145 32.474C59.2937 32.4656 59.3396 32.5199 59.3438 32.5866L59.5566 36.5379C59.5608 36.6047 59.5107 36.6631 59.4439 36.6673C59.4398 36.6673 59.4398 36.6673 59.4356 36.6673Z" fill="black"/>
<path d="M61.1323 38.0607C61.0697 38.0607 61.0155 38.0107 61.0113 37.9481L60.7151 34.1053C60.7109 34.0385 60.761 33.9801 60.8277 33.9759C60.8862 33.9676 60.9529 34.0218 60.9571 34.0886L61.2533 37.9314C61.2575 37.9982 61.2074 38.0566 61.1407 38.0607C61.1365 38.0607 61.1323 38.0607 61.1323 38.0607Z" fill="black"/>
<path d="M62.7338 39.3086C62.6713 39.3086 62.6212 39.2627 62.6128 39.2001L62.2665 35.8288C62.2582 35.762 62.3083 35.7036 62.375 35.6952C62.4376 35.6869 62.5002 35.737 62.5085 35.8037L62.8548 39.175C62.8632 39.2418 62.8131 39.3002 62.7464 39.3086C62.7422 39.3086 62.738 39.3086 62.7338 39.3086Z" fill="black"/>
<path d="M64.3065 39.1289C64.2481 39.1289 64.198 39.0872 64.1855 39.0288L63.9435 37.5226C63.9309 37.4558 63.9768 37.3932 64.0436 37.3849C64.1104 37.3724 64.173 37.4183 64.1813 37.485L64.4233 38.9913C64.4358 39.058 64.3899 39.1206 64.3232 39.1289C64.319 39.1289 64.3106 39.1289 64.3065 39.1289Z" fill="black"/>
<g opacity="0.1294">
<path d="M50.4695 19.9942C50.0731 20.328 49.8896 20.8704 49.5516 21.2668C49.489 21.3795 48.6796 22.2932 48.2206 22.7313C47.8242 23.086 47.4445 23.3989 47.0565 23.691C46.9897 23.7035 46.9188 23.7286 46.852 23.7703C44.8743 25.2014 43.3931 25.723 40.8938 26.1819C39.7089 26.4031 38.3403 26.5908 36.4752 26.1277C35.1651 25.8231 34.5351 25.4643 33.1665 24.5422C32.5865 24.1333 31.2931 22.9942 30.4127 21.9302C29.4656 20.6368 29.1443 19.5061 28.9482 18.9929C28.7521 18.463 28.6019 17.9206 28.4475 17.3781C28.218 16.6354 28.1471 16.3726 28.1471 15.7384C28.001 15.3337 27.8717 14.9289 27.7507 14.5159C27.6339 14.4616 27.5045 14.4366 27.3752 14.4449C27.1624 16.0763 27.1958 17.7161 27.4002 19.3433C27.7549 20.7494 28.193 22.2724 29.5407 23.787C30.6255 24.9844 31.3724 25.3975 31.8397 25.7814C32.9287 26.5658 34.0886 27.2834 35.3695 27.7007C36.0705 27.9051 36.8007 27.9886 37.5225 28.0762C37.5267 28.0762 37.5308 28.0762 37.535 28.0804C38.3236 28.2222 39.1247 28.2264 39.9175 28.1388C40.5392 28.0887 41.14 27.9051 41.7408 27.7424C42.9884 27.4378 44.2318 27.054 45.3708 26.4531C45.834 26.1694 45.9925 26.0568 46.2095 25.894C47.6072 25.022 49.0509 23.812 49.7894 22.9692C49.9814 22.5728 50.1691 22.1722 50.3402 21.7675C50.5571 21.1625 50.7783 20.5575 50.9911 19.9525C50.8284 19.8899 50.6322 19.8941 50.4695 19.9942Z" fill="black"/>
</g>
<g opacity="0.1294">
<path d="M41.4483 32.3237C41.4525 32.3237 41.4191 32.3279 41.3398 32.3362C41.3524 32.3362 41.3649 32.3321 41.3774 32.3321C41.3983 32.3321 41.4233 32.3279 41.4483 32.3237Z" fill="black"/>
</g>
<g opacity="0.1294">
<path d="M53.0472 25.1513C52.4464 24.9803 52.0416 25.3975 51.7454 25.8565C51.7329 25.8732 51.7204 25.8857 51.7037 25.9066C51.178 26.5199 51.0319 26.4657 50.1641 27.2501C50.1599 27.2542 50.1557 27.2542 50.1515 27.2584C49.9805 27.3794 49.776 27.4629 49.6675 27.6506C49.3755 28.0136 49.3838 28.4309 49.5591 28.7605C49.2044 28.6353 48.8998 28.9023 48.6286 29.136C48.4492 29.2653 47.9568 29.6117 47.8609 29.6575C46.872 30.2751 44.8734 31.3557 44.4145 31.5059C43.484 31.8773 42.5244 32.1985 41.523 32.3154C41.5981 32.307 41.6774 32.2945 41.7316 32.2862C41.6356 32.2987 41.5355 32.3112 41.4395 32.3279C41.4353 32.3279 41.4103 32.3321 41.3686 32.3362C41.3394 32.3404 41.306 32.3446 41.2768 32.3488C41.2977 32.3446 41.3144 32.3446 41.331 32.3404C41.306 32.3446 41.281 32.3446 41.2518 32.3488C39.9166 32.5282 38.5689 32.4531 37.2421 32.2444C36.6579 32.161 36.1614 32.1276 35.1684 31.9107C34.6134 31.7688 34.071 31.5769 33.5411 31.3682C33.5328 31.3641 33.5286 31.3641 33.5203 31.3599C33.5119 31.3557 33.5077 31.3557 33.4994 31.3515C33.466 31.3349 33.4326 31.3223 33.3951 31.3056C32.1142 30.7173 31.772 30.2459 30.562 29.2945C29.6149 28.4893 29.0558 28.2264 28.0168 27.2334C26.569 25.894 25.9432 24.4754 24.8541 22.5352C24.4578 21.4796 23.0183 21.9928 23.4814 23.0234C24.4828 24.8217 25.359 26.7327 26.8694 28.1805C27.633 29.0067 28.5676 29.645 29.423 30.3669C30.3284 31.0803 31.1545 31.9148 32.1767 32.4656C33.8874 33.3919 35.8068 33.7006 37.7177 33.9134C40.7177 34.4058 43.8261 33.7006 46.4172 32.136C47.2308 31.6478 48.0194 31.1221 48.8164 30.613C49.1961 30.3126 49.7176 30.0664 49.9513 29.6409C50.018 29.5073 50.0222 29.3571 49.9846 29.2194C50.2851 29.3989 50.6731 29.4364 51.0403 29.2194C51.7287 28.8398 52.3212 28.3015 52.7969 27.6757C53.1014 27.3419 53.3977 26.9956 53.6313 26.6075C53.9693 26.0609 53.6564 25.3099 53.0472 25.1513Z" fill="black"/>
</g>
<path d="M35.5771 13.3768L33.6953 15.1334L38.8232 20.8287L44.4935 12.5757L42.3906 10.9067L38.4352 16.4853L35.5771 13.3768Z" fill="#ACD4F7"/>
<path d="M38.8244 21.1919C38.72 21.1919 38.6241 21.1502 38.5531 21.0709L33.4252 15.3755C33.2917 15.2295 33.3042 15.0042 33.4461 14.8665L35.3279 13.1099C35.3988 13.0432 35.4948 13.0056 35.5907 13.0139C35.6867 13.0181 35.7785 13.0598 35.8452 13.1308L38.3988 15.9096L42.0955 10.6983C42.1539 10.619 42.2416 10.5647 42.3417 10.5481C42.4418 10.5355 42.542 10.5606 42.6171 10.6232L44.7158 12.2921C44.866 12.4089 44.8952 12.6259 44.7909 12.7803L39.1248 21.0375C39.0622 21.1293 38.962 21.1877 38.8494 21.1961C38.841 21.1919 38.8327 21.1919 38.8244 21.1919ZM34.2055 15.1544L38.7868 20.2447L44.0023 12.6509L42.4669 11.4326L38.7326 16.6982C38.67 16.7858 38.5698 16.8442 38.4614 16.8484C38.3487 16.8567 38.2444 16.8108 38.1693 16.7316L35.5615 13.8902L34.2055 15.1544Z" fill="black"/>
<g opacity="0.1294">
<path d="M12.9336 48.0037C12.9628 47.9996 12.992 47.9954 13.0212 47.9912C12.992 47.9954 12.9545 47.9996 12.9336 48.0037Z" fill="black"/>
</g>
<g opacity="0.1294">
<path d="M13.2449 47.966C13.2199 47.966 13.1782 47.9702 13.1197 47.9785C13.1072 47.9785 13.0947 47.9827 13.0822 47.9827C13.078 47.9827 13.0697 47.9827 13.0572 47.9869C13.0446 47.9869 13.0363 47.991 13.0238 47.991C13.0405 47.9869 13.053 47.9869 13.0655 47.9869C13.0196 47.9911 12.9737 47.9994 12.932 48.0036C12.932 48.0036 12.932 48.0036 12.9362 48.0036C12.9278 48.0036 12.9195 48.0077 12.9111 48.0077C12.7442 47.9076 12.5314 47.8617 12.3019 47.8993C11.1211 47.9076 9.94035 47.9869 8.76373 48.0328C8.12952 48.0703 7.45776 47.9744 6.84442 48.1329C6.11841 48.4041 6.35207 49.539 7.12397 49.5223C8.64273 49.4931 10.1615 49.4431 11.6844 49.3763C11.9139 49.3763 12.1392 49.3721 12.3687 49.3638C12.4188 49.3638 12.4647 49.3596 12.5147 49.3554C12.7567 49.3429 12.9946 49.3262 13.2324 49.2887C13.174 49.297 13.1156 49.3054 13.0572 49.3137C13.1072 49.3054 13.1489 49.3012 13.1782 49.297C13.1698 49.297 13.1656 49.297 13.1573 49.3012C13.199 49.297 13.2407 49.2928 13.2825 49.2928C13.6538 49.3262 14.0168 49.0133 14.0085 48.6294C14.0168 48.2289 13.6288 47.9118 13.2449 47.966Z" fill="black"/>
</g>
<g opacity="0.1294">
<path d="M23.6249 47.9159C23.1784 47.9576 22.7361 47.8992 22.2939 47.8867C21.401 47.9201 20.5039 47.9076 19.611 47.9243C18.8808 47.9994 18.1089 47.8575 17.3996 48.0411C16.6361 48.3332 16.8781 49.5098 17.6917 49.5014C19.6694 49.3721 21.6513 49.5098 23.629 49.4263C24.6179 49.4055 24.6179 47.9451 23.6249 47.9159Z" fill="black"/>
</g>
<g opacity="0.1294">
<path d="M34.9596 47.9914C34.4923 47.5783 33.712 47.8454 33.1321 47.8203C31.9221 47.8579 30.7121 47.9538 29.4979 47.8954C29.1975 47.8871 28.8929 47.8871 28.5925 47.8579C28.5049 47.8412 28.2378 47.8036 28.1293 47.8537C27.9374 47.9205 27.7663 48.0289 27.6662 48.2125C27.3574 48.7049 27.7538 49.4017 28.338 49.3808C29.7107 49.4267 31.0918 49.3391 32.4645 49.3224C32.9986 49.3099 33.5326 49.2932 34.0667 49.2598C34.2837 49.2348 34.5215 49.2932 34.7176 49.1847C35.2016 49.022 35.3226 48.3293 34.9596 47.9914Z" fill="black"/>
</g>
</g>
<defs>
<clipPath id="clip0_185_887">
<rect width="65.87" height="54.3207" fill="white"/>
</clipPath>
</defs>
</svg>
