<svg width="71" height="59" viewBox="0 0 71 59" fill="none" xmlns="http://www.w3.org/2000/svg">
<g clip-path="url(#clip0_187_2793)">
<path d="M35.6392 15.5392L25.4309 0.360352L15.2227 15.5392H20.9693V45.6212H29.8926V15.5392H35.6392Z" fill="#05DAC3"/>
<path d="M29.8944 45.9903H20.9712C20.7676 45.9903 20.6022 45.8249 20.6022 45.6213V15.9083H15.2245C15.0888 15.9083 14.9616 15.832 14.8979 15.7132C14.8343 15.5945 14.8428 15.446 14.9191 15.3358L25.1274 0.152679C25.2631 -0.050893 25.6024 -0.050893 25.7382 0.152679L35.9464 15.3358C36.0228 15.4503 36.0313 15.5945 35.9676 15.7132C35.904 15.832 35.7768 15.9083 35.6411 15.9083H30.2634V45.6171C30.2634 45.8249 30.098 45.9903 29.8944 45.9903ZM21.3401 45.2524H29.5254V15.5393C29.5254 15.3358 29.6908 15.1704 29.8944 15.1704H34.9455L25.4328 1.0221L15.9158 15.1704H20.9712C21.1747 15.1704 21.3401 15.3358 21.3401 15.5393V45.2524Z" fill="#05DAC3"/>
<path d="M15.8111 25.7942L9.90749 17.8379L4.00391 25.7942H7.32892V41.5625H12.4861V25.7942H15.8111Z" fill="white"/>
<path d="M12.4859 41.9315H7.3287C7.12513 41.9315 6.95973 41.7661 6.95973 41.5625V26.1631H4.00369C3.86373 26.1631 3.7365 26.0825 3.67288 25.9596C3.60927 25.8366 3.62199 25.6839 3.70681 25.5736L9.6104 17.6131C9.75036 17.4265 10.0642 17.4265 10.2042 17.6131L16.1077 25.5736C16.1926 25.6839 16.2053 25.8366 16.1417 25.9596C16.0781 26.0825 15.9508 26.1631 15.8109 26.1631H12.8548V41.5625C12.8548 41.7661 12.6894 41.9315 12.4859 41.9315ZM7.69767 41.1935H12.1211V25.7942C12.1211 25.5906 12.2865 25.4252 12.4901 25.4252H15.0814L9.90728 18.4571L4.7374 25.4252H7.3287C7.53227 25.4252 7.69767 25.5906 7.69767 25.7942V41.1935Z" fill="black"/>
<path d="M9.6723 57.6234C19.7025 57.7337 29.7369 57.8482 39.767 57.9584C42.5195 57.9881 45.3059 58.0178 47.982 57.3732C50.6582 56.7285 53.2579 55.3374 54.8017 53.06C56.3455 50.7783 56.5999 47.5296 54.9586 45.32C53.6396 43.5387 51.2986 42.6905 49.089 42.8305C46.8751 42.9747 46.0269 43.5175 44.2923 44.9001C44.6867 43.6405 44.9581 42.9577 44.8521 41.4479C44.7461 39.9381 43.9954 38.53 43.003 37.3849C40.4075 34.3865 36.0137 33.0802 32.1967 34.1744C28.384 35.2686 25.3474 38.7039 24.7324 42.6227C23.723 38.7336 18.833 36.5452 15.1136 38.0635C11.3942 39.5818 9.39663 44.1791 10.4654 48.0555C9.59172 46.3803 7.4627 45.5872 5.60934 45.9519C3.75175 46.3166 2.19527 47.6611 1.20709 49.2727C0.664236 50.1591 0.265574 51.1854 0.384324 52.216C0.579414 53.9167 2.1062 55.1424 3.633 55.9185C6.0589 57.1441 8.78591 57.6149 9.6723 57.6234Z" fill="white"/>
<path d="M41.5148 58.3404C40.9295 58.3404 40.3443 58.3319 39.7632 58.3277L9.66851 57.9926C8.78636 57.9841 5.99997 57.5261 3.46805 56.241C2.02184 55.5073 0.249063 54.218 0.020045 52.2544C-0.0944643 51.279 0.202411 50.2102 0.893708 49.0778C2.03032 47.216 3.72675 45.9437 5.53769 45.5874C7.11538 45.2778 8.73547 45.7231 9.84239 46.6859C9.4819 42.924 11.5812 39.1028 14.9741 37.7202C16.9123 36.9314 19.2788 37.0671 21.3145 38.0849C22.8031 38.8314 23.9694 39.9807 24.6395 41.3294C25.6532 37.7796 28.5201 34.8405 32.0911 33.8184C36.0735 32.6776 40.5648 34.0135 43.2791 37.1434C44.0934 38.0807 45.09 39.5863 45.2173 41.4227C45.2936 42.4957 45.1876 43.1743 44.984 43.8995C46.2479 42.9792 47.1894 42.5847 49.0597 42.4618C51.5492 42.3006 53.9242 43.31 55.2517 45.0997C56.8802 47.2966 56.8209 50.7319 55.1032 53.268C53.657 55.4055 51.1548 56.9917 48.063 57.7339C45.9128 58.2513 43.699 58.3404 41.5148 58.3404ZM9.67699 57.2547L39.7717 57.5897C42.4648 57.6194 45.247 57.6491 47.8976 57.0129C50.8113 56.3131 53.1523 54.8372 54.4968 52.8482C56.0448 50.5622 56.1126 47.4874 54.6664 45.5323C53.4874 43.9419 51.3626 43.047 49.1148 43.1912C47.0197 43.3269 46.2351 43.8147 44.526 45.1803C44.3987 45.2821 44.2206 45.2863 44.0891 45.1973C43.9534 45.1039 43.8983 44.9385 43.9449 44.7816L44.0425 44.4763C44.3775 43.416 44.5811 42.7798 44.4878 41.4651C44.3733 39.8323 43.4657 38.4709 42.7278 37.6184C40.2425 34.7472 35.9547 33.4706 32.3032 34.5182C28.6516 35.5657 25.6913 38.9162 25.1018 42.6696C25.0764 42.8434 24.9322 42.9707 24.754 42.9792C24.5759 42.9876 24.4232 42.8731 24.3808 42.7035C23.9525 41.0452 22.7141 39.599 20.988 38.7338C19.1431 37.8093 17.0013 37.682 15.2583 38.3903C11.8145 39.7941 9.78726 44.1667 10.8263 47.9412C10.8772 48.1236 10.7797 48.3145 10.6058 48.3823C10.4319 48.4502 10.2326 48.3781 10.1435 48.2084C9.3886 46.7665 7.47163 45.9437 5.68613 46.2999C4.07452 46.618 2.56045 47.7673 1.52987 49.4511C0.923396 50.4435 0.66469 51.3511 0.757993 52.1569C0.948842 53.7939 2.52228 54.9178 3.80733 55.5709C6.08904 56.7457 8.75668 57.2462 9.67699 57.2547Z" fill="black"/>
<g opacity="0.1294">
<path d="M51.7352 54.689C51.7225 54.6975 51.7098 54.7017 51.697 54.706C51.0185 54.9605 50.2932 55.0622 49.5892 55.2234C47.8334 55.5966 44.7756 55.5245 42.3327 55.5839C41.2004 55.5881 40.0722 55.7111 38.9399 55.6348C37.2943 55.4906 35.6445 55.5457 33.9948 55.5245C30.8903 55.4651 27.7901 55.4185 24.6856 55.4482C22.7262 55.4651 20.7668 55.6093 18.8032 55.4821C16.8056 55.4058 14.8081 55.427 12.8105 55.4058C11.517 55.2955 10.2235 55.304 8.92572 55.2404C8.30652 55.2022 7.47102 54.9817 5.77883 54.6339C5.20629 54.5067 4.62526 54.4176 4.05695 54.2819C3.72615 54.1971 3.36141 54.0953 3.04757 54.2946C2.39021 54.6551 2.51744 55.7281 3.25963 55.9062C4.95606 56.254 6.61433 56.7332 8.25987 57.0555C9.14201 57.1997 10.0369 57.1913 10.9275 57.2082C11.8012 57.2549 12.6664 57.3609 13.54 57.3609C15.8896 57.3524 18.2391 57.4288 20.5845 57.5093C22.0985 57.5009 23.6083 57.4118 25.1182 57.3906C25.0461 57.7638 25.2921 58.2091 25.7543 58.1964C29.126 58.1243 32.4977 58.0437 35.8651 57.9843C38.2867 58.0437 40.7126 58.1709 43.1343 57.9886C44.5466 57.908 45.9716 57.9292 47.3627 57.6493C47.7571 57.5687 48.143 57.4542 48.5162 57.31C48.7622 57.2591 48.9827 57.098 49.093 56.8859C50.6707 56.6611 52.5156 56.2201 52.9142 55.3676C53.0754 54.6169 52.3205 54.2819 51.7352 54.689Z" fill="black"/>
</g>
<path d="M54.0312 45.8631C56.6056 48.3992 59.1842 50.9312 61.7585 53.4673C63.1199 54.8075 64.4813 56.1477 65.9657 57.3098C66.7672 57.9374 67.6536 58.5269 68.6291 58.5269C69.6003 58.5269 70.6351 57.7084 70.6266 56.6057C70.6224 55.749 70.0286 55.0577 69.473 54.4725C65.3719 50.1466 61.0842 46.0454 56.631 42.186C55.8167 43.3863 55.0025 44.578 54.0312 45.8631Z" fill="white"/>
<path d="M68.6308 58.896C67.5451 58.896 66.5993 58.2725 65.7384 57.5982C64.237 56.4234 62.8459 55.0535 61.5015 53.7303L53.7743 46.126C53.6428 45.9946 53.6258 45.7868 53.7403 45.6383C54.7031 44.366 55.5301 43.1573 56.3274 41.991C56.3868 41.9062 56.4843 41.8425 56.5903 41.8298C56.6964 41.8171 56.8024 41.8425 56.883 41.9104C61.3276 45.7613 65.6578 49.9049 69.7504 54.2223C70.3527 54.8584 70.9973 55.6218 71.0058 56.6058C71.01 57.1783 70.7768 57.7339 70.3484 58.1622C69.8819 58.6203 69.2457 58.896 68.6308 58.896ZM54.5207 45.8249L62.0189 53.2002C63.3506 54.5107 64.729 55.8636 66.1964 57.0129C66.9513 57.6067 67.7698 58.1538 68.6308 58.1538C69.0506 58.1538 69.496 57.9629 69.8183 57.6363C70.1067 57.348 70.2636 56.979 70.2594 56.6058C70.2551 55.889 69.7377 55.2825 69.2076 54.727C65.2252 50.5283 61.0223 46.495 56.7048 42.7374C56.022 43.7383 55.318 44.7604 54.5207 45.8249Z" fill="black"/>
<path d="M43.9754 17.8384C35.103 17.8384 27.9102 25.0313 27.9102 33.9036C27.9102 42.776 35.103 49.9688 43.9754 49.9688C52.8477 49.9688 60.0406 42.776 60.0406 33.9036C60.0406 25.0313 52.8477 17.8384 43.9754 17.8384ZM43.9754 46.1052C37.2363 46.1052 31.7738 40.6427 31.7738 33.9036C31.7738 27.1645 37.2363 21.702 43.9754 21.702C50.7145 21.702 56.177 27.1645 56.177 33.9036C56.177 40.6427 50.7145 46.1052 43.9754 46.1052ZM43.9754 46.1052C37.2363 46.1052 31.7738 40.6427 31.7738 33.9036C31.7738 27.1645 37.2363 21.702 43.9754 21.702C50.7145 21.702 56.177 27.1645 56.177 33.9036C56.177 40.6427 50.7145 46.1052 43.9754 46.1052Z" fill="white"/>
<path d="M43.9772 50.3377C34.914 50.3377 27.543 42.9666 27.543 33.9034C27.543 24.8402 34.914 17.4692 43.9772 17.4692C53.0404 17.4692 60.4114 24.8402 60.4114 33.9034C60.4114 42.9666 53.0404 50.3377 43.9772 50.3377ZM43.9772 18.2072C35.3211 18.2072 28.2809 25.2474 28.2809 33.9034C28.2809 42.5595 35.3211 49.5997 43.9772 49.5997C52.6332 49.5997 59.6734 42.5595 59.6734 33.9034C59.6734 25.2474 52.6332 18.2072 43.9772 18.2072ZM43.9772 46.474C37.0472 46.474 31.4066 40.8334 31.4066 33.9034C31.4066 26.9735 37.0472 21.3329 43.9772 21.3329C50.9071 21.3329 56.5477 26.9735 56.5477 33.9034C56.5477 40.8334 50.9113 46.474 43.9772 46.474ZM32.1445 33.9034C32.1445 40.4305 37.4544 45.7361 43.9772 45.7361C50.5 45.7361 55.8098 40.4262 55.8098 33.9034C55.8098 27.3764 50.5 22.0708 43.9772 22.0708C37.4544 22.0708 32.1445 27.3764 32.1445 33.9034Z" fill="black"/>
<path d="M56.1032 46.3257C56.0905 46.3257 56.082 46.3257 56.0693 46.3215C56.0057 46.3045 55.9675 46.2367 55.9845 46.1688L56.2687 45.1806C56.2856 45.117 56.3577 45.0789 56.4213 45.0958C56.4849 45.1128 56.5231 45.1806 56.5062 45.2485L56.222 46.2367C56.205 46.2876 56.1584 46.3257 56.1032 46.3257Z" fill="black"/>
<path d="M57.456 48.056C57.4518 48.056 57.4433 48.056 57.4391 48.056C57.3712 48.0475 57.3245 47.9839 57.333 47.916C57.4857 46.7624 57.6681 45.5919 57.8759 44.4426C57.8886 44.3747 57.9522 44.3323 58.0201 44.345C58.0879 44.3577 58.1303 44.4214 58.1176 44.4892C57.9098 45.6343 57.7274 46.7964 57.579 47.9499C57.5705 48.0093 57.5154 48.056 57.456 48.056Z" fill="black"/>
<path d="M59.2128 49.7396C59.145 49.7396 59.0898 49.6845 59.0898 49.6166C59.0898 49.0398 59.1789 48.0686 59.2552 47.2119C59.3019 46.6903 59.3443 46.2407 59.357 45.9566C59.3613 45.8887 59.4164 45.8293 59.4843 45.8421C59.5521 45.8463 59.603 45.9014 59.603 45.9693C59.5903 46.2577 59.5479 46.7115 59.497 47.2374C59.4206 48.0898 59.3316 49.0526 59.3316 49.6209C59.3358 49.6845 59.2807 49.7396 59.2128 49.7396Z" fill="black"/>
<path d="M61.0054 51.3938C60.9375 51.3938 60.8824 51.3387 60.8824 51.2751L60.7891 47.1697C60.7891 47.1019 60.84 47.0467 60.9078 47.0425C60.9078 47.0425 60.9078 47.0425 60.9121 47.0425C60.9799 47.0425 61.035 47.0976 61.035 47.1612L61.1284 51.2666C61.1326 51.3387 61.0775 51.3938 61.0054 51.3938Z" fill="black"/>
<path d="M62.7141 53.2089C62.6462 53.2089 62.5953 53.158 62.5911 53.0902L62.4299 48.794C62.4257 48.7261 62.4808 48.671 62.5487 48.6667C62.6208 48.6625 62.6717 48.7176 62.6759 48.7855L62.8371 53.0817C62.8413 53.1496 62.7862 53.2047 62.7183 53.2089C62.7183 53.2089 62.7183 53.2089 62.7141 53.2089Z" fill="black"/>
<path d="M64.4567 54.7399C64.3931 54.7399 64.338 54.689 64.3337 54.6254L64.1174 50.6133C64.1132 50.5454 64.1641 50.4861 64.2319 50.4818C64.2956 50.4733 64.3592 50.5285 64.3592 50.5963L64.5755 54.6084C64.5797 54.6763 64.5288 54.7356 64.461 54.7399H64.4567Z" fill="black"/>
<path d="M66.1783 56.1523C66.1146 56.1523 66.0595 56.1014 66.0553 56.0378L65.7542 52.1317C65.7499 52.0639 65.8008 52.0045 65.8687 52.0003C65.9365 51.9875 65.9959 52.0469 66.0001 52.1148L66.3013 56.0208C66.3055 56.0887 66.2546 56.148 66.1867 56.1523C66.1867 56.1523 66.1825 56.1523 66.1783 56.1523Z" fill="black"/>
<path d="M67.8119 57.4247C67.7482 57.4247 67.6974 57.378 67.6889 57.3144L67.3369 53.8876C67.3284 53.8198 67.3793 53.7604 67.4471 53.7519C67.515 53.7434 67.5744 53.7943 67.5828 53.8622L67.9349 57.289C67.9433 57.3568 67.8924 57.4162 67.8246 57.4247C67.8203 57.4247 67.8161 57.4247 67.8119 57.4247Z" fill="black"/>
<path d="M69.4062 57.2422C69.3469 57.2422 69.296 57.1997 69.2832 57.1404L69.0373 55.6093C69.0245 55.5415 69.0712 55.4779 69.139 55.4694C69.2069 55.4567 69.2705 55.5033 69.279 55.5712L69.525 57.1022C69.5377 57.1701 69.491 57.2337 69.4232 57.2422C69.4189 57.2422 69.4147 57.2422 69.4062 57.2422Z" fill="black"/>
<g opacity="0.1294">
<path d="M55.3442 37.7884C54.9413 38.1277 54.7546 38.679 54.4111 39.0819C54.3475 39.1964 53.5247 40.1252 53.0582 40.5705C52.6553 40.931 52.2694 41.2491 51.875 41.546C51.8071 41.5587 51.735 41.5842 51.6671 41.6266C49.6569 43.0813 48.1513 43.6114 45.6109 44.0779C44.4064 44.3027 43.0153 44.4935 41.1196 44.0228C39.7879 43.7132 39.1475 43.3485 37.7564 42.4112C37.1669 41.9955 35.8521 40.8377 34.9573 39.7563C33.9945 38.4415 33.668 37.2922 33.4686 36.7705C33.2693 36.2319 33.1166 35.6806 32.9597 35.1292C32.7264 34.3743 32.6544 34.1114 32.6544 33.4667C32.5059 33.0553 32.3744 32.644 32.2514 32.2241C32.1327 32.169 32.0012 32.1435 31.8698 32.152C31.6535 33.8103 31.6874 35.477 31.8952 37.131C32.2557 38.5603 32.701 40.1083 34.0709 41.6478C35.1736 42.865 35.9327 43.2848 36.4077 43.675C37.5146 44.4723 38.6937 45.2018 39.9957 45.6259C40.7082 45.8337 41.4504 45.9186 42.1841 46.0076C42.1883 46.0076 42.1926 46.0076 42.1968 46.0119C42.9984 46.156 43.8126 46.1603 44.6185 46.0712C45.2504 46.0203 45.8611 45.8337 46.4718 45.6683C47.7399 45.3587 49.0037 44.9685 50.1616 44.3578C50.6323 44.0694 50.7935 43.9549 51.014 43.7895C52.4348 42.9031 53.9022 41.6732 54.6529 40.8165C54.8479 40.4136 55.0388 40.0065 55.2127 39.5951C55.4332 38.9801 55.658 38.3652 55.8743 37.7502C55.7089 37.6866 55.5096 37.6908 55.3442 37.7884Z" fill="black"/>
</g>
<g opacity="0.1294">
<path d="M57.9649 43.0303C57.3542 42.8564 56.9428 43.2805 56.6417 43.747C56.629 43.764 56.6163 43.7767 56.5993 43.7979C56.0649 44.4213 55.9165 44.3662 55.0344 45.1635C55.0301 45.1678 55.0259 45.1678 55.0216 45.172C54.8477 45.295 54.6399 45.3798 54.5297 45.5707C54.2625 45.9015 54.2413 46.2789 54.3685 46.597C54.1013 46.5928 53.8299 46.7158 53.6518 46.9278C53.1725 47.3095 53.4948 47.0847 52.952 47.441C51.4888 48.3401 50.9247 48.4885 49.4616 49.0441C48.2995 49.4428 47.0653 49.587 45.8651 49.8118C44.508 50.0111 44.3086 50.1341 42.9303 49.9984C42.099 49.8754 41.2763 49.7057 40.4662 49.4894C39.8385 49.3198 39.249 49.0484 38.6426 48.8193C37.226 48.3316 35.4321 47.5725 34.6305 46.9066C32.951 45.647 31.8399 44.2687 30.8008 42.9327C30.5802 42.6486 30.5294 42.4492 30.2706 41.9785C29.8338 41.3635 28.8287 41.864 29.0407 42.5934C29.4818 43.7767 30.1137 44.3026 30.3512 44.6716C31.0892 45.5707 31.7678 46.5376 32.6414 47.3095C33.3073 47.8905 33.9562 48.5013 34.7153 48.9593C35.8095 49.5234 36.9461 50.0281 38.1082 50.4437C39.3126 51.0077 42.0736 51.8644 44.1602 51.7966C45.8482 51.6481 47.5403 51.3937 49.1944 51.0332C50.2334 50.7278 51.2174 50.2571 52.1928 49.7863C53.0283 49.3876 53.7832 48.8533 54.5297 48.3147C54.7417 48.145 55.0131 48.0051 55.098 47.7336C55.1701 47.5894 55.187 47.4283 55.1573 47.2713C55.3991 47.3307 55.6663 47.301 55.9292 47.1484C56.629 46.7624 57.2312 46.2153 57.7147 45.5792C58.0243 45.2399 58.3254 44.8879 58.5629 44.4934C58.9022 43.9548 58.5841 43.1957 57.9649 43.0303Z" fill="black"/>
</g>
<path d="M39.6268 40.3033C39.4232 40.3033 39.2578 40.1379 39.2578 39.9343V31.8338C39.2578 31.6302 39.4232 31.4648 39.6268 31.4648C39.8304 31.4648 39.9958 31.6302 39.9958 31.8338V39.9343C39.9958 40.1379 39.8304 40.3033 39.6268 40.3033Z" fill="black"/>
<path d="M47.744 40.3033C47.5404 40.3033 47.375 40.1379 47.375 39.9343V31.8338C47.375 31.6302 47.5404 31.4648 47.744 31.4648C47.9475 31.4648 48.1129 31.6302 48.1129 31.8338V39.9343C48.1129 40.1379 47.9475 40.3033 47.744 40.3033Z" fill="black"/>
<path d="M43.6854 40.3034C43.4818 40.3034 43.3164 40.138 43.3164 39.9344V26.8973C43.3164 26.6937 43.4818 26.5283 43.6854 26.5283C43.889 26.5283 44.0544 26.6937 44.0544 26.8973V39.9344C44.0544 40.138 43.889 40.3034 43.6854 40.3034Z" fill="black"/>
<g opacity="0.1294">
<path d="M27.9938 35.4896C27.1667 34.7517 26.3991 35.9858 25.7884 36.4524C25.2074 37.0122 24.6603 37.6399 24.2658 38.3481C23.8502 37.9707 23.3583 37.6696 22.8366 37.466C22.3998 37.2836 21.9205 37.0673 21.4413 37.1013C20.6397 37.1734 20.5634 38.3778 21.3395 38.5729C22.4846 38.7765 23.4812 39.6247 23.7018 40.1888C23.7272 40.4051 23.846 40.5917 24.0114 40.7231C23.9605 40.9861 23.8926 41.2533 23.9987 41.495C24.1853 42.0379 24.9996 42.076 25.271 41.5798C25.4618 41.1048 25.3049 41.4187 25.4364 40.8376C25.4873 40.651 25.4618 40.4475 25.3643 40.2821C25.3558 40.2693 25.3473 40.2566 25.3388 40.2439C25.4194 39.9979 25.4533 39.7265 25.5551 39.4847C25.5763 39.4381 25.5975 39.3914 25.6188 39.3448C25.9538 38.7086 26.0301 38.6789 26.2337 38.4075C26.5815 37.9622 26.9717 37.555 27.3788 37.1691C27.6163 36.885 28.0022 36.7026 28.1507 36.3548C28.3034 36.0792 28.2143 35.7102 27.9938 35.4896Z" fill="black"/>
</g>
</g>
<defs>
<clipPath id="clip0_187_2793">
<rect width="71" height="58.896" fill="white"/>
</clipPath>
</defs>
</svg>
