<svg width="213" height="5" viewBox="0 0 213 5" fill="none" xmlns="http://www.w3.org/2000/svg">
<path d="M210.172 4.02098C210.825 4.02098 211.912 3.98601 212.565 4.05594C211.477 4.05594 210.39 4.09091 209.519 4.09091C209.084 4.16084 210.172 4.1958 210.607 4.23077C211.477 4.23077 212.347 4.23077 213 4.3007C212.347 4.33566 211.477 4.33566 210.607 4.33566C209.737 4.33566 208.649 4.3007 207.997 4.37063C208.649 4.40559 208.649 4.40559 208.649 4.47552C207.126 4.51049 207.126 4.72028 204.734 4.65035C203.863 4.65035 202.993 4.65035 202.123 4.65035C201.035 4.79021 199.73 4.93007 196.902 4.86014C196.032 4.8951 195.162 4.8951 194.292 4.86014C191.899 4.93007 189.506 4.8951 187.113 4.93007C186.895 4.96503 186.678 4.96503 186.46 4.93007C185.59 4.93007 184.72 4.93007 183.85 4.93007H183.632H183.415C182.545 4.93007 181.892 4.96503 181.022 4.93007C177.976 4.93007 174.713 4.93007 171.668 4.96503C169.71 4.96503 168.187 4.93007 167.099 4.82517H166.882H166.664C166.012 4.8951 166.229 5 164.054 5C161.878 4.96503 159.703 4.96503 157.31 4.96503C155.787 4.93007 154.264 5 152.742 4.96503C147.303 4.93007 141.865 4.93007 136.426 4.8951C131.64 4.8951 126.854 4.86014 122.069 4.82517C120.328 4.8951 118.588 4.82517 117.065 4.82517C108.364 4.79021 99.4445 4.79021 90.7429 4.68532C86.8272 4.65035 82.9115 4.68532 78.9958 4.61539C75.5152 4.61539 72.2521 4.58042 68.7715 4.54545C60.7225 4.47552 52.6736 4.40559 44.8421 4.26573C41.5791 4.26573 38.5335 4.23077 35.7055 4.12587C31.1372 4.12587 26.7864 4.02098 22.6531 3.91608C22.0005 3.91608 21.5654 3.88112 21.1304 3.88112C19.3901 3.91608 18.0848 3.84615 16.562 3.77622C15.4743 3.77622 14.6042 3.74126 13.9516 3.70629C13.299 3.67133 12.6463 3.67133 11.9937 3.63636C11.3411 3.56643 10.2534 3.56643 9.16571 3.56643C7.42538 3.4965 5.25 3.46154 4.81493 3.28671C1.55183 3.25175 0.681671 3.11189 0.899216 2.93706C-0.406021 2.72727 -0.188492 2.51748 0.899216 2.30769C0.899216 2.2028 0.899216 2.0979 0.899216 1.99301V1.95804C0.464127 1.71329 2.85707 1.5035 2.20445 1.29371C1.98691 1.11888 3.29213 0.979021 4.16229 0.839161C4.16229 0.804196 4.16229 0.734266 5.03244 0.699301C5.24998 0.664336 5.90262 0.629371 6.77278 0.594406C7.86047 0.454545 9.1657 0.34965 11.3411 0.314685C11.7762 0.244755 12.6463 0.27972 13.2989 0.27972C13.9516 0.244755 14.6042 0.20979 15.2568 0.174825C15.9094 0.13986 16.562 0.13986 17.2147 0.13986C19.8251 0.0699301 22.4356 0.034965 25.2636 0.034965C26.3513 0.034965 27.2215 0.034965 28.3092 0.034965C28.7442 0.034965 29.3969 0.034965 29.8319 0C35.7055 0 41.7966 0 47.6702 0.034965C50.7157 0.034965 53.7613 0 56.8068 0.104895C59.4173 0.104895 62.4628 0.034965 65.2908 0.13986C65.9435 0.13986 66.5961 0.13986 67.0311 0.13986C68.989 0.104895 70.7293 0.104895 72.6872 0.13986C77.473 0.13986 82.2589 0.174825 86.8272 0.20979C88.35 0.20979 90.0903 0.174825 91.3955 0.244755C92.2657 0.27972 93.1359 0.27972 94.006 0.244755C96.834 0.244755 99.662 0.244755 102.49 0.27972C102.925 0.27972 103.36 0.27972 103.795 0.27972C104.883 0.314685 106.188 0.27972 107.276 0.314685C108.799 0.314685 110.539 0.314685 112.062 0.314685C113.367 0.314685 114.89 0.314685 115.977 0.34965C116.848 0.34965 117.718 0.34965 118.588 0.34965C120.328 0.34965 122.286 0.314685 124.026 0.384615C127.29 0.384615 130.553 0.41958 133.598 0.41958C138.819 0.41958 144.04 0.489511 149.261 0.524476C151.001 0.524476 152.524 0.524476 154.264 0.559441C152.742 0.559441 151.001 0.559441 149.479 0.559441C151.001 0.524476 152.742 0.524476 154.264 0.559441C157.092 0.559441 159.703 0.559441 162.313 0.629371C163.401 0.629371 164.489 0.629371 165.576 0.664336C165.794 0.664336 166.012 0.664336 166.229 0.664336C168.622 0.664336 171.015 0.699301 173.408 0.769231C175.583 0.769231 177.541 0.839161 179.499 0.874126C180.587 0.874126 181.674 0.874126 182.762 0.944056C184.72 0.979021 186.46 1.01399 187.113 1.11888C188.418 1.04895 189.288 1.11888 190.376 1.15385C191.464 1.22378 191.029 1.32867 192.334 1.3986C191.681 1.3986 191.029 1.3986 190.376 1.3986C190.593 1.43357 190.811 1.46853 191.029 1.46853C192.551 1.53846 194.074 1.57343 195.597 1.60839C195.814 1.60839 196.032 1.60839 196.249 1.60839C197.772 1.60839 199.513 1.57343 200.818 1.64336H201.035C201.035 1.64336 201.035 1.67832 200.818 1.67832C199.948 1.67832 199.077 1.67832 198.425 1.67832H198.207C199.295 1.64336 200.165 1.64336 200.818 1.67832C201.253 1.81818 199.948 1.85315 199.513 1.92308C199.73 1.95804 198.642 1.99301 199.513 2.02797C200.165 2.02797 201.253 1.99301 201.035 2.06294C200.818 2.13287 199.513 2.0979 198.86 2.0979C198.642 2.0979 198.425 2.13287 198.207 2.13287C199.948 2.23776 201.688 2.27273 203.428 2.34266C206.039 2.34266 207.126 2.48252 208.649 2.58741C209.084 2.62238 209.737 2.58741 209.954 2.62238C208.649 2.62238 209.302 2.72727 208.432 2.76224C205.386 2.83217 205.386 2.93706 208.214 3.07692C209.084 3.11189 210.825 3.14685 211.26 3.25175C211.26 3.28671 211.26 3.32168 211.26 3.32168C211.695 3.32168 212.13 3.32168 212.13 3.35664C211.912 3.42657 211.26 3.39161 210.607 3.39161C210.172 3.39161 209.519 3.39161 209.302 3.42657C209.737 3.53147 209.519 3.56643 208.214 3.56643C208.649 3.63636 209.954 3.6014 209.737 3.70629C210.39 3.70629 210.825 3.74126 211.477 3.74126C210.825 3.81119 209.519 3.74126 209.302 3.81119C209.954 3.88112 209.954 3.91608 208.867 3.88112C207.997 3.88112 206.909 3.84615 207.997 3.95105C208.649 3.95105 209.519 3.95105 210.172 4.02098ZM6.12015 1.85315C5.9026 1.85315 5.9026 1.85315 5.9026 1.88811C5.9026 1.85315 6.12015 1.85315 6.12015 1.85315ZM148.826 2.2028C148.608 2.2028 148.391 2.2028 148.173 2.23776C148.391 2.2028 148.608 2.2028 148.826 2.2028ZM37.4458 2.34266C37.6634 2.34266 37.6634 2.34266 37.4458 2.34266C37.6634 2.34266 37.6634 2.34266 37.4458 2.34266ZM60.94 2.37762C61.1576 2.41259 61.1576 2.37762 61.3751 2.37762C61.1576 2.37762 60.94 2.37762 60.94 2.37762ZM88.1325 2.9021C88.1325 2.9021 87.9149 2.86713 88.1325 2.9021C87.9149 2.9021 87.9149 2.9021 88.1325 2.9021ZM69.8592 2.51748C69.8592 2.48252 69.8592 2.51748 69.8592 2.51748C69.8592 2.48252 69.8592 2.48252 69.8592 2.51748C69.8592 2.51748 69.8592 2.48252 69.8592 2.51748ZM59.6348 3.18182C59.4173 3.18182 59.4173 3.18182 59.1997 3.14685C59.1997 3.14685 58.9822 3.14685 58.9822 3.18182C59.1997 3.18182 59.4173 3.18182 59.6348 3.18182ZM43.972 2.76224C44.1895 2.76224 44.1895 2.76224 43.972 2.76224C44.1895 2.76224 44.1895 2.76224 43.972 2.76224C43.972 2.76224 44.1895 2.76224 43.972 2.76224ZM35.488 2.72727C35.7055 2.69231 35.488 2.69231 35.488 2.72727C35.488 2.69231 35.488 2.69231 35.488 2.72727C35.488 2.69231 35.488 2.69231 35.488 2.72727ZM70.7293 3.4965C70.9469 3.4965 70.9469 3.4965 70.7293 3.4965C70.9469 3.4965 70.9469 3.4965 70.7293 3.4965C70.9469 3.4965 70.9469 3.4965 70.7293 3.4965ZM66.3785 3.39161C66.161 3.39161 66.161 3.42657 65.7259 3.42657C65.9435 3.39161 66.161 3.39161 66.3785 3.39161ZM25.0461 2.72727C25.0461 2.76224 25.0461 2.76224 25.0461 2.72727C25.0461 2.76224 25.0461 2.76224 25.0461 2.72727C25.0461 2.76224 25.0461 2.76224 25.0461 2.72727ZM160.138 2.02797C160.138 2.02797 160.138 1.99301 159.92 2.02797C159.92 2.02797 159.92 2.02797 159.703 2.02797C159.92 2.02797 159.92 2.02797 160.138 2.02797ZM177.759 3.28671C177.759 3.25175 177.976 3.25175 177.976 3.21678C177.541 3.25175 177.541 3.25175 177.759 3.28671ZM126.854 3.77622C126.854 3.77622 126.637 3.77622 126.637 3.81119C126.854 3.81119 127.29 3.81119 127.507 3.81119C127.29 3.77622 127.072 3.77622 126.854 3.77622ZM140.559 1.81818C140.559 1.78322 140.559 1.78322 140.559 1.81818C140.559 1.78322 140.342 1.78322 140.559 1.81818C140.342 1.81818 140.559 1.81818 140.559 1.81818ZM143.605 3.88112C143.823 3.88112 143.823 3.88112 143.605 3.88112C143.823 3.88112 143.823 3.88112 143.605 3.88112ZM33.095 1.22378C33.095 1.18881 33.095 1.22378 33.095 1.22378C33.095 1.18881 33.095 1.22378 33.095 1.22378ZM173.625 2.30769C173.843 2.30769 173.843 2.30769 173.625 2.30769C173.843 2.27273 174.06 2.27273 174.06 2.23776C173.843 2.23776 173.625 2.23776 173.408 2.23776C173.625 2.27273 173.625 2.27273 173.625 2.30769ZM184.502 1.81818C184.285 1.81818 184.067 1.81818 183.85 1.81818C184.067 1.81818 184.285 1.81818 184.502 1.81818ZM171.232 1.71329C171.015 1.74825 171.015 1.74825 171.232 1.71329C171.668 1.71329 172.103 1.71329 172.538 1.71329C172.103 1.71329 171.668 1.71329 171.232 1.71329ZM108.364 4.26573C108.364 4.3007 108.364 4.3007 108.146 4.33566C108.364 4.33566 108.581 4.33566 108.799 4.33566C108.581 4.3007 108.581 4.3007 108.364 4.26573ZM152.742 1.08392C152.959 1.08392 152.959 1.08392 153.177 1.08392C153.177 1.08392 152.959 1.08392 152.742 1.08392ZM4.59738 2.2028C4.59738 2.2028 4.37984 2.2028 4.59738 2.2028V2.2028ZM49.1929 0.384615H48.9754H49.1929ZM89.0026 0.664336C88.7851 0.664336 88.7851 0.664336 89.0026 0.664336C89.0026 0.664336 88.7851 0.664336 89.0026 0.664336ZM98.7919 0.489511C99.0094 0.489511 99.0094 0.489511 99.227 0.489511C99.0094 0.489511 99.0094 0.489511 98.7919 0.489511ZM206.039 4.47552C206.909 4.40559 207.562 4.44056 208.432 4.47552C207.779 4.47552 206.909 4.47552 206.039 4.47552ZM65.0733 0.13986V0.174825V0.13986ZM116.413 0.41958C116.63 0.41958 116.848 0.41958 117.065 0.454545C116.63 0.41958 116.413 0.41958 116.413 0.41958ZM194.292 2.02797C194.292 2.02797 194.292 2.06294 194.292 2.02797V2.02797Z" fill="url(#paint0_linear_392_2353)"/>
<defs>
<linearGradient id="paint0_linear_392_2353" x1="180.013" y1="5.4626e-06" x2="2.90268" y2="71.8083" gradientUnits="userSpaceOnUse">
<stop stop-color="#3AFFDC"/>
<stop offset="0.247843" stop-color="#94E7A5"/>
<stop offset="1" stop-color="#FFCA63"/>
</linearGradient>
</defs>
</svg>
